<svg version="1.1" xmlns="http://www.w3.org/2000/svg" viewBox="0 0 878.068359375 609.5078125">
  <!-- svg-source:excalidraw -->
  <defs>
    <style>
      @font-face {
        font-family: "Virgil";
        src: url("https://excalidraw.com/FG_Virgil.woff2");
      }
      @font-face {
        font-family: "Cascadia";
        src: url("https://excalidraw.com/Cascadia.woff2");
      }
    </style>
  </defs>
  <rect x="0" y="0" width="878.068359375" height="609.5078125" fill="#ffffff"></rect><g transform="translate(15.720703125 11.0703125) rotate(0 426.173828125 281.21875)"><path d="M0 0 C336.5089076284432 0, 673.0178152568864 0, 852.34765625 0 M0 0 C278.9362625627491 0, 557.8725251254982 0, 852.34765625 0 M852.34765625 0 C852.34765625 223.94511386007653, 852.34765625 447.89022772015306, 852.34765625 562.4375 M852.34765625 0 C852.34765625 171.05984231857002, 852.34765625 342.11968463714004, 852.34765625 562.4375 M852.34765625 562.4375 C665.7169239995189 562.4375, 479.08619174903794 562.4375, 0 562.4375 M852.34765625 562.4375 C515.4496288504506 562.4375, 178.55160145090122 562.4375, 0 562.4375 M0 562.4375 C0 433.755302738765, 0 305.07310547753, 0 0 M0 562.4375 C0 412.0826642529166, 0 261.72782850583314, 0 0" stroke="#000000" stroke-width="1" fill="none"></path></g><g transform="translate(10.916015625 10) rotate(0 60.57421875 28.578125)"><path d="M0 0 C35.817820239059074 0, 71.63564047811815 0, 121.1484375 0 M0 0 C44.77259027305627 0, 89.54518054611253 0, 121.1484375 0 M121.1484375 0 C121.1484375 17.93326117206307, 121.1484375 35.86652234412614, 121.1484375 57.15625 M121.1484375 0 C121.1484375 16.964583212966684, 121.1484375 33.92916642593337, 121.1484375 57.15625 M121.1484375 57.15625 C80.01520105708259 57.15625, 38.881964614165184 57.15625, 0 57.15625 M121.1484375 57.15625 C74.89504562341972 57.15625, 28.641653746839438 57.15625, 0 57.15625 M0 57.15625 C0 45.20339849203883, 0 33.25054698407766, 0 0 M0 57.15625 C0 40.00305767851823, 0 22.849865357036464, 0 0" stroke="#000000" stroke-width="1" fill="none"></path></g><g><g transform="translate(103.775390625 38.57421875) rotate(0 -29.302734375 -0.21875)"><path d="M0 0 C-9.767578125 -0.07291666666666667, -48.837890625 -0.3645833333333333, -58.60546875 -0.4375 M0 0 C-9.767578125 -0.07291666666666667, -48.837890625 -0.3645833333333333, -58.60546875 -0.4375" stroke="#000000" stroke-width="1" fill="none"></path></g><g transform="translate(103.775390625 38.57421875) rotate(0 -29.302734375 -0.21875)"><path d="M-30.995088582610435 -10.25406764997458 C-36.90506396343104 -8.152840764151701, -42.815039344251645 -6.051613878328821, -58.60546875 -0.4375 M-30.995088582610435 -10.25406764997458 C-39.9679143454698 -7.063877925003782, -48.940740108329166 -3.8736882000329826, -58.60546875 -0.4375" stroke="#000000" stroke-width="1" fill="none"></path></g><g transform="translate(103.775390625 38.57421875) rotate(0 -29.302734375 -0.21875)"><path d="M-31.144722395315412 9.790183171568415 C-37.02266880211018 7.600957402841255, -42.90061520890495 5.411731634114095, -58.60546875 -0.4375 M-31.144722395315412 9.790183171568415 C-40.06892013778917 6.4663890586353885, -48.99311788026293 3.1425949457023616, -58.60546875 -0.4375" stroke="#000000" stroke-width="1" fill="none"></path></g></g><g transform="translate(134.603515625 11.5078125) rotate(0 207.130859375 27.806640625)"><path d="M0 0 C152.92909257761386 0, 305.8581851552277 0, 414.26171875 0 M0 0 C89.26794448964466 0, 178.53588897928933 0, 414.26171875 0 M414.26171875 0 C414.26171875 20.207400491133377, 414.26171875 40.414800982266755, 414.26171875 55.61328125 M414.26171875 0 C414.26171875 18.362798140904125, 414.26171875 36.72559628180825, 414.26171875 55.61328125 M414.26171875 55.61328125 C293.18523841316164 55.61328125, 172.10875807632328 55.61328125, 0 55.61328125 M414.26171875 55.61328125 C267.6186031535111 55.61328125, 120.97548755702223 55.61328125, 0 55.61328125 M0 55.61328125 C0 43.13933119976609, 0 30.665381149532184, 0 0 M0 55.61328125 C0 42.98158353103027, 0 30.349885812060528, 0 0" stroke="#000000" stroke-width="1" fill="none"></path></g><g transform="translate(233.513671875 26.5) rotate(0 113.5 12.5)"><text x="0" y="18" font-family="Virgil, Segoe UI Emoji" font-size="20px" fill="#000000" text-anchor="start" style="white-space: pre;" direction="ltr">Articles on Production-1</text></g><g transform="translate(550.724609375 14.01171875) rotate(0 45.1875 26.576171875)"><path d="M0 0 C28.957796086615417 0, 57.915592173230834 0, 90.375 0 M0 0 C23.320734114514202 0, 46.641468229028405 0, 90.375 0 M90.375 0 C90.375 11.889642352448206, 90.375 23.779284704896412, 90.375 53.152343749999986 M90.375 0 C90.375 15.024557618138711, 90.375 30.049115236277423, 90.375 53.152343749999986 M90.375 53.152343749999986 C60.63058739056578 53.152343749999986, 30.886174781131558 53.152343749999986, 0 53.152343749999986 M90.375 53.152343749999986 C55.97439744441071 53.152343749999986, 21.573794888821425 53.152343749999986, 0 53.152343749999986 M0 53.152343749999986 C0 37.18948827390521, 0 21.226632797810446, 0 0 M0 53.152343749999986 C0 32.30009682963754, 0 11.447849909275092, 0 0" stroke="#000000" stroke-width="1" fill="none"></path></g><g transform="translate(561.912109375 28.087890625) rotate(0 34 12.5)"><text x="34" y="18" font-family="Virgil, Segoe UI Emoji" font-size="20px" fill="#000000" text-anchor="middle" style="white-space: pre;" direction="ltr">Commit</text></g><g transform="translate(641.541015625 14.27734375) rotate(0 69.44921875 27.060546875)"><path d="M0 0 C0 0, 0 0, 0 0 M0 0 C0 0, 0 0, 0 0 M-0.2614568240614483 6.397784017075889 C1.1907039759100086 4.727264110583937, 2.6428647758814656 3.056744204091985, 4.98701540786261 0.36010737529371317 M-0.2614568240614483 6.397784017075889 C0.9861849218032459 4.962536369103081, 2.23382666766794 3.5272887211302733, 4.98701540786261 0.36010737529371317 M0.13314538086761107 12.040858453929006 C4.268406637190337 7.2837845490502815, 8.403667893513063 2.5267106441715566, 10.630089844715727 -0.03449482963534578 M0.13314538086761107 12.040858453929006 C3.73458388379969 7.897877379606614, 7.336022386731769 3.7548963052842215, 10.630089844715727 -0.03449482963534578 M-0.12831144319383903 18.438642471004897 C3.6220399070970735 14.124356761651576, 7.372391257387986 9.810071052298257, 15.617105252578337 0.32561254565836695 M-0.12831144319383903 18.438642471004897 C3.6917627151012478 14.04414984606084, 7.5118368733963345 9.649657221116781, 15.617105252578337 0.32561254565836695 M0.26629076173522215 24.081716907858013 C8.57683429165838 14.521530184199442, 16.887377821581538 4.961343460540871, 21.260179689431453 -0.06898965927069156 M0.26629076173522215 24.081716907858013 C6.578081943240814 16.82083173967781, 12.889873124746407 9.559946571497608, 21.260179689431453 -0.06898965927069156 M0.004833937673772937 30.4795009249339 C6.01689334128952 23.563417724678363, 12.028952744905267 16.647334524422824, 26.247195097294064 0.29111771602302206 M0.004833937673772937 30.4795009249339 C6.924828169971084 22.518958181947472, 13.844822402268395 14.558415438961042, 26.247195097294064 0.29111771602302206 M-0.25662288638767805 36.877284942009794 C10.516277019719544 24.484481235869865, 21.289176925826766 12.091677529729935, 31.89026953414718 -0.10348448890603734 M-0.25662288638767805 36.877284942009794 C7.8125139728531146 27.594804825596626, 15.881650832093907 18.312324709183454, 31.89026953414718 -0.10348448890603734 M0.13797931854138312 42.520359378862906 C11.363396124292946 29.606994527638527, 22.588812930044508 16.69362967641415, 36.877284942009794 0.25662288638767805 M0.13797931854138312 42.520359378862906 C9.147178335634905 32.15646145523195, 18.156377352728427 21.79256353160099, 36.877284942009794 0.25662288638767805 M-0.12347750552006431 48.9181433959388 C16.329541647832432 29.99110995851992, 32.78256080118493 11.064076521101043, 42.520359378862906 -0.13797931854138312 M-0.12347750552006431 48.9181433959388 C11.943274595098563 35.036933001619374, 24.01002669571719 21.15572260729995, 42.520359378862906 -0.13797931854138312 M0.2711246994089933 54.56121783279191 C11.352138604249848 41.81396951668628, 22.433152509090704 29.066721200580645, 47.50737478672552 0.22212805675232872 M0.2711246994089933 54.56121783279191 C16.59183447815398 35.78638891990069, 32.91254425689897 17.011560007009457, 47.50737478672552 0.22212805675232872 M5.914199136262113 54.16661562786285 C24.00650197097531 33.35380203293367, 42.09880480568851 12.54098843800449, 53.15044922357863 -0.1724741481767289 M5.914199136262113 54.16661562786285 C22.417517311848727 35.18171978435174, 38.92083548743534 16.19682394084063, 53.15044922357863 -0.1724741481767289 M10.901214544124723 54.52672300315657 C29.523367854856687 33.10438616006439, 48.14552116558865 11.682049316972204, 58.13746463144125 0.1876332271169865 M10.901214544124723 54.52672300315657 C22.094389105233233 41.650448611547446, 33.28756366634174 28.774174219938327, 58.13746463144125 0.1876332271169865 M16.544288980977836 54.13212079822751 C31.785833684929948 36.5987292935543, 47.027378388882056 19.065337788881095, 63.78053906829436 -0.20696897781207468 M16.544288980977836 54.13212079822751 C33.88775148415612 34.180749462749006, 51.2312139873344 14.229378127270493, 63.78053906829436 -0.20696897781207468 M21.53130438884045 54.49222817352122 C34.44686368396801 39.63457679881682, 47.36242297909557 24.77692542411242, 68.76755447615697 0.1531383974816336 M21.53130438884045 54.49222817352122 C31.262787678393167 43.29743724182059, 40.99427096794589 32.10264631011995, 68.76755447615697 0.1531383974816336 M27.174378825693566 54.09762596859217 C39.53516343187586 39.878169869176276, 51.895948038058144 25.658713769760375, 74.41062891301009 -0.2414638074474169 M27.174378825693566 54.09762596859217 C42.162695083635775 36.85554046801843, 57.151011341577984 19.61345496744469, 74.41062891301009 -0.2414638074474169 M32.16139423355618 54.45773334388588 C49.7349849914326 34.24162973459372, 67.30857574930903 14.025526125301568, 79.3976443208727 0.11864356784629138 M32.16139423355618 54.45773334388588 C44.121248001633646 40.699495414106416, 56.08110176971111 26.941257484326954, 79.3976443208727 0.11864356784629138 M37.14840964141879 54.817840719179586 C47.58440119619104 42.81260573654433, 58.02039275096329 30.807370753909062, 85.04071875772581 -0.27595863708276624 M37.14840964141879 54.817840719179586 C53.66386020453935 35.81898816034526, 70.1793107676599 16.82013560151094, 85.04071875772581 -0.27595863708276624 M42.7914840782719 54.42323851425053 C57.00411208384437 38.07348027305541, 71.21674008941685 21.72372203186029, 90.02773416558841 0.08414873821094204 M42.7914840782719 54.42323851425053 C61.35824764580737 33.06462028181567, 79.92501121334284 11.706002049380814, 90.02773416558841 0.08414873821094204 M47.778499486134514 54.78334588954424 C60.7154767518889 39.90105595808396, 73.6524540176433 25.018766026623673, 95.67080860244155 -0.3104534667181156 M47.778499486134514 54.78334588954424 C60.17740002168445 40.52004242917195, 72.57630055723438 26.256738968799652, 95.67080860244155 -0.3104534667181156 M53.421573922987626 54.388743684615186 C66.7290218055172 39.08027605981304, 80.0364696880468 23.771808435010886, 100.65782401030415 0.049653908575599814 M53.421573922987626 54.388743684615186 C70.15564892242504 35.13839248119544, 86.88972392186247 15.888041277775699, 100.65782401030415 0.049653908575599814 M58.40858933085024 54.7488510599089 C70.76790977290496 40.53107928864834, 83.12723021495968 26.31330751738779, 106.30089844715727 -0.3449482963534578 M58.40858933085024 54.7488510599089 C69.54888722346976 41.93340431720862, 80.68918511608928 29.117957574508335, 106.30089844715727 -0.3449482963534578 M64.05166376770336 54.354248854979836 C75.73026245990005 40.919557878864175, 87.40886115209672 27.48486690274851, 111.28791385501988 0.015159078940250481 M64.05166376770336 54.354248854979836 C77.25407394477682 39.16661328810139, 90.45648412185028 23.978977721222947, 111.28791385501988 0.015159078940250481 M69.03867917556597 54.71435623027356 C82.37724297764248 39.37009383466299, 95.715806779719 24.025831439052414, 116.2749292628825 0.375266454233973 M69.03867917556597 54.71435623027356 C83.36248001926374 38.23670826835801, 97.6862808629615 21.759060306442457, 116.2749292628825 0.375266454233973 M74.68175361241909 54.319754025344494 C90.79227885323513 35.78671476457308, 106.90280409405116 17.25367550380166, 121.9180036997356 -0.019335750695091747 M74.68175361241909 54.319754025344494 C85.33477958427407 42.064849506017616, 95.98780555612908 29.80994498669074, 121.9180036997356 -0.019335750695091747 M79.66876902028169 54.6798614006382 C89.33652092669165 43.5583850386535, 99.00427283310161 32.436908676668786, 126.9050191075982 0.34077162459862365 M79.66876902028169 54.6798614006382 C92.52002202478236 39.89618595105655, 105.37127502928304 25.112510501474894, 126.9050191075982 0.34077162459862365 M85.31184345713481 54.28525919570915 C95.59803723343649 42.45234684489833, 105.88423100973816 30.619434494087514, 132.54809354445132 -0.05383058033042687 M85.31184345713481 54.28525919570915 C97.74328247918112 39.984524488452635, 110.17472150122742 25.683789781196115, 132.54809354445132 -0.05383058033042687 M90.29885886499743 54.64536657100285 C106.71174303399854 35.76450315160612, 123.12462720299965 16.88363973220938, 137.53510895231395 0.3062767949632672 M90.29885886499743 54.64536657100285 C99.9560998151781 43.53598168099399, 109.6133407653588 32.42659679098513, 137.53510895231395 0.3062767949632672 M95.94193330185053 54.2507643660738 C111.4613913576951 36.39767012143861, 126.98084941353967 18.54457587680342, 141.21000630219552 2.1758033307025357 M95.94193330185053 54.2507643660738 C113.02307566238208 34.601157835273796, 130.10421802291364 14.951551304473789, 141.21000630219552 2.1758033307025357 M100.92894870971315 54.61087174136752 C116.96486094436217 36.16366492565842, 133.0007731790112 17.716458109949336, 141.6046085071246 7.818877767555662 M100.92894870971315 54.61087174136752 C114.34390193318288 39.178733368740296, 127.75885515665261 23.746594996113075, 141.6046085071246 7.818877767555662 M106.57202314656627 54.21626953643845 C116.75040036366792 42.507385949106606, 126.92877758076958 30.798502361774766, 141.34315168306316 14.21666178463154 M106.57202314656627 54.21626953643845 C119.33123742226444 39.53847253271198, 132.0904516979626 24.860675528985503, 141.34315168306316 14.21666178463154 M111.55903855442888 54.57637691173217 C120.10294266950247 44.74773954342594, 128.64684678457604 34.91910217511972, 141.08169485900171 20.614445801707433 M111.55903855442888 54.57637691173217 C121.64448175267849 42.97440168364381, 131.72992495092808 31.372426455555456, 141.08169485900171 20.614445801707433 M117.20211299128198 54.181774706803104 C123.3874140397027 47.06639979154891, 129.57271508812343 39.951024876294724, 141.47629706393076 26.257520238560538 M117.20211299128198 54.181774706803104 C125.57755090799023 44.546935530780985, 133.95298882469848 34.91209635475886, 141.47629706393076 26.257520238560538 M122.18912839914461 54.54188208209682 C128.62552009573832 47.13766041783578, 135.06191179233204 39.733438753574745, 141.21484023986932 32.65530425563644 M122.18912839914461 54.54188208209682 C127.8479799313189 48.03211805832931, 133.5068314634932 41.5223540345618, 141.21484023986932 32.65530425563644 M127.83220283599772 54.14727987716777 C132.34293445293417 48.95827673159115, 136.8536660698706 43.76927358601452, 141.6094424447984 38.29837869248956 M127.83220283599772 54.14727987716777 C131.12037645435925 50.364668829147064, 134.4085500727208 46.58205778112636, 141.6094424447984 38.29837869248956 M132.81921824386032 54.50738725246147 C135.4393992839628 51.49321376272808, 138.0595803240653 48.4790402729947, 141.34798562073692 44.696162709565435 M132.81921824386032 54.50738725246147 C135.53864630835668 51.37904312135469, 138.25807437285303 48.25069899024791, 141.34798562073692 44.696162709565435 M138.46229268071346 54.11278504753242 C139.03900047149278 53.44935862482166, 139.6157082622721 52.7859322021109, 141.08652879667548 51.093946726641335 M138.46229268071346 54.11278504753242 C139.2206526077423 53.240391746176, 139.97901253477116 52.367998444819584, 141.08652879667548 51.093946726641335" stroke="#00ff00" stroke-width="0.5" fill="none"></path><path d="M0 0 C39.64780914561488 0, 79.29561829122976 0, 138.89843749999997 0 M0 0 C27.81484000959535 0, 55.6296800191907 0, 138.89843749999997 0 M138.89843749999997 0 C138.89843749999997 20.136773185260612, 138.89843749999997 40.273546370521224, 138.89843749999997 54.12109375000001 M138.89843749999997 0 C138.89843749999997 20.009640263442638, 138.89843749999997 40.019280526885275, 138.89843749999997 54.12109375000001 M138.89843749999997 54.12109375000001 C109.6607894021399 54.12109375000001, 80.42314130427984 54.12109375000001, 0 54.12109375000001 M138.89843749999997 54.12109375000001 C87.2929825140898 54.12109375000001, 35.687527528179615 54.12109375000001, 0 54.12109375000001 M0 54.12109375000001 C0 37.917551462966, 0 21.714009175932006, 0 0 M0 54.12109375000001 C0 42.27961173753466, 0 30.438129725069306, 0 0" stroke="#000000" stroke-width="1" fill="none"></path></g><g transform="translate(650.45703125 27.544921875) rotate(0 58.5 12.5)"><text x="58.5" y="18" font-family="Virgil, Segoe UI Emoji" font-size="20px" fill="#000000" text-anchor="middle" style="white-space: pre;" direction="ltr">Live Deploy</text></g><g transform="translate(782.619140625 14.24609375) rotate(0 33.564453125 26.16015625)"><path d="M0 0 C16.956035411751145 0, 33.91207082350229 0, 67.12890625 0 M0 0 C15.56380452974372 0, 31.12760905948744 0, 67.12890625 0 M67.12890625 0 C67.12890625 13.93569363777133, 67.12890625 27.87138727554266, 67.12890625 52.3203125 M67.12890625 0 C67.12890625 16.23202992874358, 67.12890625 32.46405985748716, 67.12890625 52.3203125 M67.12890625 52.3203125 C46.78588960883462 52.3203125, 26.442872967669246 52.3203125, 0 52.3203125 M67.12890625 52.3203125 C42.8836669595712 52.3203125, 18.638427669142395 52.3203125, 0 52.3203125 M0 52.3203125 C0 38.1937954768764, 0 24.067278453752806, 0 0 M0 52.3203125 C0 38.386541136110466, 0 24.452769772220925, 0 0" stroke="#000000" stroke-width="1" fill="none"></path></g><g transform="translate(784.18359375 27.90625) rotate(0 32 12.5)"><text x="32" y="18" font-family="Virgil, Segoe UI Emoji" font-size="20px" fill="#000000" text-anchor="middle" style="white-space: pre;" direction="ltr">Revert</text></g><g transform="translate(11.744140625 68.48828125) rotate(0 124.916015625 250.79296875)"><path d="M0 0 C88.15667540970499 0, 176.31335081940998 0, 249.83203125 0 M0 0 C57.13575591235531 0, 114.27151182471061 0, 249.83203125 0 M249.83203125 0 C249.83203125 115.36139502591905, 249.83203125 230.7227900518381, 249.83203125 501.5859375 M249.83203125 0 C249.83203125 119.01858112234405, 249.83203125 238.0371622446881, 249.83203125 501.5859375 M249.83203125 501.5859375 C178.05753079856038 501.5859375, 106.28303034712079 501.5859375, 0 501.5859375 M249.83203125 501.5859375 C157.27079808663 501.5859375, 64.70956492326002 501.5859375, 0 501.5859375 M0 501.5859375 C0 389.4311203264959, 0 277.2763031529918, 0 0 M0 501.5859375 C0 308.13303632042584, 0 114.68013514085175, 0 0" stroke="#000000" stroke-width="1" fill="none"></path></g><g transform="translate(10.611328125 287.23046875) rotate(0 123.169921875 24.369140625)"><path d="M0 0 C93.82652324475967 0, 187.65304648951934 0, 246.33984375 0 M0 0 C71.41691707243409 0, 142.83383414486818 0, 246.33984375 0 M246.33984375 0 C246.33984375 15.177534860801462, 246.33984375 30.355069721602923, 246.33984375 48.73828125 M246.33984375 0 C246.33984375 14.118365023420848, 246.33984375 28.236730046841696, 246.33984375 48.73828125 M246.33984375 48.73828125 C149.5537638603415 48.73828125, 52.76768397068298 48.73828125, 0 48.73828125 M246.33984375 48.73828125 C188.36945700786345 48.73828125, 130.3990702657269 48.73828125, 0 48.73828125 M0 48.73828125 C0 36.163989859972574, 0 23.58969846994514, 0 0 M0 48.73828125 C0 32.30235552753256, 0 15.866429805065124, 0 0" stroke="#000000" stroke-width="1" fill="none"></path></g><g transform="translate(15.103515625 76.59375) rotate(0 121.869140625 21.017578125)"><path d="M0 0 C72.33476900468413 0, 144.66953800936827 0, 243.73828125 0 M0 0 C60.952105324143126 0, 121.90421064828625 0, 243.73828125 0 M243.73828125 0 C243.73828125 10.084020067251187, 243.73828125 20.168040134502373, 243.73828125 42.03515625 M243.73828125 0 C243.73828125 16.521968241646757, 243.73828125 33.043936483293514, 243.73828125 42.03515625 M243.73828125 42.03515625 C176.42111622362097 42.03515625, 109.10395119724197 42.03515625, 0 42.03515625 M243.73828125 42.03515625 C156.95529629629056 42.03515625, 70.17231134258108 42.03515625, 0 42.03515625 M0 42.03515625 C0 27.708824289228865, 0 13.382492328457733, 0 0 M0 42.03515625 C0 29.262872353074272, 0 16.490588456148544, 0 0" stroke="#000000" stroke-width="1" fill="none"></path></g><g transform="translate(29.322265625 85.3359375) rotate(0 51.5 12.5)"><text x="0" y="18" font-family="Virgil, Segoe UI Emoji" font-size="20px" fill="#000000" text-anchor="start" style="white-space: pre;" direction="ltr">GET /foo</text></g><g transform="translate(18.283203125 125.83203125) rotate(0 118.70703125 78.02734375)"><path d="M0 0 C65.66612086166643 0, 131.33224172333286 0, 237.4140625 0 M0 0 C73.05882954008631 0, 146.11765908017261 0, 237.4140625 0 M237.4140625 0 C237.4140625 40.51516186691515, 237.4140625 81.0303237338303, 237.4140625 156.0546875 M237.4140625 0 C237.4140625 47.17591653477939, 237.4140625 94.35183306955878, 237.4140625 156.0546875 M237.4140625 156.0546875 C184.5925987569055 156.0546875, 131.77113501381098 156.0546875, 0 156.0546875 M237.4140625 156.0546875 C154.81499968392092 156.0546875, 72.2159368678418 156.0546875, 0 156.0546875 M0 156.0546875 C0 111.04199665935084, 0 66.02930581870169, 0 0 M0 156.0546875 C0 109.33671865130236, 0 62.61874980260471, 0 0" stroke="#000000" stroke-width="1" fill="none"></path></g><g transform="translate(34.087890625 143.83984375) rotate(0 89.5 37.5)"><text x="0" y="18" font-family="Virgil, Segoe UI Emoji" font-size="20px" fill="#000000" text-anchor="start" style="white-space: pre;" direction="ltr">{</text><text x="0" y="43" font-family="Virgil, Segoe UI Emoji" font-size="20px" fill="#000000" text-anchor="start" style="white-space: pre;" direction="ltr">  data: [{id: 1},...]</text><text x="0" y="68" font-family="Virgil, Segoe UI Emoji" font-size="20px" fill="#000000" text-anchor="start" style="white-space: pre;" direction="ltr">}</text></g><g transform="translate(111.78125 298.845703125) rotate(0 22 12.5)"><text x="22" y="18" font-family="Virgil, Segoe UI Emoji" font-size="20px" fill="#000000" text-anchor="middle" style="white-space: pre;" direction="ltr">Send</text></g><g transform="translate(10 339.533203125) rotate(0 123.169921875 24.369140625)"><path d="M0 0 C50.042391062772005 0, 100.08478212554401 0, 246.33984375 0 M0 0 C73.08558258565063 0, 146.17116517130125 0, 246.33984375 0 M246.33984375 0 C246.33984375 12.864224371961974, 246.33984375 25.72844874392395, 246.33984375 48.73828125 M246.33984375 0 C246.33984375 18.16761838849452, 246.33984375 36.33523677698904, 246.33984375 48.73828125 M246.33984375 48.73828125 C161.00770327659592 48.73828125, 75.67556280319187 48.73828125, 0 48.73828125 M246.33984375 48.73828125 C151.69277799823868 48.73828125, 57.045712246477336 48.73828125, 0 48.73828125 M0 48.73828125 C0 35.204990306384204, 0 21.67169936276841, 0 0 M0 48.73828125 C0 35.60514048414952, 0 22.471999718299045, 0 0" stroke="#000000" stroke-width="1" fill="none"></path></g><g transform="translate(45.087890625 350.83984375) rotate(0 89 12.5)"><text x="0" y="18" font-family="Virgil, Segoe UI Emoji" font-size="20px" fill="#000000" text-anchor="start" style="white-space: pre;" direction="ltr">Previous Requests</text></g><g transform="translate(14.501953125 394.015625) rotate(0 122.48046875 23.56640625)"><path d="M0 0 C53.10296057074812 0, 106.20592114149623 0, 244.9609375 0 M0 0 C60.91695403834092 0, 121.83390807668184 0, 244.9609375 0 M244.9609375 0 C244.9609375 17.085658959816648, 244.9609375 34.171317919633296, 244.9609375 47.1328125 M244.9609375 0 C244.9609375 10.267403603258572, 244.9609375 20.534807206517144, 244.9609375 47.1328125 M244.9609375 47.1328125 C168.26916143085327 47.1328125, 91.57738536170655 47.1328125, 0 47.1328125 M244.9609375 47.1328125 C181.51204391717692 47.1328125, 118.06315033435384 47.1328125, 0 47.1328125 M0 47.1328125 C0 35.5847286627577, 0 24.036644825515395, 0 0 M0 47.1328125 C0 36.83822437100389, 0 26.54363624200778, 0 0" stroke="#000000" stroke-width="1" fill="none"></path></g><g transform="translate(48.087890625 404.83984375) rotate(0 51.5 12.5)"><text x="0" y="18" font-family="Virgil, Segoe UI Emoji" font-size="20px" fill="#000000" text-anchor="start" style="white-space: pre;" direction="ltr">GET /foo</text></g><g transform="translate(14.845703125 446.40234375) rotate(0 122.021484375 23.046875)"><path d="M0 0 C61.86934780048432 0, 123.73869560096864 0, 244.04296875 0 M0 0 C65.77318785774878 0, 131.54637571549756 0, 244.04296875 0 M244.04296875 0 C244.04296875 15.928906917324639, 244.04296875 31.857813834649278, 244.04296875 46.09375 M244.04296875 0 C244.04296875 10.710155762280921, 244.04296875 21.420311524561843, 244.04296875 46.09375 M244.04296875 46.09375 C163.06778407529237 46.09375, 82.09259940058473 46.09375, 0 46.09375 M244.04296875 46.09375 C187.0590388250548 46.09375, 130.07510890010963 46.09375, 0 46.09375 M0 46.09375 C0 34.704483260647976, 0 23.31521652129595, 0 0 M0 46.09375 C0 32.313752371337614, 0 18.533754742675224, 0 0" stroke="#000000" stroke-width="1" fill="none"></path></g><g transform="translate(52.087890625 454.83984375) rotate(0 72.5 12.5)"><text x="0" y="18" font-family="Virgil, Segoe UI Emoji" font-size="20px" fill="#000000" text-anchor="start" style="white-space: pre;" direction="ltr">DELETE /foo</text></g><g transform="translate(15.158203125 497.0546875) rotate(0 122.193359375 22.4140625)"><path d="M0 0 C58.22981342085586 0, 116.45962684171172 0, 244.38671875 0 M0 0 C55.72837637300072 0, 111.45675274600144 0, 244.38671875 0 M244.38671875 0 C244.38671875 16.80551980347809, 244.38671875 33.61103960695618, 244.38671875 44.828125 M244.38671875 0 C244.38671875 12.01359134984232, 244.38671875 24.02718269968464, 244.38671875 44.828125 M244.38671875 44.828125 C161.47106329434138 44.828125, 78.55540783868273 44.828125, 0 44.828125 M244.38671875 44.828125 C181.76940151762284 44.828125, 119.15208428524565 44.828125, 0 44.828125 M0 44.828125 C0 34.416256251414595, 0 24.004387502829193, 0 0 M0 44.828125 C0 28.83339289941796, 0 12.838660798835917, 0 0" stroke="#000000" stroke-width="1" fill="none"></path></g><g transform="translate(69.251953125 508.66015625) rotate(0 58.5 12.5)"><text x="0" y="18" font-family="Virgil, Segoe UI Emoji" font-size="20px" fill="#000000" text-anchor="start" style="white-space: pre;" direction="ltr">GET /foo/1</text></g><g transform="translate(264.033203125 71.09375) rotate(0 190.291015625 182.42578125)"><path d="M0 0 C90.83110536038184 0, 181.66221072076368 0, 380.58203125 0 M0 0 C132.66191278430742 0, 265.32382556861484 0, 380.58203125 0 M380.58203125 0 C380.58203125 73.51525021049093, 380.58203125 147.03050042098187, 380.58203125 364.8515625 M380.58203125 0 C380.58203125 101.43009981471914, 380.58203125 202.86019962943828, 380.58203125 364.8515625 M380.58203125 364.8515625 C278.5920673057273 364.8515625, 176.60210336145465 364.8515625, 0 364.8515625 M380.58203125 364.8515625 C236.57574185735902 364.8515625, 92.56945246471804 364.8515625, 0 364.8515625 M0 364.8515625 C0 228.43615383833748, 0 92.02074517667495, 0 0 M0 364.8515625 C0 258.3014131151991, 0 151.7512637303982, 0 0" stroke="#000000" stroke-width="1" fill="none"></path></g><g transform="translate(284.087890625 99.83984375) rotate(0 180.5 100)"><text x="0" y="18" font-family="Virgil, Segoe UI Emoji" font-size="20px" fill="#000000" text-anchor="start" style="white-space: pre;" direction="ltr">const loadArticles = require(...);</text><text x="0" y="43" font-family="Virgil, Segoe UI Emoji" font-size="20px" fill="#000000" text-anchor="start" style="white-space: pre;" direction="ltr"></text><text x="0" y="68" font-family="Virgil, Segoe UI Emoji" font-size="20px" fill="#000000" text-anchor="start" style="white-space: pre;" direction="ltr">export default function foo(args) {</text><text x="0" y="93" font-family="Virgil, Segoe UI Emoji" font-size="20px" fill="#000000" text-anchor="start" style="white-space: pre;" direction="ltr"> const articles =await loadArticles()</text><text x="0" y="118" font-family="Virgil, Segoe UI Emoji" font-size="20px" fill="#000000" text-anchor="start" style="white-space: pre;" direction="ltr"> return articles.map(a =&gt; {</text><text x="0" y="143" font-family="Virgil, Segoe UI Emoji" font-size="20px" fill="#000000" text-anchor="start" style="white-space: pre;" direction="ltr">   return `&lt;li&gt;${a.name}&lt;/li&gt;`</text><text x="0" y="168" font-family="Virgil, Segoe UI Emoji" font-size="20px" fill="#000000" text-anchor="start" style="white-space: pre;" direction="ltr"> })</text><text x="0" y="193" font-family="Virgil, Segoe UI Emoji" font-size="20px" fill="#000000" text-anchor="start" style="white-space: pre;" direction="ltr">}</text></g><g transform="translate(646.958984375 69.9765625) rotate(0 108.4375 184.56640625)"><path d="M0 0 C51.666958798479754 0, 103.33391759695951 0, 216.875 0 M0 0 C57.18930253590224 0, 114.37860507180449 0, 216.875 0 M216.875 0 C216.875 136.55610044966963, 216.875 273.11220089933926, 216.875 369.1328125 M216.875 0 C216.875 77.69154888811245, 216.875 155.3830977762249, 216.875 369.1328125 M216.875 369.1328125 C157.06374586297898 369.1328125, 97.25249172595795 369.1328125, 0 369.1328125 M216.875 369.1328125 C130.50345358421328 369.1328125, 44.13190716842652 369.1328125, 0 369.1328125 M0 369.1328125 C0 260.89669778262686, 0 152.66058306525372, 0 0 M0 369.1328125 C0 281.530288509692, 0 193.92776451938406, 0 0" stroke="#000000" stroke-width="1" fill="none"></path></g><g transform="translate(673.087890625 82.09375) rotate(0 96 37.5)"><text x="0" y="18" font-family="Virgil, Segoe UI Emoji" font-size="20px" fill="#000000" text-anchor="start" style="white-space: pre;" direction="ltr">- foo.ts</text><text x="0" y="43" font-family="Virgil, Segoe UI Emoji" font-size="20px" fill="#000000" text-anchor="start" style="white-space: pre;" direction="ltr">- bar.ts</text><text x="0" y="68" font-family="Virgil, Segoe UI Emoji" font-size="20px" fill="#000000" text-anchor="start" style="white-space: pre;" direction="ltr">- loaders/article.ts</text></g><g transform="translate(267.376953125 543.40234375) rotate(0 299.076171875 13.806640625)"><path d="M0 0 C0 0, 0 0, 0 0 M0 0 C0 0, 0 0, 0 0 M-0.2614568240614483 6.397784017075889 C1.2620108907206982 4.64523488856932, 2.7854786055028447 2.892685760062751, 4.98701540786261 0.36010737529371317 M-0.2614568240614483 6.397784017075889 C0.9170853589196257 5.042026323197179, 2.0956275419006998 3.68626862931847, 4.98701540786261 0.36010737529371317 M0.13314538086761107 12.040858453929006 C2.4936935605601063 9.325358404287698, 4.8542417402526015 6.609858354646388, 10.630089844715727 -0.03449482963534578 M0.13314538086761107 12.040858453929006 C3.4451396067629156 8.230844931560645, 6.75713383265822 4.4208314091922825, 10.630089844715727 -0.03449482963534578 M-0.12831144319383903 18.438642471004897 C4.220502379623902 13.435904440349344, 8.569316202441643 8.433166409693788, 15.617105252578337 0.32561254565836695 M-0.12831144319383903 18.438642471004897 C3.552180177813048 14.204721187156933, 7.232671798819935 9.970799903308968, 15.617105252578337 0.32561254565836695 M0.26629076173522215 24.081716907858013 C5.133681372219991 18.48242452395215, 10.00107198270476 12.88313214004629, 21.260179689431453 -0.06898965927069156 M0.26629076173522215 24.081716907858013 C6.536934350600329 16.868166630284627, 12.807577939465435 9.654616352711237, 21.260179689431453 -0.06898965927069156 M1.3169519956547884 28.970081764488356 C7.366317423266918 22.011082892828348, 13.415682850879048 15.052084021168344, 26.247195097294064 0.29111771602302206 M1.3169519956547884 28.970081764488356 C6.911659886151152 22.53410655963124, 12.506367776647515 16.098131354774125, 26.247195097294064 0.29111771602302206 M6.960026432507904 28.575479559559298 C13.989858266885888 20.48858310921435, 21.01969010126387 12.401686658869401, 31.89026953414718 -0.10348448890603734 M6.960026432507904 28.575479559559298 C14.694838562701573 19.677596049194662, 22.429650692895244 10.779712538830026, 31.89026953414718 -0.10348448890603734 M11.947041840370513 28.935586934853013 C19.554260226098755 20.184483237080435, 27.161478611827 11.433379539307861, 36.877284942009794 0.25662288638767805 M11.947041840370513 28.935586934853013 C20.209688716797466 19.430499008188093, 28.472335593224418 9.925411081523169, 36.877284942009794 0.25662288638767805 M17.590116277223633 28.540984729923952 C25.287267458740914 19.686425185102603, 32.9844186402582 10.831865640281254, 42.520359378862906 -0.13797931854138312 M17.590116277223633 28.540984729923952 C25.808280472326537 19.087068274522693, 34.026444667429445 9.633151819121434, 42.520359378862906 -0.13797931854138312 M22.577131685086243 28.901092105217664 C29.80943016505599 20.58128442226794, 37.041728645025735 12.261476739318216, 47.50737478672552 0.22212805675232872 M22.577131685086243 28.901092105217664 C30.149661047993813 20.189893563375357, 37.72219041090138 11.478695021533053, 47.50737478672552 0.22212805675232872 M28.22020612193936 28.506489900288607 C35.862810003779714 19.714679845714812, 43.50541388562007 10.922869791141014, 53.15044922357863 -0.1724741481767289 M28.22020612193936 28.506489900288607 C33.21460596016779 22.7610901133609, 38.20900579839622 17.015690326433194, 53.15044922357863 -0.1724741481767289 M33.20722152980197 28.866597275582322 C39.06366811388396 22.129526146676998, 44.92011469796596 15.392455017771676, 58.13746463144125 0.1876332271169865 M33.20722152980197 28.866597275582322 C38.302498692370335 23.005151401728966, 43.3977758549387 17.143705527875614, 58.13746463144125 0.1876332271169865 M38.85029596665508 28.47199507065326 C44.6032677713163 21.853958058937767, 50.356239575977504 15.235921047222272, 63.78053906829436 -0.20696897781207468 M38.85029596665508 28.47199507065326 C47.07398465746713 19.011723409922382, 55.297673348279176 9.5514517491915, 63.78053906829436 -0.20696897781207468 M43.8373113745177 28.832102445946973 C51.014513790416146 20.57567553446709, 58.191716206314595 12.31924862298721, 68.76755447615697 0.1531383974816336 M43.8373113745177 28.832102445946973 C51.57575362650184 19.930042958160207, 59.31419587848599 11.027983470373439, 68.76755447615697 0.1531383974816336 M48.824326782380304 29.19220982124069 C56.43986923018257 20.431530385438407, 64.05541167798484 11.670850949636119, 74.41062891301009 -0.2414638074474169 M48.824326782380304 29.19220982124069 C58.7991921628496 17.717439821266236, 68.77405754331889 6.242669821291781, 74.41062891301009 -0.2414638074474169 M54.46740121923342 28.79760761631163 C59.660084205754465 22.82410915990378, 64.85276719227551 16.85061070349593, 79.3976443208727 0.11864356784629138 M54.46740121923342 28.79760761631163 C59.77638919943246 22.69031556957458, 65.0853771796315 16.583023522837532, 79.3976443208727 0.11864356784629138 M59.45441662709603 29.157714991605342 C66.73159819689648 20.786275220095916, 74.00877976669693 12.414835448586487, 85.04071875772581 -0.27595863708276624 M59.45441662709603 29.157714991605342 C64.97991551345343 22.80135563860491, 70.50541439981085 16.44499628560448, 85.04071875772581 -0.27595863708276624 M65.09749106394915 28.76311278667628 C71.73629245574467 21.126045403739838, 78.3750938475402 13.488978020803398, 90.02773416558841 0.08414873821094204 M65.09749106394915 28.76311278667628 C73.00614478513451 19.665247402173758, 80.91479850631988 10.567382017671235, 90.02773416558841 0.08414873821094204 M70.08450647181176 29.123220161969993 C75.95014193786838 22.37557843354338, 81.815777403925 15.62793670511677, 95.67080860244155 -0.3104534667181156 M70.08450647181176 29.123220161969993 C77.96278828451459 20.060293661452803, 85.84107009721741 10.99736716093561, 95.67080860244155 -0.3104534667181156 M75.72758090866488 28.72861795704094 C84.27962892950099 18.89061209683411, 92.83167695033711 9.05260623662728, 100.65782401030415 0.049653908575599814 M75.72758090866488 28.72861795704094 C84.26617113004967 18.906093524153622, 92.80476135143448 9.083569091266305, 100.65782401030415 0.049653908575599814 M80.71459631652749 29.08872533233465 C89.18964825278786 19.33929333530348, 97.66470018904822 9.589861338272307, 106.30089844715727 -0.3449482963534578 M80.71459631652749 29.08872533233465 C89.14554078265161 19.390033175470663, 97.57648524877573 9.691341018606671, 106.30089844715727 -0.3449482963534578 M86.3576707533806 28.69412312740559 C92.10623423989789 22.081157305611853, 97.85479772641516 15.468191483818119, 111.28791385501988 0.015159078940250481 M86.3576707533806 28.69412312740559 C91.89424914456423 22.325018262085422, 97.43082753574785 15.955913396765254, 111.28791385501988 0.015159078940250481 M91.34468616124322 29.05423050269931 C97.5873678519286 21.872846709397802, 103.83004954261399 14.691462916096295, 116.2749292628825 0.375266454233973 M91.34468616124322 29.05423050269931 C96.54542468086255 23.071465215511857, 101.7461632004819 17.088699928324402, 116.2749292628825 0.375266454233973 M96.98776059809634 28.659628297770247 C105.26306939471758 19.13997449813907, 113.53837819133881 9.620320698507893, 121.9180036997356 -0.019335750695091747 M96.98776059809634 28.659628297770247 C102.05781421317309 22.827198796069286, 107.12786782824983 16.994769294368325, 121.9180036997356 -0.019335750695091747 M101.97477600595894 29.019735673063956 C107.1537045911115 23.062059845450637, 112.33263317626408 17.10438401783732, 126.9050191075982 0.34077162459862365 M101.97477600595894 29.019735673063956 C107.88657721549731 22.21898633184007, 113.79837842503566 15.418236990616185, 126.9050191075982 0.34077162459862365 M107.61785044281206 28.625133468134905 C116.61859976451893 18.270955807127383, 125.61934908622581 7.91677814611986, 132.54809354445132 -0.05383058033042687 M107.61785044281206 28.625133468134905 C116.28883464366005 18.65030718396685, 124.95981884450805 8.675480899798792, 132.54809354445132 -0.05383058033042687 M112.60486585067467 28.985240843428606 C119.71336520819514 20.807847759786203, 126.82186456571563 12.630454676143799, 137.53510895231395 0.3062767949632672 M112.60486585067467 28.985240843428606 C121.85542705397972 18.343687486082096, 131.1059882572848 7.70213412873559, 137.53510895231395 0.3062767949632672 M118.24794028752778 28.590638638499556 C124.30001387411293 21.628524386315252, 130.3520874606981 14.66641013413095, 143.17818338916706 -0.0883254099657762 M118.24794028752778 28.590638638499556 C124.00473873660619 21.96819957594086, 129.76153718568457 15.345760513382167, 143.17818338916706 -0.0883254099657762 M123.2349556953904 28.95074601379327 C131.34847922355908 19.617204875743667, 139.46200275172777 10.28366373769406, 148.16519879702966 0.2717819653279321 M123.2349556953904 28.95074601379327 C131.47260169517463 19.474418305770968, 139.71024769495884 9.99809059774866, 148.16519879702966 0.2717819653279321 M128.8780301322435 28.556143808864206 C134.18624771272647 22.449738005621473, 139.49446529320943 16.34333220237874, 153.8082732338828 -0.12282023960112554 M128.8780301322435 28.556143808864206 C134.91773081752066 21.608262951450286, 140.95743150279782 14.660382094036366, 153.8082732338828 -0.12282023960112554 M133.86504554010614 28.91625118415792 C139.6603628465891 22.24950124495878, 145.45568015307202 15.582751305759635, 158.7952886417454 0.23728713569258275 M133.86504554010614 28.91625118415792 C141.3279195773013 20.3311966646987, 148.79079361449644 11.746142145239482, 158.7952886417454 0.23728713569258275 M139.50811997695922 28.521648979228857 C147.44286318318274 19.3937710753778, 155.37760638940622 10.265893171526745, 164.4383630785985 -0.15731506923647487 M139.50811997695922 28.521648979228857 C146.6254752047099 20.334068382255197, 153.74283043246055 12.14648778528154, 164.4383630785985 -0.15731506923647487 M144.49513538482185 28.881756354522572 C151.24859190616877 21.11279333282439, 158.00204842751566 13.343830311126203, 169.4253784864611 0.20279230605723342 M144.49513538482185 28.881756354522572 C150.12921990678595 22.400483516842176, 155.76330442875008 15.919210679161777, 169.4253784864611 0.20279230605723342 M150.13820982167496 28.487154149593522 C158.0290237917374 19.409811051175524, 165.9198377617998 10.332467952757522, 175.06845292331423 -0.19180989887181 M150.13820982167496 28.487154149593522 C157.07621776009708 20.50588900818414, 164.0142256985192 12.524623866774762, 175.06845292331423 -0.19180989887181 M155.12522522953756 28.847261524887223 C164.25983167953223 18.3390988524161, 173.39443812952686 7.830936179944981, 180.05546833117683 0.16829747642188408 M155.12522522953756 28.847261524887223 C163.16748420908152 19.595700872130358, 171.2097431886255 10.344140219373493, 180.05546833117683 0.16829747642188408 M160.1122406374002 29.207368900180946 C169.7394575047837 18.132522766477734, 179.3666743721672 7.05767663277452, 185.69854276802997 -0.22630472850715933 M160.1122406374002 29.207368900180946 C166.57136986863236 21.77699069441372, 173.03049909986456 14.346612488646494, 185.69854276802997 -0.22630472850715933 M165.7553150742533 28.81276669525188 C170.88086120242798 22.916500359645784, 176.00640733060263 17.020234024039688, 190.6855581758926 0.13380264678653475 M165.7553150742533 28.81276669525188 C174.86566615752008 18.332506630370094, 183.97601724078683 7.852246565488308, 190.6855581758926 0.13380264678653475 M170.7423304821159 29.17287407054559 C180.39065711142072 18.073743933644174, 190.0389837407255 6.974613796742762, 196.3286326127457 -0.26079955814250866 M170.7423304821159 29.17287407054559 C177.2351082337176 21.703787669995556, 183.7278859853193 14.23470126944552, 196.3286326127457 -0.26079955814250866 M176.38540491896902 28.778271865616546 C184.76184068092195 19.14228479994966, 193.13827644287485 9.506297734282775, 201.3156480206083 0.09930781715119963 M176.38540491896902 28.778271865616546 C186.22986174446012 17.45351974732034, 196.07431856995123 6.128767629024132, 201.3156480206083 0.09930781715119963 M181.37242032683164 29.13837924091024 C186.73259145843565 22.972207713814903, 192.09276259003965 16.806036186719567, 206.95872245746142 -0.295294387777858 M181.37242032683164 29.13837924091024 C187.5676274357463 22.011608706623818, 193.76283454466096 14.884838172337394, 206.95872245746142 -0.295294387777858 M187.01549476368476 28.743777035981196 C193.64884959828316 21.112975200372453, 200.28220443288154 13.482173364763707, 211.94573786532402 0.0648129875158503 M187.01549476368476 28.743777035981196 C192.38418773046737 22.567802258924818, 197.75288069725002 16.39182748186844, 211.94573786532402 0.0648129875158503 M192.00251017154736 29.103884411274905 C199.0366366672627 21.012047518207737, 206.07076316297804 12.92021062514057, 217.58881230217713 -0.3297892174131931 M192.00251017154736 29.103884411274905 C202.01966972766613 17.58046052782384, 212.0368292837849 6.057036644372772, 217.58881230217713 -0.3297892174131931 M197.6455846084005 28.709282206345847 C206.7513486080981 18.234298977483288, 215.85711260779573 7.759315748620729, 222.57582771003976 0.030318157880500962 M197.6455846084005 28.709282206345847 C205.0080004357898 20.239791637693273, 212.37041626317907 11.770301069040698, 222.57582771003976 0.030318157880500962 M202.6326000162631 29.069389581639555 C212.50223776051203 17.715670129939546, 222.37187550476096 6.361950678239534, 228.21890214689287 -0.36428404704854245 M202.6326000162631 29.069389581639555 C212.60863367082192 17.59327563606154, 222.58466732538074 6.117161690483524, 228.21890214689287 -0.36428404704854245 M208.2756744531162 28.674787376710512 C217.34681488181195 18.23963401007368, 226.4179553105077 7.80448064343685, 233.2059175547555 -0.00417667175483416 M208.2756744531162 28.674787376710512 C214.94053108789868 21.007746865399444, 221.60538772268112 13.340706354088377, 233.2059175547555 -0.00417667175483416 M213.2626898609788 29.034894752004206 C219.8760246025074 21.427123398972572, 226.48935934403605 13.81935204594094, 238.1929329626181 0.3559307035388741 M213.2626898609788 29.034894752004206 C221.72359076555963 19.301741654746777, 230.18449167014046 9.568588557489349, 238.1929329626181 0.3559307035388741 M218.90576429783195 28.640292547075163 C225.2179609002039 21.37894099553867, 231.53015750257583 14.117589444002181, 243.8360073994712 -0.038671501390183494 M218.90576429783195 28.640292547075163 C224.5902018536199 22.10109517007609, 230.27463940940785 15.561897793077016, 243.8360073994712 -0.038671501390183494 M223.89277970569452 29.000399922368857 C230.0698446733583 21.894499534216784, 236.24690964102209 14.78859914606471, 248.8230228073338 0.3214358739035248 M223.89277970569452 29.000399922368857 C230.27739463828823 21.655740611641562, 236.66200957088193 14.311081300914271, 248.8230228073338 0.3214358739035248 M229.53585414254766 28.605797717439813 C239.145758763551 17.550867045030387, 248.7556633845543 6.495936372620957, 254.46609724418693 -0.07316633102553283 M229.53585414254766 28.605797717439813 C235.46950428831414 21.77991405024772, 241.40315443408062 14.954030383055622, 254.46609724418693 -0.07316633102553283 M234.5228695504103 28.965905092733507 C243.95723873657371 18.112904838911703, 253.39160792273714 7.259904585089902, 259.4531126520495 0.28694104426816125 M234.5228695504103 28.965905092733507 C243.75319638546097 18.347628713366905, 252.98352322051164 7.729352334000303, 259.4531126520495 0.28694104426816125 M240.1659439872634 28.571302887804478 C249.4861727798251 17.849606136769875, 258.8064015723868 7.127909385735272, 265.09618708890264 -0.10766116066085374 M240.1659439872634 28.571302887804478 C245.701975025713 22.202827679777112, 251.23800606416265 15.834352471749744, 265.09618708890264 -0.10766116066085374 M245.152959395126 28.931410263098172 C252.96539248339897 19.9442340548209, 260.77782557167194 10.957057846543627, 270.0832024967653 0.25244621463284034 M245.152959395126 28.931410263098172 C250.78935421073254 22.447479736600137, 256.4257490263391 15.963549210102098, 270.0832024967653 0.25244621463284034 M250.79603383197912 28.536808058169115 C260.5794754968238 17.282245853042077, 270.36291716166846 6.02768364791504, 275.7262769336184 -0.1421559902962315 M250.79603383197912 28.536808058169115 C257.5012687084108 20.82331769332563, 264.2065035848425 13.109827328482146, 275.7262769336184 -0.1421559902962315 M255.78304923984174 28.896915433462837 C261.2592876898233 22.597223730195108, 266.73552613980485 16.297532026927378, 280.713292341481 0.217951384997491 M255.78304923984174 28.896915433462837 C265.30505096301385 17.943105477621643, 274.82705268618594 6.989295521780452, 280.713292341481 0.217951384997491 M261.42612367669483 28.50231322853378 C268.3130289106951 20.579835023814855, 275.19993414469536 12.657356819095932, 286.3563667783341 -0.1766508199315524 M261.42612367669483 28.50231322853378 C269.6920850573727 18.993412400893018, 277.95804643805053 9.484511573252256, 286.3563667783341 -0.1766508199315524 M266.41313908455743 28.862420603827474 C273.27658066576004 20.966934244005003, 280.14002224696264 13.07144788418253, 291.3433821861967 0.18345655536214167 M266.41313908455743 28.862420603827474 C274.14678362302925 19.965880254092177, 281.8804281615011 11.069339904356877, 291.3433821861967 0.18345655536214167 M271.40015449242003 29.22252797912121 C277.0615598479807 22.709826117612447, 282.72296520354126 16.197124256103685, 296.98645662304983 -0.21114564956690174 M271.40015449242003 29.22252797912121 C279.76152835470526 19.603867646984767, 288.1229022169905 9.98520731484832, 296.98645662304983 -0.21114564956690174 M277.0432289292732 28.82792577419214 C286.2485293245551 18.23843902048082, 295.4538297198369 7.6489522667694985, 301.9734720309125 0.14896172572679234 M277.0432289292732 28.82792577419214 C284.45582519643165 20.300709212968705, 291.86842146359004 11.773492651745276, 301.9734720309125 0.14896172572679234 M282.0302443371358 29.188033149485847 C289.30703777854285 20.817039868618167, 296.58383121994984 12.446046587750484, 307.6165464677656 -0.24564047920225107 M282.0302443371358 29.188033149485847 C288.05897982297256 22.252766311087058, 294.08771530880927 15.317499472688265, 307.6165464677656 -0.24564047920225107 M287.6733187739889 28.793430944556775 C292.69301749315036 23.018928124265692, 297.71271621231176 17.244425303974612, 312.6035618756282 0.114466896091443 M287.6733187739889 28.793430944556775 C296.24495730199845 18.932888783816193, 304.816595830008 9.07234662307561, 312.6035618756282 0.114466896091443 M292.66033418185157 29.153538319850497 C299.9140081340412 20.80914096896958, 307.1676820862308 12.464743618088661, 318.2466363124813 -0.2801353088376004 M292.66033418185157 29.153538319850497 C297.85704393965966 23.175407592970934, 303.0537536974677 17.19727686609137, 318.2466363124813 -0.2801353088376004 M298.3034086187046 28.758936114921454 C307.8378223238876 17.79084780710395, 317.37223602907056 6.822759499286452, 323.2336517203439 0.07997206645609367 M298.3034086187046 28.758936114921454 C304.8914944817965 21.180210273961205, 311.47958034488835 13.601484433000955, 323.2336517203439 0.07997206645609367 M303.2904240265672 29.119043490215148 C310.8982667390739 20.367221586640888, 318.5061094515806 11.61539968306663, 328.876726157197 -0.31463013847294974 M303.2904240265672 29.119043490215148 C309.3887209658682 22.103755353390774, 315.4870179051691 15.088467216566402, 328.876726157197 -0.31463013847294974 M308.9334984634204 28.724441285286105 C317.2671037810655 19.137725009618155, 325.6007090987106 9.551008733950205, 333.8637415650596 0.04547723682077276 M308.9334984634204 28.724441285286105 C318.58845437232884 17.61768503456601, 328.2434102812373 6.510928783845909, 333.8637415650596 0.04547723682077276 M313.920513871283 29.0845486605798 C323.27614449126156 18.322126765726928, 332.63177511124013 7.559704870874054, 339.50681600191274 -0.34912496810829907 M313.920513871283 29.0845486605798 C321.9675034298805 19.82754609913193, 330.0144929884779 10.570543537684063, 339.50681600191274 -0.34912496810829907 M319.5635883081361 28.689946455650755 C329.2749151543822 17.51834285953199, 338.9862420006283 6.34673926341323, 344.49383140977534 0.010982407185395004 M319.5635883081361 28.689946455650755 C325.9352416724039 21.360197723633625, 332.3068950366717 14.030448991616497, 344.49383140977534 0.010982407185395004 M324.5506037159987 29.050053830944478 C334.2506137268458 17.89146876473847, 343.95062373769287 6.732883698532458, 349.480846817638 0.3710897824791459 M324.5506037159987 29.050053830944478 C331.2523832936321 21.34053833267611, 337.9541628712654 13.631022834407746, 349.480846817638 0.3710897824791459 M330.1936781528518 28.655451626015406 C337.4698384064765 20.28518674436832, 344.7459986601013 11.914921862721236, 355.1239212544911 -0.023512422449925907 M330.1936781528518 28.655451626015406 C338.3190614159223 19.308267423616783, 346.44444467899274 9.96108322121816, 355.1239212544911 -0.023512422449925907 M335.1806935607144 29.0155590013091 C340.8958370281421 22.441038513644713, 346.61098049556983 15.866518025980325, 360.11093666235365 0.33659495284376817 M335.1806935607144 29.0155590013091 C342.7243001572797 20.337632296116425, 350.2679067538449 11.65970559092375, 360.11093666235365 0.33659495284376817 M340.82376799756753 28.620956796380085 C348.19825158473117 20.137583858137184, 355.5727351718948 11.654210919894286, 365.7540110992068 -0.05800725208527524 M340.82376799756753 28.620956796380085 C347.53350569909003 20.902286523808886, 354.2432434006125 13.183616251237687, 365.7540110992068 -0.05800725208527524 M345.81078340543013 28.98106417167378 C351.012781938733 22.99684940455216, 356.21478047203584 17.012634637430544, 370.7410265070694 0.30210012320844726 M345.81078340543013 28.98106417167378 C352.82022440479005 20.917624693730495, 359.8296654041499 12.854185215787208, 370.7410265070694 0.30210012320844726 M351.45385784228324 28.586461966744707 C358.1071100297972 20.93277084495464, 364.76036221731107 13.27907972316457, 376.3841009439226 -0.09250208172062457 M351.45385784228324 28.586461966744707 C358.18786971254957 20.83986745733908, 364.9218815828159 13.09327294793345, 376.3841009439226 -0.09250208172062457 M356.4408732501459 28.9465693420384 C361.696369105002 22.900812946330944, 366.95186495985814 16.855056550623484, 381.3711163517852 0.2676052935730695 M356.4408732501459 28.9465693420384 C362.27357749459765 22.23681065055725, 368.10628173904934 15.527051959076099, 381.3711163517852 0.2676052935730695 M362.083947686999 28.551967137109386 C371.5951165467417 17.61061896511717, 381.1062854064843 6.669270793124955, 387.0141907886383 -0.1269969113559739 M362.083947686999 28.551967137109386 C370.25598157023234 19.151117535098166, 378.4280154534656 9.750267933086946, 387.0141907886383 -0.1269969113559739 M367.0709630948616 28.91207451240308 C376.54675448266687 18.011423466454985, 386.02254587047213 7.110772420506887, 392.0012061965009 0.2331104639377486 M367.0709630948616 28.91207451240308 C373.41487458383557 21.61423915728104, 379.7587860728095 14.316403802159005, 392.0012061965009 0.2331104639377486 M372.7140375317147 28.51747230747401 C378.3755026135722 22.00470173872023, 384.0369676954297 15.491931169966449, 397.644280633354 -0.16149174099132324 M372.7140375317147 28.51747230747401 C381.56922661952245 18.330742540891784, 390.4244157073302 8.144012774309555, 397.644280633354 -0.16149174099132324 M377.7010529395773 28.87757968276773 C383.2321105453039 22.514825754620396, 388.76316815103047 16.152071826473062, 402.6312960412166 0.19861563430239926 M377.7010529395773 28.87757968276773 C382.69265159784413 23.13540228477081, 387.68425025611094 17.393224886773886, 402.6312960412166 0.19861563430239926 M383.34412737643044 28.482977477838688 C390.87139303369617 19.823848872960518, 398.39865869096184 11.164720268082352, 408.2743704780697 -0.19598657062667257 M383.34412737643044 28.482977477838688 C390.30957175142106 20.470150326594172, 397.2750161264117 12.457323175349657, 408.2743704780697 -0.19598657062667257 M388.3311427842931 28.843084853132382 C395.87003955713493 20.170576180354715, 403.4089363299767 11.498067507577044, 413.2613858859323 0.16412080466704992 M388.3311427842931 28.843084853132382 C398.124635401318 17.57696035015466, 407.918128018343 6.310835847176939, 413.2613858859323 0.16412080466704992 M393.3181581921557 29.203192228426104 C401.38518035630045 19.9231447904423, 409.4522025204452 10.643097352458494, 418.90446032278544 -0.23048140026199349 M393.3181581921557 29.203192228426104 C402.05664301546557 19.15071536071016, 410.79512783877544 9.09823849299421, 418.90446032278544 -0.23048140026199349 M398.9612326290088 28.808590023497032 C407.66011167991235 18.80167438510088, 416.35899073081595 8.794758746704733, 423.89147573064804 0.1296259750317006 M398.9612326290088 28.808590023497032 C406.8884277661753 19.689395179824665, 414.8156229033418 10.570200336152293, 423.89147573064804 0.1296259750317006 M403.9482480368714 29.168697398790755 C411.3003091816572 20.71111852987203, 418.652370326443 12.253539660953308, 429.5345501675012 -0.26497622989737124 M403.9482480368714 29.168697398790755 C414.100794706942 17.489528456704676, 424.2533413770126 5.8103595146186, 429.5345501675012 -0.26497622989737124 M409.5913224737245 28.77409519386171 C418.3071323847229 18.747702828905457, 427.0229422957212 8.721310463949202, 434.52156557536375 0.09513114539637968 M409.5913224737245 28.77409519386171 C417.70291864434427 19.44277122704584, 425.81451481496396 10.111447260229966, 434.52156557536375 0.09513114539637968 M414.5783378815871 29.134202569155406 C420.9552550328104 21.79839854292236, 427.33217218403365 14.462594516689316, 440.16464001221686 -0.29947105953269215 M414.5783378815871 29.134202569155406 C420.06555457408126 22.821881842534406, 425.55277126657535 16.509561115913407, 440.16464001221686 -0.29947105953269215 M420.22141231844023 28.739600364226334 C426.54206952149514 21.468516004958055, 432.86272672455004 14.197431645689774, 445.1516554200795 0.060636315761001924 M420.22141231844023 28.739600364226334 C428.4189701356323 19.309388834960956, 436.6165279528244 9.879177305695574, 445.1516554200795 0.060636315761001924 M425.2084277263029 29.099707739520085 C433.9849469160622 19.00347733825207, 442.76146610582146 8.907246936984055, 450.7947298569327 -0.3339658891680415 M425.2084277263029 29.099707739520085 C434.8760573045576 17.978372099980465, 444.5436868828124 6.857036460440845, 450.7947298569327 -0.3339658891680415 M430.85150216315594 28.705105534591013 C437.601126249492 20.94055122505207, 444.350750335828 13.175996915513126, 455.7817452647953 0.026141486125681013 M430.85150216315594 28.705105534591013 C438.4845380385456 19.924302212358157, 446.11757391393536 11.1434988901253, 455.7817452647953 0.026141486125681013 M435.83851757101854 29.065212909884707 C444.0696431650164 19.596386070681366, 452.30076875901415 10.127559231478024, 461.42481970164835 -0.3684607188033908 M435.83851757101854 29.065212909884707 C445.6723126160644 17.752725766977427, 455.5061076611103 6.440238624070144, 461.42481970164835 -0.3684607188033908 M441.4815920078717 28.670610704955664 C450.76061948649055 17.99631064381694, 460.0396469651094 7.322010582678217, 466.411835109511 -0.00835334350966832 M441.4815920078717 28.670610704955664 C451.4376961604532 17.217423028824058, 461.3938003130346 5.764235352692456, 466.411835109511 -0.00835334350966832 M446.46860741573425 29.030718080249386 C452.68183689314066 21.88321518262676, 458.8950663705471 14.735712285004132, 471.3988505173736 0.3517540317840542 M446.46860741573425 29.030718080249386 C455.0793211485736 19.125225038366924, 463.690034881413 9.219731996484462, 471.3988505173736 0.3517540317840542 M452.1116818525875 28.636115875320314 C461.83000421894616 17.45646485387193, 471.5483265853049 6.276813832423542, 477.0419249542267 -0.042848173145017654 M452.1116818525875 28.636115875320314 C457.45546614643894 22.488795248669774, 462.79925044029034 16.341474622019238, 477.0419249542267 -0.042848173145017654 M457.09869726045 28.99622325061401 C462.09637764413895 23.2470496278301, 467.0940580278279 17.497876005046194, 482.0289403620893 0.3172592021486764 M457.09869726045 28.99622325061401 C464.24167843319566 20.779163376112933, 471.38465960594135 12.562103501611858, 482.0289403620893 0.3172592021486764 M462.7417716973032 28.601621045684965 C470.63094643248434 19.526163671286376, 478.5201211676655 10.450706296887791, 487.6720147989424 -0.07734300278036699 M462.7417716973032 28.601621045684965 C470.7491821317611 19.390149058232776, 478.7565925662189 10.178677070780587, 487.6720147989424 -0.07734300278036699 M467.7287871051658 28.961728420978687 C476.73463474974585 18.601685810408, 485.74048239432597 8.241643199837316, 492.659030206805 0.2827643725133555 M467.7287871051658 28.961728420978687 C473.89385511896745 21.869628949532444, 480.05892313276917 14.777529478086201, 492.659030206805 0.2827643725133555 M473.37186154201885 28.567126216049616 C478.50429880173664 22.662932540426276, 483.6367360614545 16.75873886480294, 498.30210464365814 -0.11183783241571632 M473.37186154201885 28.567126216049616 C482.19702884873726 18.41493255796106, 491.0221961554556 8.262738899872502, 498.30210464365814 -0.11183783241571632 M478.3588769498815 28.927233591343338 C486.54356071704694 19.51183196250154, 494.72824448421244 10.096430333659736, 503.28912005152074 0.24826954287800618 M478.3588769498815 28.927233591343338 C487.86607629960514 17.99045181826911, 497.3732756493288 7.053670045194885, 503.28912005152074 0.24826954287800618 M484.0019513867346 28.532631386414266 C490.80312500050496 20.708776129107726, 497.60429861427525 12.884920871801183, 508.93219448837385 -0.14633266205106565 M484.0019513867346 28.532631386414266 C491.7533576588758 19.615658499408212, 499.50476393101707 10.698685612402162, 508.93219448837385 -0.14633266205106565 M488.9889667945972 28.89273876170799 C494.20790413787165 22.88903812273913, 499.4268414811461 16.88533748377027, 513.9192098962365 0.21377471324265684 M488.9889667945972 28.89273876170799 C495.3810027514582 21.539542539114365, 501.77303870831923 14.186346316520737, 513.9192098962365 0.21377471324265684 M494.63204123145033 28.498136556778917 C504.4275781509412 17.229660352829583, 514.2231150704321 5.961184148880253, 519.5622843330896 -0.1808274916864434 M494.63204123145033 28.498136556778917 C500.96961362238375 21.207593499773004, 507.3071860133171 13.917050442767094, 519.5622843330896 -0.1808274916864434 M499.61905663931293 28.85824393207264 C507.6711367583013 19.595385350776038, 515.7232168772897 10.332526769479436, 524.5492997409523 0.1792798836073075 M499.61905663931293 28.85824393207264 C508.4490955859683 18.700446093309253, 517.2791345326236 8.542648254545863, 524.5492997409523 0.1792798836073075 M504.60607204717553 29.21835130736639 C509.7949133167621 23.2492722407494, 514.9837545863487 17.280193174132407, 530.1923741778053 -0.21532232132170748 M504.60607204717553 29.21835130736639 C509.98312531985005 23.032759098537262, 515.3601785925246 16.847166889708134, 530.1923741778053 -0.21532232132170748 M510.24914648402864 28.82374910243729 C517.698234687194 20.254553370913143, 525.1473228903593 11.685357639388993, 535.1793895856679 0.14478505397192976 M510.24914648402864 28.82374910243729 C519.4872029768823 18.196580768935544, 528.7252594697359 7.569412435433797, 535.1793895856679 0.14478505397192976 M515.2361618918912 29.183856477731013 C525.470215214803 17.410924857238093, 535.7042685377149 5.637993236745178, 540.8224640225211 -0.24981715095708523 M515.2361618918912 29.183856477731013 C522.1215478316118 21.26312602115275, 529.0069337713323 13.342395564574486, 540.8224640225211 -0.24981715095708523 M520.8792363287444 28.78925427280197 C530.2849944283156 17.969167309092104, 539.6907525278868 7.149080345382238, 545.8094794303836 0.11029022433666569 M520.8792363287444 28.78925427280197 C528.7418275720557 19.744377707603945, 536.6044188153672 10.699501142405918, 545.8094794303836 0.11029022433666569 M525.866251736607 29.149361648095663 C532.0822344614944 21.998691501553623, 538.2982171863819 14.848021355011578, 551.4525538672368 -0.284311980592463 M525.866251736607 29.149361648095663 C533.1707194997623 20.74653270179742, 540.4751872629178 12.343703755499174, 551.4525538672368 -0.284311980592463 M531.5093261734601 28.75475944316662 C539.2347654685365 19.867658146206992, 546.9602047636129 10.98055684924736, 556.4395692750994 0.07579539470128793 M531.5093261734601 28.75475944316662 C536.8100535629612 22.656970118993424, 542.1107809524624 16.55918079482023, 556.4395692750994 0.07579539470128793 M536.4963415813228 29.114866818460342 C542.9207312577432 21.724451899029503, 549.3451209341636 14.334036979598663, 562.0826437119525 -0.3188068102277839 M536.4963415813228 29.114866818460342 C546.1621423809411 17.995634948087897, 555.8279431805593 6.876403077715455, 562.0826437119525 -0.3188068102277839 M542.1394160181759 28.720264613531242 C548.595669069307 21.293195074485798, 555.051922120438 13.866125535440352, 567.0696591198151 0.04130056506591018 M542.1394160181759 28.720264613531242 C547.1325709948517 22.976296876005037, 552.1257259715275 17.23232913847883, 567.0696591198151 0.04130056506591018 M547.1264314260384 29.080371988824993 C554.9242195991005 20.110042828332688, 562.7220077721627 11.139713667840383, 572.7127335566682 -0.3533016398631048 M547.1264314260384 29.080371988824993 C552.9732899467156 22.35433066514698, 558.8201484673929 15.628289341468962, 572.7127335566682 -0.3533016398631048 M552.7695058628916 28.68576978389592 C560.1954767158375 20.143167521723, 567.6214475687832 11.600565259550077, 577.6997489645308 0.006805735430589266 M552.7695058628916 28.68576978389592 C558.5146028362691 22.076791729301387, 564.2596998096466 15.467813674706855, 577.6997489645308 0.006805735430589266 M557.7565212707542 29.045877159189615 C566.3638696006278 19.14425557055653, 574.9712179305013 9.242633981923447, 582.6867643723934 0.36691311072428334 M557.7565212707542 29.045877159189615 C567.3376645051285 18.02403267730609, 576.9188077395028 7.0021881954225655, 582.6867643723934 0.36691311072428334 M563.3995957076073 28.6512749542606 C571.1485858069348 19.737081556125915, 578.8975759062622 10.822888157991233, 588.3298388092467 -0.027689094204731646 M563.3995957076073 28.6512749542606 C572.6049779095364 18.061694092766885, 581.8103601114655 7.47211323127317, 588.3298388092467 -0.027689094204731646 M568.3866111154699 29.011382329554294 C575.2371458859094 21.13074355707172, 582.0876806563488 13.25010478458915, 593.3168542171092 0.33241828108896243 M568.3866111154699 29.011382329554294 C577.258041207239 18.805969425113418, 586.129471299008 8.600556520672544, 593.3168542171092 0.33241828108896243 M574.029685552323 28.616780124625222 C581.1428450319895 20.434026183692346, 588.2560045116559 12.251272242759473, 598.3038696249719 0.6925256563826565 M574.029685552323 28.616780124625222 C581.2362376613158 20.326590253448007, 588.4427897703087 12.036400382270791, 598.3038696249719 0.6925256563826565 M579.0167009601856 28.976887499918973 C584.0653869250365 23.16903866797444, 589.1140728898873 17.361189836029908, 598.6984718299009 6.335600093235769 M579.0167009601856 28.976887499918973 C585.2724091597288 21.780518422371106, 591.528117359272 14.584149344823238, 598.6984718299009 6.335600093235769 M584.6597753970387 28.582285294989845 C588.1126133195967 24.610249633624562, 591.5654512421546 20.638213972259276, 598.4370150058394 12.733384110311647 M584.6597753970387 28.582285294989845 C587.5201621589656 25.291786731636005, 590.3805489208925 22.001288168282162, 598.4370150058394 12.733384110311647 M589.6467908049013 28.942392670283596 C591.6172769734084 26.675607635167147, 593.5877631419154 24.408822600050698, 598.8316172107685 18.37645854716476 M589.6467908049013 28.942392670283596 C591.5672453345202 26.73316245190566, 593.4876998641389 24.523932233527724, 598.8316172107685 18.37645854716476 M595.2898652417545 28.547790465354524 C596.2760778620976 27.413282624109122, 597.2622904824408 26.27877478286372, 598.570160386707 24.774242564240694 M595.2898652417545 28.547790465354524 C596.3060260908181 27.378831127936863, 597.3221869398817 26.2098717905192, 598.570160386707 24.774242564240694" stroke="#ffff00" stroke-width="0.5" fill="none"></path><path d="M0 0 C204.74879151263775 0, 409.4975830252755 0, 598.15234375 0 M0 0 C121.52102185426594 0, 243.04204370853188 0, 598.15234375 0 M598.15234375 0 C598.15234375 9.738632851907097, 598.15234375 19.477265703814194, 598.15234375 27.61328125 M598.15234375 0 C598.15234375 7.767681815040488, 598.15234375 15.535363630080976, 598.15234375 27.61328125 M598.15234375 27.61328125 C411.9866766282354 27.61328125, 225.82100950647072 27.61328125, 0 27.61328125 M598.15234375 27.61328125 C456.3792538020589 27.61328125, 314.60616385411777 27.61328125, 0 27.61328125 M0 27.61328125 C0 17.111783924467815, 0 6.610286598935634, 0 0 M0 27.61328125 C0 17.23102108188141, 0 6.848760913762817, 0 0" stroke="#000000" stroke-width="1" fill="none"></path></g><g transform="translate(519.453125 544.708984375) rotate(0 47 12.5)"><text x="47" y="18" font-family="Virgil, Segoe UI Emoji" font-size="20px" fill="#000000" text-anchor="middle" style="white-space: pre;" direction="ltr">Deploying</text></g><g transform="translate(290.087890625 446.83984375) rotate(0 65 25)"><text x="0" y="18" font-family="Virgil, Segoe UI Emoji" font-size="20px" fill="#000000" text-anchor="start" style="white-space: pre;" direction="ltr">TS Error: ....</text><text x="0" y="43" font-family="Virgil, Segoe UI Emoji" font-size="20px" fill="#000000" text-anchor="start" style="white-space: pre;" direction="ltr"></text></g><g transform="translate(700.068359375 589.5078125) rotate(0 84 10)"><text x="168" y="14" font-family="Virgil, Segoe UI Emoji" font-size="16px" fill="#adb5bd" text-anchor="end" style="white-space: pre;" direction="ltr">Made with Excalidraw</text></g></svg>