<svg version="1.1" xmlns="http://www.w3.org/2000/svg" viewBox="0 0 992.0078125 619.06640625">
  <!-- svg-source:excalidraw -->
  <defs>
    <style>
      @font-face {
        font-family: "Virgil";
        src: url("https://excalidraw.com/FG_Virgil.woff2");
      }
      @font-face {
        font-family: "Cascadia";
        src: url("https://excalidraw.com/Cascadia.woff2");
      }
    </style>
  </defs>
  <rect x="0" y="0" width="992.0078125" height="619.06640625" fill="#ffffff"></rect><g transform="translate(10 84.22265625) rotate(0 128.7109375 26.826171875)"><path d="M1.0249580431143868 0.6935345495675481 C70.24232858286007 1.5347818538834135, 138.74047223363667 1.0999717013855967, 256.9178251960395 -0.4171933529217824 M0.5411298856791079 0.01989305371821689 C83.76588483015544 -1.5087292725058845, 167.26069155880077 -1.23444385945804, 257.3354887575891 -0.6497814179594011 M258.3703583665192 0.24058524891734123 C259.19628940393704 20.70594060505755, 257.3522183733203 42.09650882130518, 255.97425367310643 55.52327327057719 M258.0233292784542 0.7994752619415522 C257.0940059704855 15.31769713366157, 257.8616234941557 30.110159499156, 258.290354212746 54.012422213330865 M256.11641226439673 53.29234894514928 C198.20240698381986 55.095815813135445, 134.9684200587731 55.251691686279784, 1.2209434931472953 53.407031463092274 M257.5356348751335 53.44601869419104 C172.63673985472076 52.73377615958608, 87.13363343940368 52.03151978743774, -0.2913032759595189 53.89002653306257 M0.8290740437805653 53.885511081665754 C-0.9706233630797214 41.94875152021632, -0.6344652066847629 27.435007553249303, -1.7216555885970592 1.9630828313529491 M-0.3234697375446558 53.444642731919885 C-0.24270578784962704 38.52006480793716, -0.5316945569040399 20.724341635541343, 0.4338925685733557 0.42817760445177555" stroke="#000000" stroke-width="1" fill="none"></path></g><g transform="translate(78.7109375 98.548828125) rotate(0 60 12.5)"><text x="60" y="18" font-family="Virgil, Segoe UI Emoji" font-size="20px" fill="#000000" text-anchor="middle" style="white-space: pre;" direction="ltr">example.com</text></g><g transform="translate(69.14453125 167.40234375) rotate(0 111.001953125 25.82421875)"><path d="M1.295394952729562 -0.38293736630199177 C75.96884753229189 -0.7391008756730638, 153.30283664333874 0.7224692073740822, 222.9914245394043 0.639105360611015 M0.7653767761779072 -0.19409743498861792 C58.65142511681608 0.2516195453718531, 119.20967951435189 0.36147586194963754, 221.14557819829966 0.7655040379088169 M221.94781986996531 0.6543493457138538 C219.92655122382814 21.26932396436896, 220.99461937053377 42.0830481252604, 220.0764627866447 52.025017876178026 M222.2065677139908 0.6715283002704382 C220.88687607558896 20.223239056744205, 221.02308335813214 41.51538827452168, 222.3238687608391 52.558798214420676 M220.8403111819546 53.3647618436363 C154.6338831110411 53.32632658947163, 86.22329953610144 54.557364679300726, -0.6800780099022465 53.094946777406385 M222.60153884693406 52.00926319120899 C143.14283021795055 53.12784907691976, 64.39968068465576 52.963739120422446, 0.7517034807055754 50.990281563832546 M-0.30653103068470955 51.08905531838536 C-1.982632685930148 40.17900025895942, 0.9397521722012607 26.012860757394808, 1.4553745202720165 0.38346805050969124 M-0.8379086758941412 50.95874341391027 C-0.08209672403972945 40.80342237234436, -0.8118295354906877 28.543691159269656, 0.33391583897173405 0.45146300457417965" stroke="#000000" stroke-width="1" fill="none"></path></g><g transform="translate(102.646484375 180.7265625) rotate(0 77.5 12.5)"><text x="77.5" y="18" font-family="Virgil, Segoe UI Emoji" font-size="20px" fill="#000000" text-anchor="middle" style="white-space: pre;" direction="ltr">dev.example.com</text></g><g transform="translate(71.08984375 243.6015625) rotate(0 108.80078125 26.2421875)"><path d="M-0.09205772492456857 0.006252716150839173 C54.525339604631554 1.0229424316201599, 112.0225031245688 0.20033756042622897, 218.25463179738364 0.3300626560751348 M0.443516069386534 0.03193813863172731 C63.7026754305349 -0.21855167342642082, 126.19663592277645 0.3972850928055349, 217.78486251616155 0.6749379535585592 M218.9360546283424 1.2695272155106068 C218.96663370434806 20.138544346098207, 215.87871887986228 39.617199690797136, 216.62018613144755 52.4656886048615 M218.13684112764895 0.43463524244725704 C217.87867427269782 20.077765417812042, 216.95182079474296 42.89846784354304, 216.6157411430031 51.901651402935386 M219.32052642592598 53.525801447982076 C166.67145078015298 55.97590639704996, 116.14522389718775 54.83961308232583, 0.8190748740026436 52.73850001910776 M217.31560026622924 51.860024169773496 C135.30211157439527 50.7535776586532, 54.025887039996086 51.08950602539038, -0.06540964729112297 52.020395466452804 M-1.9225290603935719 54.08410074189305 C0.46078539141773944 39.572236507121126, 0.5470114971077419 29.199551502085523, -1.1456622667610645 1.7367211766541004 M-0.6852307822555304 51.70928474329412 C-0.29854519166838145 32.43941678687406, -0.2629696229923866 14.635084948007716, 0.5833001229912043 0.48023690842092037" stroke="#000000" stroke-width="1" fill="none"></path></g><g transform="translate(96.390625 257.34375) rotate(0 83.5 12.5)"><text x="83.5" y="18" font-family="Virgil, Segoe UI Emoji" font-size="20px" fill="#000000" text-anchor="middle" style="white-space: pre;" direction="ltr">prod.example.com</text></g><g transform="translate(399.3515625 10) rotate(0 35.705078125 35.029296875)"><path d="M36.13701869919896 -1.9703709669411182 C43.21520417871172 6.373448910561638, 50.04558340859105 13.034804598984557, 71.18461288884282 36.79641358181834 M35.39053984545171 0.748879799619317 C45.5328094572296 10.153710005964603, 57.29008621895715 20.647310586805908, 71.4863440003246 35.65889591909945 M73.32457699254155 35.0036632232368 C60.89062608886837 48.80441002360931, 47.33273408365079 60.32473215362807, 35.91113068535924 68.24790672585368 M72.33421625755727 35.30062479712069 C60.68212710040177 47.17738868894485, 48.40384671646177 57.68504395173696, 35.76304920576513 70.20680523850024 M34.317909974604845 69.89097790047526 C24.94239774370719 57.539157632012945, 11.978057865297089 48.79393048104103, 0.7609280534088612 34.75806609913707 M35.33810957334936 69.94580889679492 C27.60649481344699 63.00590171470438, 20.007914669846286 55.41836012555549, 0.7976641859859228 36.047921726480126 M0.48432721570134163 34.959029119461775 C7.009697931632401 26.625088432207704, 16.989731784537437 20.495432615801693, 36.948970813304186 -0.2298709936439991 M0.8953228201717138 36.12785250879824 C10.01830153360963 25.805959158986802, 20.814098712503913 14.66421185344457, 36.91727634333074 -0.15363108180463314" stroke="#000000" stroke-width="1" fill="none"></path></g><g transform="translate(409.556640625 32.529296875) rotate(0 25.5 12.5)"><text x="25.5" y="18" font-family="Virgil, Segoe UI Emoji" font-size="20px" fill="#000000" text-anchor="middle" style="white-space: pre;" direction="ltr">/404</text></g><g><g transform="translate(272.84375 112.390625) rotate(0 66.223590607564 -27.242679058760416)"><path d="M1.0389990918338297 0.7251619108021259 C23.083055801441272 -8.322523211687804, 110.56034195745984 -45.87894437238574, 132.3218463294208 -55.21052002832293 M0.12533488570712503 0.06026796863414341 C22.031765704046315 -8.756814563712107, 109.77723074117367 -44.94046572341584, 131.52636393873954 -54.001000604471194" stroke="#000000" stroke-width="1" fill="none"></path></g><g transform="translate(272.84375 112.390625) rotate(0 66.223590607564 -27.242679058760416)"><path d="M110.61262535496495 -33.253356910954025 C115.26186455197985 -40.8107012833726, 121.91496116948251 -45.033539804645244, 132.2928893674817 -53.05202979116701 M110.33486875153027 -32.84236130648365 C115.92472165239688 -40.116864301493024, 122.93544982709648 -45.78224309021459, 131.75583747929895 -53.08372426114045" stroke="#000000" stroke-width="1" fill="none"></path></g><g transform="translate(272.84375 112.390625) rotate(0 66.223590607564 -27.242679058760416)"><path d="M102.76326137981664 -52.21403958778514 C109.65886334942742 -54.06027864258992, 118.70438466682057 -52.504049495901675, 132.2928893674817 -53.05202979116701 M102.48550477638196 -51.803043983314765 C110.33021026313702 -53.64329393316701, 119.60553057555906 -53.83839346719383, 131.75583747929895 -53.08372426114045" stroke="#000000" stroke-width="1" fill="none"></path></g></g><g><g transform="translate(292.8359375 198.65234375) rotate(0 62.34892380021046 -62.804563485831025)"><path d="M0.8374931685626505 1.0327396877110002 C21.737029563635588 -20.23161082987984, 104.5126542918384 -105.59306408489745, 124.87980924770235 -126.64186665937305 M-0.18196164728142317 0.5293240784201769 C20.690354988267647 -20.68003841582996, 103.50090353547596 -104.20382445687117, 124.4449331703689 -125.5049956230726" stroke="#000000" stroke-width="1" fill="none"></path></g><g transform="translate(292.8359375 198.65234375) rotate(0 62.34892380021046 -62.804563485831025)"><path d="M113.65471580387651 -96.60935726398831 C113.6613054021887 -106.7666161339504, 119.17826375125591 -110.3900039435177, 125.3042464609351 -125.59314670174382 M112.12809055620431 -98.33668764876431 C117.20933766723854 -107.7565828044514, 121.36507282075618 -117.41129943413094, 123.60264790422283 -125.45707775971852" stroke="#000000" stroke-width="1" fill="none"></path></g><g transform="translate(292.8359375 198.65234375) rotate(0 62.34892380021046 -62.804563485831025)"><path d="M99.05525197147026 -111.0307184408017 C102.9256658618981 -117.58527220418435, 112.19297204619296 -117.50406364696958, 125.3042464609351 -125.59314670174382 M97.52862672379806 -112.7580488255777 C107.49982336962951 -117.28459198513553, 116.66265010395604 -121.99329984619543, 123.60264790422283 -125.45707775971852" stroke="#000000" stroke-width="1" fill="none"></path></g></g><g><g transform="translate(292.828125 300.359375) rotate(0 76.27428665093612 -109.87626016258727)"><path d="M0.5610607735812665 -1.0353984586894511 C25.96752237007022 -37.85007017379006, 127.8886831395328 -184.38815077866116, 153.15209435150027 -220.78793373033403 M-0.6035210496280343 1.0354134051594883 C24.607090893080457 -35.63789594654305, 126.4755194032099 -182.50486682111088, 152.3515742036607 -219.57599009378814" stroke="#000000" stroke-width="1" fill="none"></path></g><g transform="translate(292.828125 300.359375) rotate(0 76.27428665093612 -109.87626016258727)"><path d="M142.95543587004437 -190.10483132656628 C146.3807365208237 -202.24985527968596, 151.39423633505362 -210.1865114560195, 150.79219264044426 -220.48342811494135 M143.91365393606617 -189.9605663882565 C148.08845580003992 -200.53273262006238, 150.9256388434854 -210.09052072893826, 153.2895735210832 -219.41093879184686" stroke="#000000" stroke-width="1" fill="none"></path></g><g transform="translate(292.828125 300.359375) rotate(0 76.27428665093612 -109.87626016258727)"><path d="M126.10732975101234 -201.82068906672663 C135.5983491684659 -209.83329483007572, 146.6677951072001 -213.55875938786767, 150.79219264044426 -220.48342811494135 M127.06554781703414 -201.67642412841684 C137.21928347628946 -208.04483810875476, 146.0032422173212 -213.46734967121446, 153.2895735210832 -219.41093879184686" stroke="#000000" stroke-width="1" fill="none"></path></g></g><g transform="translate(403.0078125 182.49609375) rotate(0 56.42578125 33.912109375)"><path d="M57.82506575062871 -1.2511514015495777 C76.50322292624362 9.216820283413545, 91.98877125822648 23.740015202567594, 112.89448382332921 33.85519842430949 M56.23065080307424 0.744915196672082 C69.0078366896711 7.026321981674847, 81.71996591031842 13.939159661731537, 113.53804667852819 33.277781734243035 M111.47496916726232 32.463235419243574 C96.33004209786792 44.11180787923339, 81.31312370746215 51.38770789313028, 57.522433657199144 66.21928540989757 M111.89832433126867 34.24035716988146 C95.42658328712896 43.81135182798316, 76.94802751714197 54.75155090238768, 56.82994773052633 67.23111898638308 M57.150007624179125 68.84224550053477 C38.550188660842906 54.112703316297114, 17.83818823959453 45.48384184476308, 0.13364841416478157 33.342600148171186 M57.87883927486837 68.27485592104495 C44.66269881258362 60.10444352219885, 30.705437739553087 51.79343622911866, -0.10785130597651005 33.90960920788348 M-1.798134308308363 32.25880364701152 C20.15673939935863 20.721106524039058, 44.18632676113398 7.859710070136931, 56.78684391453862 -1.257401306182146 M-0.49681071378290653 34.45003498531878 C16.454078295081857 23.220326105710118, 33.842118855006994 13.366246243398635, 56.811502596363425 -0.9581709410995245" stroke="#000000" stroke-width="1" fill="none"></path></g><g transform="translate(418.93359375 203.908203125) rotate(0 40.5 12.5)"><text x="40.5" y="18" font-family="Virgil, Segoe UI Emoji" font-size="20px" fill="#000000" text-anchor="middle" style="white-space: pre;" direction="ltr">/articles</text></g><g><g transform="translate(294.984375 184.7109375) rotate(0 60.135124529153074 7.308706321241317)"><path d="M-0.4837017528712749 0.8326871506869791 C19.816076350957154 3.1154172611733273, 100.58032398298383 10.88838365400831, 120.75395081117749 12.922887598723173 M1.4632160975318405 0.22424395945854503 C21.647512667058038 2.7678317667761196, 99.24715645509772 12.038645063710089, 119.51266702341847 14.393168683024124" stroke="#000000" stroke-width="1" fill="none"></path></g><g transform="translate(294.984375 184.7109375) rotate(0 60.135124529153074 7.308706321241317)"><path d="M91.70045982496072 20.344032470376476 C96.36170762031944 18.669840018930326, 102.77427038266646 19.82720744223398, 119.45273469093256 13.39954725545831 M90.29204933726419 20.961380871252402 C100.22311787135055 18.125950380163843, 110.61622621215075 16.180848492052665, 120.46597395728342 13.4721732780803" stroke="#000000" stroke-width="1" fill="none"></path></g><g transform="translate(294.984375 184.7109375) rotate(0 60.135124529153074 7.308706321241317)"><path d="M94.1084442188423 -0.03540848232539595 C98.12557407636147 2.6202947199645275, 104.02538020277802 8.117264015939314, 119.45273469093256 13.39954725545831 M92.70003373114577 0.5819399185505301 C101.72672385893613 4.7623628027000215, 111.289069159437 9.84823934139482, 120.46597395728342 13.4721732780803" stroke="#000000" stroke-width="1" fill="none"></path></g></g><g transform="translate(539.3515625 116.28515625) rotate(0 126.94140625 26.8671875)"><path d="M4.287842998117098 19.627520972287094 C4.287842998117098 19.627520972287094, 4.287842998117098 19.627520972287094, 4.287842998117098 19.627520972287094 M4.287842998117098 19.627520972287094 C4.287842998117098 19.627520972287094, 4.287842998117098 19.627520972287094, 4.287842998117098 19.627520972287094 M3.3327985121113803 26.835373258491593 C7.854265908810683 22.31141323135154, 9.136234403567972 18.53302350938812, 11.837383798116878 15.950342295944836 M3.959171911719218 26.705745728401084 C6.899699463511698 22.78912867470102, 9.278344867065808 19.452501991801363, 12.921523223983185 16.444568288393462 M4.0948174717407415 33.83271181466682 C10.068777970449535 28.1443253356748, 14.60468285629317 19.424919263062293, 21.64988972147205 13.462633107567683 M4.0627541682254265 34.10498782689376 C8.070174661646153 28.45933578685362, 11.865039130779204 23.64817073791773, 21.608510748420144 12.05822491903092 M5.698911298558677 35.945376544490244 C16.55074395903579 26.12177681303691, 21.020691628603696 15.920536890851036, 28.852726042425843 10.953840345357444 M7.127403369665707 34.686140951931264 C11.609637755114456 28.495476822902255, 18.36392658679366 22.22022355336711, 26.158745171657415 11.803227482576753 M12.091010718087825 34.49590905615145 C19.628644858985027 29.283859692966843, 27.559928842316314 19.305661672026268, 31.71204505991284 10.521291937395251 M11.36633631628302 35.73785953641885 C15.298791967196129 30.394135522593704, 20.294327835274252 24.767441003688695, 33.47567843217496 10.867804402201688 M13.033338492659666 36.49946581478346 C23.894972213667096 27.718299010465238, 33.05818744608722 15.998018775208475, 38.79046884424554 10.494943938368602 M14.261319227440097 38.35751440095831 C24.67314853809097 28.287099463276824, 31.715481796040734 18.72195919820696, 38.82780418231653 8.709047963061971 M19.213325721577213 41.562543294851025 C25.89063642516497 30.001122503505187, 37.16158174607696 21.923308113857345, 45.73265071573644 9.935221152965003 M18.2525297844712 38.981863250483116 C28.940500447616856 28.276604681056288, 36.99062208470216 17.911807906141334, 45.41135044942587 8.45006607531386 M22.744375725152963 39.776816301041634 C28.6297957070454 32.2637212066074, 33.58347148216176 25.431980879897964, 50.390275244698046 7.508017135871945 M21.551821014720076 41.968388995149525 C30.54565716498535 31.315369582495638, 40.38387677350356 20.095837896892967, 51.78777963584673 6.442482274113594 M25.602982102689914 41.084718807820025 C34.9711552605658 31.887403174515164, 41.65298811155224 24.293600874336192, 59.947058251442854 4.359694191776942 M26.892339349520974 43.64838058989102 C38.13083644180811 27.973315092974538, 51.56453907501081 13.70625362409509, 59.32128851892287 5.828935719617437 M32.78555164551008 44.41857270009646 C39.28847383989282 35.985667851951874, 49.150318103547875 24.34288059810191, 66.69980583527388 2.237373795144709 M30.99784753722716 44.153561775086615 C41.068452144703656 31.547028379201585, 52.167397515106785 19.93376125430122, 66.27236727998854 3.3508716167588553 M34.05764045291645 45.55674945233567 C47.69635298029519 34.19926007536628, 55.84541606675418 22.659231378177214, 71.90311922953208 2.1374844913310653 M36.644460759172865 43.95975275566979 C42.97295240604299 34.75343569666495, 50.95346069524287 27.614835861723346, 71.95500435941597 2.6845891163624174 M39.79865878724053 43.7722180296707 C48.83764366332752 34.62736087593018, 59.83125237527018 25.82482526756137, 78.79892606251099 4.388375674577972 M40.81785148472085 45.22291810224233 C49.21575522441253 36.071154322933836, 57.48256543011272 24.895375928249887, 76.07871771752991 3.2113550931388346 M44.06322524778529 48.17928740656627 C59.236854028816765 29.05667926133891, 76.10558576879666 11.334720151700303, 83.1490671545231 4.808284649572919 M44.08710364520534 46.813409269737726 C55.565575195304504 32.6682809617544, 68.61141191744281 20.126600350467008, 81.59364163167413 2.8628712072443463 M49.08193065486327 47.62744488770989 C57.49084217274272 38.88296047299209, 64.39883311561071 29.649747636833574, 89.67241457588094 4.070917471003426 M49.41797651797012 46.89730291831223 C57.84580630659174 37.31591691868193, 65.99349569770611 28.05748963911489, 87.4401447541924 2.1743547438352238 M53.04239707878694 48.82164652778906 C64.07846736767726 37.004954500273946, 75.07089172291666 26.065887819830643, 95.16987164689695 2.5804489435569664 M52.266463755358906 49.74419133312208 C65.95842228783802 34.41083168381775, 77.9792649074414 20.69169469120225, 93.98633011242842 1.8470386130676886 M57.870336868859326 50.4426075512685 C67.3187425761295 37.63210297361614, 79.72355979177532 24.59583233131045, 99.64937293788367 3.3465226219210606 M58.67235241370598 48.53497284410076 C68.09703824056217 37.520940487893505, 78.9441677755265 25.86584293461813, 98.46553510872596 2.310671350098012 M62.38637556640242 48.285931093058494 C72.1250552060597 39.18594473415579, 84.57399945521423 27.54182322926089, 105.45088426915359 2.8592508107832018 M62.728545866364584 49.18848056662729 C79.4806095705955 29.713348457184903, 94.64967757613945 11.938979715748921, 104.41383152042877 1.286017115082437 M67.39922899172872 51.87297945784653 C80.45153894958588 33.40278814476183, 92.84461327053229 20.16699984393105, 112.37140271101921 1.9642145648308897 M67.98674089067846 49.65985366085793 C82.39311655383408 32.392274301172456, 98.82451781064836 13.826677946600071, 111.10752549988061 1.3473556931772137 M74.17464421515072 52.08058370032011 C91.14838242881264 30.61120188285327, 105.8614203431334 12.34732490256092, 116.78995658379306 0.7374636887516246 M72.23886863899136 50.25774691194891 C86.36589806891017 34.195043378985545, 101.40136280347774 16.61680570281255, 117.00065757442523 -0.5150175054614081 M78.90434052799041 52.77075320538952 C90.29637305017013 35.17159928805971, 103.06850810626825 19.477182243734315, 122.13654642879709 2.1152263174556722 M78.29853560965653 51.96154031027927 C90.58270478845262 37.769503494111675, 104.25834496259772 23.0198428816174, 120.50644361741587 1.4224181345455875 M82.4552455585413 50.64683736729669 C93.23502210623815 38.79056193376324, 103.07403089866186 30.507613198714107, 127.98532209533431 0.5047801754077739 M82.06275976299871 50.9650007305597 C93.49029327249174 38.3889408896612, 105.14961057785271 24.713512916909753, 125.40295193518676 0.9147796931316918 M85.55814109812542 50.65678307095192 C100.64351572018934 36.09271945635399, 117.40578401951436 19.396183786962254, 131.21140565371724 2.9235813172954153 M88.01311634737118 52.76703941316924 C98.25249159722532 40.153457642929325, 107.78112818807283 30.129663784641025, 132.30242618008168 1.5754094554531406 M90.55689921705523 53.84929637104268 C110.56245153253056 31.89283509418803, 125.62579532288501 12.429989454531444, 137.7719504242584 3.1195545478061035 M93.27747401511768 52.71537364326413 C104.32319046776271 38.651828546908696, 115.64505835245524 23.91323268978743, 136.7448443794444 1.683665331666191 M95.87742323564323 53.00355207225651 C111.30185790416681 40.407309290993396, 120.3920920137783 23.651450530467805, 141.83114097727022 0.4460934216273529 M96.41143579358193 52.32373633100063 C107.26112591198964 43.26549444011377, 116.54550969314846 31.415726261851496, 140.63541893561862 1.747420856927107 M103.15264772420196 51.50419372928088 C117.82941264855049 36.752765120609645, 134.95677889173083 16.974992632044817, 144.88519313306526 2.737060243446649 M102.83583908510772 52.83437601153498 C113.62563635378632 41.71613125731932, 122.7359868936333 29.00259856268797, 145.6820966259481 2.0655651913921247 M107.69147947405337 54.97104322702605 C123.33103200147912 35.30140559706918, 140.55577044316328 13.655899060981064, 150.88735396195602 1.1817860679514638 M107.61819663804827 53.535266425246185 C123.03932769311972 34.93666883118489, 138.9242680341436 17.201062486111105, 150.83305860277665 2.2905031202174655 M112.8840926424815 54.360552879511246 C128.40801129845119 37.53751393531691, 139.21754498244442 19.781809634227734, 158.02896081324548 4.445361119606588 M112.19049169171888 53.54905861662222 C128.29719669249303 35.4138043361723, 143.4989003450824 16.358686960636057, 156.37027942243844 2.2359454733366704 M118.76633846282732 52.387901232092254 C133.99061927755287 36.54128838667444, 148.76079650659 17.45691110967166, 163.24020519926512 4.5624731135450105 M117.22608768649172 54.94267673648762 C130.32432623730443 39.47162212415638, 141.33356076396367 25.19382959588487, 162.72279092929625 2.4582474463514785 M123.70533553439384 54.854897259233795 C135.94442258379982 38.05112444099641, 151.14667724916487 20.66755945355289, 165.25148696931797 3.28414977423148 M122.6378185537011 54.74272223977586 C133.00632994652963 43.57861715917851, 143.11435409560383 30.33551637762141, 167.84053642968433 3.290651119195388 M128.90023370648407 52.54381868540063 C144.10500988025169 34.246507806176695, 159.76221318995718 17.170244318615772, 173.09417819371654 1.9715971563535106 M128.39125259968125 53.51681220642045 C145.20505016653928 34.383288673734114, 163.2987034326606 14.725121776071418, 172.00763457594647 3.4246237770246637 M131.53903699142953 54.356540725725765 C150.0697223929176 34.1136184600945, 168.72507332925176 14.921062029540884, 177.88168219277333 3.7164900645985597 M131.97401541879495 55.20020808202314 C143.92337318701863 41.610072458051114, 153.69232387069562 30.24848232120763, 175.93593839542638 4.717648329995512 M139.85995773853315 53.66127860467397 C149.53620681373576 40.393578545374986, 163.23130589343137 27.614872925379466, 179.27837450781027 4.970681633876964 M137.7696440673764 54.13005819651745 C148.29502350860307 43.53850686945069, 158.7795054448145 31.748691920463106, 181.54647626147727 4.510432893487021 M142.30823954709803 53.431716296709936 C154.04836778907742 40.93082076441523, 168.6272917774246 24.899438375913316, 187.24883901712093 7.402365008430621 M144.5269099767599 54.87202650483684 C154.89050148610218 41.35388266366267, 166.56389169872668 27.234697241000287, 186.03118800942394 6.170572467209837 M148.69298017945556 55.38613526696672 C162.15503864214537 42.45346320067014, 171.45346041278384 26.002035510006092, 189.2465137620273 5.299330823169825 M148.82914186630813 54.04692132758309 C164.56869116806232 37.47585797252359, 179.57321392884396 18.42491913601492, 191.35407076261964 5.1833064165430045 M153.2484857349088 54.334156989909054 C167.57848137654798 38.64750922957807, 183.36175610492555 19.280649294355626, 195.30686803385137 6.179838463004856 M154.4680799173554 55.364937869689705 C163.23492447075708 42.812012866804686, 174.6243606650129 30.646801003436586, 195.65685601941763 6.449889731865554 M159.79109356276075 55.31587169000167 C172.58767222000898 38.73777215572865, 187.63999945060314 21.691051253359014, 199.14057946088667 7.403487322177668 M159.91319868623594 55.45228696109015 C169.61628258201787 43.198024997365884, 179.7753621711115 31.111576336179567, 200.66468674014266 7.5859642878881886 M163.5320542043334 53.986257502154814 C175.55334193699068 44.196473502013504, 185.25427166131607 33.626667645944295, 205.32217983445514 7.574474285598512 M164.43708904630302 54.92311421716343 C180.98642018407332 35.962253699632505, 197.13742619259781 17.942158511026065, 205.18726317314793 7.012316324989911 M172.82676750892978 52.47134215083325 C184.01552259455653 38.99203181958443, 196.82956660223294 27.515487188049097, 210.3832321958788 7.152464988177684 M170.17719430389087 52.92316171784306 C187.08316427244296 35.93316248386006, 201.6630478388606 19.479891667795393, 210.5245199417867 9.253247708549765 M177.01948748888134 54.016750851169995 C190.2048338036105 37.99554977935489, 204.8736395728011 18.530868240247898, 215.90550792345118 9.063465074157108 M176.29301505336224 52.4658159087308 C189.85283337493604 37.48004181035819, 203.86479778149393 22.392486125920083, 213.87230313138377 8.234947188278426 M182.16073552248162 52.57973924740702 C191.81870952785152 40.29287960504697, 203.2357537746081 30.11108704346492, 219.70963255849426 10.103077678447107 M182.9960223800419 52.71164053953737 C197.225279296498 36.22507216205289, 209.45000633643582 20.85564943676084, 219.82351611529236 9.376247879554967 M188.88382812206208 49.741870054677364 C202.09704915069324 38.391080757944465, 212.5262045443643 22.612478025756168, 224.94826289233006 9.54737468595792 M187.73868562829256 50.56855330586457 C198.26773048950392 40.61322110008815, 208.71035595073937 28.753995546907834, 223.77379664186574 10.886998522758375 M196.12229013692578 52.301045997445755 C204.8436203962822 35.905865228404586, 219.31426547343634 22.011472922347895, 227.88714599527106 11.273187151377044 M195.24438560444852 50.97135878764587 C200.53716250487466 41.576870968014724, 209.15504988612383 33.16565134977384, 228.01507586344763 12.575853903044901 M202.26667766637567 49.41063855017693 C210.15137378823238 41.63112013121203, 216.4081442127325 31.922818829084, 233.68617824561073 13.87839571894645 M200.976737489844 50.708377189814755 C211.0254255859141 36.99605902170291, 223.0685583610103 23.6214438641919, 231.82913736536278 12.658065270125263 M206.32140097274325 49.71861667800391 C216.92257759873897 36.72445846047968, 226.74520981365973 23.209017954776282, 235.58805115568066 14.085188103799183 M206.60891375384173 50.24807308297301 C213.77666616248933 40.86805440960829, 222.90031379913165 30.543814437500426, 234.988762991974 15.846237819601257 M211.62213768432207 46.95957977516866 C224.78856656331922 35.487536366574474, 234.45045137802532 24.5632348092468, 239.29172360377424 15.577382450177168 M212.05355735676653 48.01858834183133 C220.77496570131038 38.564669596030996, 227.6291386861541 30.489805648492876, 240.44370507860594 16.875154051183557 M220.36841959243407 48.11272472658146 C226.58739086140946 35.39525915959296, 235.7023497683459 25.580850826947824, 244.82894960222305 17.913103973213467 M218.30786854697158 47.25320920676876 C225.16166073936836 38.52958894592931, 232.4973321326643 31.268654291569803, 244.50971421962143 18.101950410473975 M224.02892779638228 44.503298006707055 C232.15231752286462 40.5377248440728, 234.4903874615997 33.440006862611995, 246.93775052932057 21.362108317150074 M226.17140000579116 45.779318382718785 C233.56321799342572 36.110314103386244, 240.3877258481213 27.258687276405244, 247.5545115003452 19.030940647183257 M231.18619755849812 42.45114358067845 C236.25240255527498 40.04632082543867, 239.84787052313317 33.84113649994559, 251.62682483941722 21.327877357565526 M232.40326170258794 43.354442940283164 C236.6628602792299 39.002158454570434, 241.3780150575097 32.4274746382133, 250.87469820715893 23.42321161735869 M239.91009053606575 40.10802626251484 C242.16442746251528 39.151359079967754, 244.07911561360783 32.81450583313472, 251.8293154397971 25.41139465847901 M240.40809312667733 41.19107767394985 C244.13139175766892 34.773443676176804, 249.2821526200278 28.996910393153776, 252.66202320437796 27.047898740488208" stroke="#00ffff" stroke-width="0.5" fill="none"></path><path d="M130.2508666829219 0.7461850983660447 C146.13364105300698 0.6094899502781838, 164.32357014274604 1.8656143218397407, 179.57047604168656 3.165326416900971 C194.8173819406271 4.465038511962201, 210.442353360729 5.965844935101979, 221.73230207656502 8.544457668733425 C233.02225079240105 11.123070402364872, 241.93913535525496 15.284696472176336, 247.31016833670282 18.637002818689652 C252.68120131815067 21.989309165202968, 255.37368383700937 24.954080040811633, 253.95849996525223 28.658295747813327 C252.5433160934951 32.36251145481502, 247.08402037397315 37.612490792876244, 238.81906510615997 40.86229706069981 C230.5541098383468 44.112103328523375, 217.8916505670943 46.01602691833071, 204.3687683583732 48.157133354754734 C190.84588614965207 50.29823979117876, 174.21375592581907 52.987557122886145, 157.68177185383325 53.70893567924394 C141.14978778184744 54.43031423560174, 121.95602326527262 53.3201308217609, 105.17686392645824 52.48540469290154 C88.39770458764386 51.65067856404218, 70.9852672567026 50.591687354990285, 57.00681582094698 48.7005789060878 C43.028364385191374 46.80947045718531, 30.384392765298024 43.86290892229583, 21.306155311924584 41.13875399948664 C12.227917858551143 38.41459907667745, 5.395198992743156 35.916211099197284, 2.53739110070633 32.35564936923266 C-0.3204167913304965 28.795087639268033, 0.28433041668908965 23.381459905948255, 4.159307959703625 19.775383619698893 C8.034285502718161 16.16930733344953, 15.658252007014092 13.446222894575547, 25.78725635879354 10.719191651736484 C35.91626071057299 7.992160408897421, 50.01159736722877 5.195388360979883, 64.93333407038033 3.4131961626645193 C79.85507077353189 1.631003964349156, 102.94465523162197 0.49633952681183463, 115.31767657770291 0.026038461844304805 C127.69069792378386 -0.444262603123225, 133.53073682171566 0.5338970672863296, 139.17146214686602 0.5913897728593405 C144.81218747201638 0.6488824784323514, 149.22980270353125 -0.12354069662879691, 149.16202852860502 0.37099469528236995 M176.98203354146446 1.2382287621305217 C192.57095210032645 2.1132508060911754, 207.815087271444 5.183009981512228, 219.4608254795291 7.902668579074469 C231.10656368761417 10.622327176636709, 241.14782487977573 14.277130192611862, 246.85646278997498 17.556180347503968 C252.56510070017424 20.835230502396072, 254.65498594706472 24.183819667246944, 253.71265294072458 27.576969508427105 C252.77031993438445 30.970119349607266, 248.93743451063338 34.523666312452605, 241.20246475193417 37.915079394584936 C233.46749499323496 41.30649247671727, 220.77292237489655 45.37909243040119, 207.30283438852928 47.92544800122107 C193.832746402162 50.471803572040955, 176.88857473469096 52.13041442597953, 160.3819368337306 53.193212819504254 C143.87529893277025 54.25601121302898, 124.67408282310433 54.74988932709494, 108.26300698276708 54.3022383623694 C91.85193114242983 53.85458739764386, 75.96157151465704 52.50993419173393, 61.915481791707094 50.507307031151015 C47.86939206875714 48.5046798705681, 34.07035457427627 45.576013732184656, 23.986468645067376 42.28647539887191 C13.902582715858477 38.99693706555916, 4.853988612675094 34.473919816759576, 1.4121662164536986 30.77007703127454 C-2.0296561797676964 27.0662342457895, -0.5133464358693209 23.44210812979507, 3.335534267739007 20.06341868596167 C7.184414971347335 16.684729242128267, 14.685986538501998 13.1989207556424, 24.505450438103665 10.497940368274127 C34.32491433770533 7.796959980905855, 47.99672957879732 5.668713829853158, 62.25231766534901 3.8575363617520324 C76.50790575190071 2.0463588936509067, 93.16605191536183 0.2177608246005338, 110.03897895741382 -0.3691244403326266 C126.9119059994658 -0.956009705265787, 152.3724292188838 0.13695635294676953, 163.48987991766091 0.33622477215307 C174.60733061643802 0.5354931913593705, 174.72326544196608 0.5083964992428864, 176.7436831500765 0.8264860749051763 C178.7641008581869 1.1445756505674662, 176.337829884984 1.5926899436588293, 175.61238616632335 2.2447622261268094" stroke="#000000" stroke-width="1" fill="none"></path></g><g transform="translate(606.22265625 130.3671875) rotate(0 59.5 12.5)"><text x="59.5" y="18" font-family="Virgil, Segoe UI Emoji" font-size="20px" fill="#000000" text-anchor="middle" style="white-space: pre;" direction="ltr">articlesPage</text></g><g><g transform="translate(494.8671875 201.61328125) rotate(0 26.119710192753985 -21.041862945887658)"><path d="M0.5605509392917156 0.754390550404787 C9.258882960777742 -6.5263842396051395, 44.321835732962995 -35.79625385309791, 52.843718932427535 -42.8381164421801 M-0.6042985469195992 0.10484164402820162 C7.877608717026199 -7.125404370230135, 42.7920417237748 -34.492871376222354, 51.88845922827541 -41.77929556926792" stroke="#000000" stroke-width="1" fill="none"></path></g><g transform="translate(494.8671875 201.61328125) rotate(0 26.119710192753985 -21.041862945887658)"><path d="M37.42406601466879 -16.251702629517276 C40.04011367422131 -27.301993009781867, 47.848654655779825 -36.00770598787366, 52.905778829304566 -42.74483429079955 M35.776837742037024 -15.607650837417204 C40.755012446258945 -24.131958239546364, 45.4851927000054 -32.506699214622984, 51.644682975782146 -41.10277967153197" stroke="#000000" stroke-width="1" fill="none"></path></g><g transform="translate(494.8671875 201.61328125) rotate(0 26.119710192753985 -21.041862945887658)"><path d="M24.67870582528009 -32.33510388760274 C31.926152828206114 -37.74373154615321, 44.25263383126543 -40.74824493898277, 52.905778829304566 -42.74483429079955 M23.031477552648326 -31.69105209550267 C32.14602188141676 -34.93200180310945, 41.00593650353228 -38.095420857987634, 51.644682975782146 -41.10277967153197" stroke="#000000" stroke-width="1" fill="none"></path></g></g><g transform="translate(758.01171875 23.19921875) rotate(0 103.99609375 23.41796875)"><path d="M70.94212620041856 2.120211599350938 C84.058768737463 0.7265664869471482, 101.69163563833158 -0.04342113619019489, 116.6100754576788 0.2700532984690156 C131.52851527702603 0.583527733128226, 147.51277348184402 2.0515162494252523, 160.4527651165019 4.001058207306201 C173.39275675115977 5.95060016518715, 186.2941449616968 8.908261745828423, 194.2500252656261 11.967305045754708 C202.20590556955543 15.026348345680994, 206.91791735444536 18.931869126061457, 208.18804694007784 22.355318006863918 C209.45817652571031 25.77876688766638, 207.47024241585044 29.45926629704661, 201.870802779421 32.50799833056948 C196.2713631429916 35.556730364092346, 185.7789916618534 38.46313413286592, 174.59140912150124 40.647710208001115 C163.40382658114908 42.83228628313631, 149.43708179473063 44.63343794965319, 134.74530753730792 45.61545478138065 C120.05353327988522 46.597471613108105, 101.64421942881567 47.08179822698564, 86.44076357696501 46.539811198365854 C71.23730772511435 45.99782416974607, 55.70483776933709 44.25608730348943, 43.52457242620393 42.36353260966191 C31.344307083070774 40.47097791583439, 20.490324694543045 38.01087813763641, 13.359171518166079 35.184483035400746 C6.228018341789112 32.35808793316508, 1.5816364373956922 28.815277719722868, 0.73765336794213 25.4051619962479 C-0.10632970151143206 21.995046272772935, 2.472282232397113 18.119320385580036, 8.295273101444707 14.72378869455095 C14.1182639704923 11.328257003521866, 23.463040351735167 7.305473040963731, 35.67559858222769 5.031971850073393 C47.88815681272022 2.7584706591830557, 72.01186709687491 1.8010933763664365, 81.57062248439988 1.0827815492089243 C91.12937787192485 0.36446972205141215, 92.7864712040423 0.39303243757958245, 93.02813090737749 0.7221008871283203 M130.38053436761984 0.962278121881134 C144.54674705070727 1.3539473088127512, 158.69829088211816 4.08378514370101, 170.23127350710143 6.129868574394568 C181.7642561320847 8.175952005088124, 193.43933240791083 10.181294213300363, 199.5784301175196 13.23877870604248 C205.71752782712835 16.296263198784594, 207.467639579579 20.70830637300891, 207.06585976475407 24.474775530847264 C206.66407994992915 28.24124468868562, 204.09219357239766 32.734133174070905, 197.16775122857007 35.83759365307261 C190.24330888474248 38.94105413207431, 178.14945647623694 41.11297514264838, 165.51920570178845 43.09553840485749 C152.88895492733997 45.078101667066605, 136.24342074614424 47.44781601132763, 121.38624658187922 47.73297322632726 C106.52907241761422 48.01813044132689, 90.66674154366173 45.98798210332842, 76.37616071619843 44.806481694855265 C62.085579888735126 43.62498128638211, 47.21489703007349 42.886258281985434, 35.642761617099396 40.64397077548831 C24.070626204125304 38.40168326899119, 12.72811907582378 34.269865194819715, 6.943348238353863 31.352756655872522 C1.1585774008839467 28.43564811692533, -0.2490879842750573 26.617260535331233, 0.9341365922798985 23.141319541805164 C2.1173611688348544 19.665378548279094, 6.675187669997545 13.472011072697978, 14.042695697683598 10.497110694716108 C21.41020372536965 7.522210316734238, 32.63520373691365 7.057944650877843, 45.13918475839622 5.291917273913942 C57.643165779878785 3.5258898969500407, 74.9061846195825 0.45347183658838297, 89.06658182657898 -0.09905356706729762 C103.22697903357546 -0.6515789707229782, 123.38284252242647 1.8568857969590222, 130.1015680003751 1.9767648519798584 C136.82029347832372 2.096643907000695, 130.10388748964252 0.42012709104890666, 129.37893469427075 0.6202207630577199" stroke="#000000" stroke-width="1" fill="none"></path></g><g transform="translate(809.765625 34.1171875) rotate(0 52.5 12.5)"><text x="52.5" y="18" font-family="Virgil, Segoe UI Emoji" font-size="20px" fill="#000000" text-anchor="middle" style="white-space: pre;" direction="ltr">getArticles</text></g><g transform="translate(785.7890625 208.0078125) rotate(0 98.109375 20.263671875)"><path d="M137.66111806377185 1.9182730182896854 C151.04411963077433 2.9533364080395526, 165.54609129555 5.521246047735799, 174.77968614062473 7.894018490972661 C184.01328098569945 10.266790934209522, 189.9674130776399 13.115996280753361, 193.0626871342202 16.154907677710852 C196.1579611908005 19.193819074668344, 196.8815870470636 23.123963623906448, 193.35133048010667 26.127486872717608 C189.82107391314975 29.131010121528767, 181.84838619959007 31.909871669612816, 171.88114773247872 34.17604717057781 C161.91390926536738 36.4422226715428, 147.15646902032202 38.532640605489085, 133.54789967743858 39.72453987850757 C119.93933033455514 40.916439151526056, 104.75795827790733 41.84700967079791, 90.22973167517804 41.32744280868873 C75.70150507244875 40.80787594657955, 59.041718567548045 38.494367144566844, 46.37854006106282 36.60713870585249 C33.7153615545776 34.71991026713814, 21.776325624098853 32.38422672253698, 14.250660636266687 30.004072176402623 C6.724995648434522 27.62391763026827, 2.327256130746423 25.3056403833068, 1.2245501340698297 22.326211429046367 C0.12184413739323685 19.346782474785932, 2.2655383205503155 15.018242786257183, 7.6344246562071305 12.127498450840019 C13.003310991863945 9.236754115422855, 22.400924289144413 6.879508778731861, 33.43786814801072 4.981745416543379 C44.47481200687703 3.083982054354898, 59.443009798882855 1.4261915396584488, 73.856087809405 0.740918277709131 C88.26916581992714 0.05564501575981318, 107.31539721268132 0.6340218718518079, 119.91633621114357 0.8701058448474726 C132.51727520960583 1.106189817843137, 143.42575658739042 1.6943629934015785, 149.46172180017854 2.1574221156831186 C155.49768701296665 2.620481237964659, 157.25894119068388 3.318731642064916, 156.13212748787234 3.6484605785367137 M118.7016221690167 1.339510109441541 C133.0355605898906 1.4280695738852218, 149.52398607159583 1.8374093021379527, 161.08851399821407 3.4942865194023316 C172.6530419248323 5.15116373666671, 182.174293585962 8.085224904805916, 188.08878972872617 11.280773413027815 C194.00328587149033 14.476321921249713, 197.2842962211388 19.699491261269692, 196.5754908547991 22.66757756873372 C195.86668548845944 25.635663876197746, 191.0178595193781 26.893457655338448, 183.83595753068812 29.089291257811972 C176.65405554199813 31.285124860285496, 166.0570257592334 33.945491825184234, 153.48407892265925 35.842579183574856 C140.9111320860851 37.73966654196548, 123.34349035099929 40.10314139294019, 108.39827651124328 40.471815408155706 C93.45306267148727 40.840489423371224, 77.40051624509972 38.913393158829535, 63.81279588412319 38.05462327486797 C50.22507552314665 37.19585339090641, 36.99534079806187 37.40139162435676, 26.871954345384054 35.31919610438632 C16.74856789270624 33.23700058441588, 7.043949453120867 28.552465301017687, 3.0724771680563236 25.56145015504531 C-0.8989951170082193 22.570435009072934, 0.21549180239347265 20.09460587897054, 3.0431206349967965 17.37310522855207 C5.87074946760012 14.651604578133599, 11.150684678279044 11.621455768736062, 20.038250163676267 9.232446252534482 C28.925815649073492 6.843436736332901, 43.0765156998042 4.630156465893904, 56.36851354738014 3.0390481313425894 C69.66051139495609 1.4479397967912744, 89.51504432979162 -0.12064439135214103, 99.79023724913193 -0.3142037547734091 C110.06543016847225 -0.5077631181946772, 114.93035477964828 1.8750260323094345, 118.01967106342204 1.877691950814981 C121.1089873471958 1.8803578693205274, 118.3419306917089 -0.24350015736408123, 118.32613495177445 -0.298208243740131" stroke="#000000" stroke-width="1" fill="none"></path></g><g transform="translate(820.8984375 215.771484375) rotate(0 63 12.5)"><text x="63" y="18" font-family="Virgil, Segoe UI Emoji" font-size="20px" fill="#000000" text-anchor="middle" style="white-space: pre;" direction="ltr">getComments</text></g><g><g transform="translate(694.4194548660789 114.91088822983221) rotate(0 35.30840992377034 -24.323285648721622)"><path d="M-0.5173984654247761 -0.9413245193660259 C11.522170966518706 -9.43154727887871, 59.23030180460604 -41.63295037804853, 71.13421831296554 -49.825447460070976 M1.411828610887751 1.178876162627712 C13.435767600629141 -6.658422134030109, 58.98067585727032 -40.25705422131094, 70.46133883268371 -48.67084014499818" stroke="#000000" stroke-width="1" fill="none"></path></g><g transform="translate(694.4194548660789 114.91088822983221) rotate(0 35.30840992377034 -24.323285648721622)"><path d="M52.23893511515058 -22.84414213795855 C55.82551976079759 -28.34445750172849, 58.83913393906574 -32.63872601590231, 71.49385535315409 -48.0658805192474 M53.11193457279302 -24.287322279929064 C56.15555666738933 -28.33662479061813, 60.43099623503155 -33.06392923775725, 70.52749475248888 -49.25843522968029" stroke="#000000" stroke-width="1" fill="none"></path></g><g transform="translate(694.4194548660789 114.91088822983221) rotate(0 35.30840992377034 -24.323285648721622)"><path d="M40.095541900781896 -39.38675389145939 C46.362594637202825 -41.39274268836, 51.90284590548056 -42.24504274411586, 71.49385535315409 -48.0658805192474 M40.96854135842433 -40.82993403342991 C46.46052309044033 -41.45459951435938, 53.16834176682843 -42.86834056756195, 70.52749475248888 -49.25843522968029" stroke="#000000" stroke-width="1" fill="none"></path></g></g><g><g transform="translate(793.9520578926267 139.54437143826829) rotate(0 33.976964329511134 32.1430336238771)"><path d="M0.23720077201724044 -0.4815339557826519 C11.73252562322879 10.64698680709742, 57.76007248653294 55.17213708216659, 69.0513362110355 66.0660104756619 M-1.0974075520131739 -1.7799432279076428 C10.221961425172557 9.052582434533834, 56.145591012511495 52.95690459276884, 68.0373614656036 64.23107373169653" stroke="#000000" stroke-width="1" fill="none"></path></g><g transform="translate(793.9520578926267 139.54437143826829) rotate(0 33.976964329511134 32.1430336238771)"><path d="M39.74586676823551 52.00685528638199 C49.81949783993562 53.85889169930336, 56.27419475227657 58.30654359583854, 67.07366049683142 65.42161013013713 M40.861348053613845 51.4039817840828 C48.875014701196775 56.34500362758483, 58.705996765547745 59.35963928434367, 68.87926551906813 63.7816385181158" stroke="#000000" stroke-width="1" fill="none"></path></g><g transform="translate(793.9520578926267 139.54437143826829) rotate(0 33.976964329511134 32.1430336238771)"><path d="M53.90009774380844 37.148263567246175 C59.54651255130967 43.584154163749815, 61.66130155404635 52.58768195624463, 67.07366049683142 65.42161013013713 M55.015579029186775 36.545390064946986 C58.4478434149615 46.100705813035944, 63.761864214763825 53.85708147367817, 68.87926551906813 63.7816385181158" stroke="#000000" stroke-width="1" fill="none"></path></g></g><g transform="translate(456.6171875 175.81640625) rotate(0 225.052734375 216.625)"><path d="M0.0019157342612743378 0.4744085259735584 L450.27942601963883 1.0913627333939075 L451.27597240731126 434.63204206898814 L0.5527121238410473 433.21692993119365" stroke="none" stroke-width="0" fill="white"></path><path d="M0.04200842334124491 0.7085362364834845 C162.28656722468995 -2.3350663706617003, 323.06709763913955 -2.3972068523391967, 450.68663288015017 0.8271766826678449 M-0.11800663181084428 0.3959055337341107 C117.35269252493693 1.115858610786753, 233.7711358488188 1.711076167746431, 449.849761667476 -0.0774507526453648 M450.6894224520913 0.8526476485364505 C450.5427249841511 93.68400993519076, 448.972719117228 186.3830401395281, 450.06663919667113 433.96418846025267 M449.883034917312 -0.00786608533673342 C450.2435563758963 119.04132766454468, 451.1066864461369 237.96825059526049, 450.50918105780084 433.15107605228104 M450.98076474681875 432.8940804665271 C279.62141206837686 434.07736547161346, 108.57863002553759 433.2816471184061, 0.11820772547242256 432.8991225105609 M450.53043476134917 433.4683663929531 C304.58374340551006 432.3137236710456, 159.49778726439516 432.289099974131, 0.3357312881943496 433.32263798257895 M-0.41240763503141503 433.81734699855934 C0.23134012110850544 305.7959127327758, -1.300947953029718 175.89977234246325, -0.7662834253782161 0.6510175681146809 M-0.48830172425186863 433.54208763804303 C0.05331135309435492 338.13797529230084, 0.18386563317427396 243.152300926038, 0.06675938364535922 -0.017833654864103154" stroke="#000000" stroke-width="1" fill="none"></path></g><g transform="translate(468.1484375 198.734375) rotate(0 51.505859375 11.634765625)"><path d="M0.3248768262565136 -1.8707197718322277 L101.49761263653636 0.5837969966232777 L103.47654275223613 24.78894319012761 L-0.4662381000816822 21.490202207118273" stroke="none" stroke-width="0" fill="white"></path><path d="M-1.7953347973525524 1.3939969949424267 C41.27401013162526 -0.837012771302907, 79.0655421028394 -0.8392151629273576, 104.47548021748662 1.2297970466315746 M0.9252400007098913 0.2600742671638727 C28.544367855518797 0.7123924132681713, 56.20471542163141 -0.0366446736954823, 103.44837417267263 -0.20609216950833797 M101.54989256337285 0.18814532086253166 C104.9642261695135 7.8560232469513736, 102.07696513645533 11.219377705022637, 103.54765536263585 21.4657597951591 M102.08390512131155 -0.49167042039334774 C103.48391199006866 5.815650419606391, 103.65160351886581 9.279658042443044, 102.35193332098424 22.767087230458856 M103.83810164406896 21.598210852593184 C66.3959378663676 24.91787389140118, 31.72112714652758 22.96310344557751, -1.397026639431715 23.396619241684675 M103.52129300497472 22.928393134847283 C79.90912909259859 22.353962846648574, 54.743336258713676 21.43344367350328, -0.6001231465488672 22.72512418963015 M1.0342582650482655 23.950243394821882 C-1.1174969587353554 15.142008229794008, -1.4109545860318031 4.511427331123556, -0.3818812184035778 -1.7882935591042042 M0.9609754290431738 22.514466593042016 C0.2130959688808798 14.347464814461272, -0.1443246544215799 6.824576576529942, -0.43617657758295536 -0.6795765068382025" stroke="#000000" stroke-width="2" fill="none"></path></g><g transform="translate(502.154296875 197.869140625) rotate(0 17.5 12.5)"><text x="17.5" y="18" font-family="Virgil, Segoe UI Emoji" font-size="20px" fill="#000000" text-anchor="middle" style="white-space: pre;" direction="ltr">Pod</text></g><g transform="translate(492.73828125 223.6015625) rotate(0 95.5 12.5)"><text x="0" y="18" font-family="Virgil, Segoe UI Emoji" font-size="20px" fill="#000000" text-anchor="start" style="white-space: pre;" direction="ltr">tekton-articlesPage</text></g><g transform="translate(469.875 252.72265625) rotate(0 51.814453125 10.498046875)"><path d="M0.9118449874222279 -0.3306121416389942 L104.65021719411016 -0.299416858702898 L102.47771980240941 20.07508210465312 L1.846867460757494 19.13529197499156" stroke="none" stroke-width="0" fill="white"></path><path d="M1.8698836974799633 1.1559610553085804 C21.265276546849783 0.6031534728450787, 43.518743584452025 -1.2719272318439472, 103.3886022977531 0.28792108967900276 M-0.3395319487899542 0.4532999601215124 C21.206106646273838 1.2465571129290764, 44.666976946049544 -0.3722675478489691, 104.08321953751147 0.15670146606862545 M105.25579456612468 -0.47409234568476677 C102.60721020813253 5.846361910105771, 103.39638202305105 14.544398715945137, 104.58290473744273 19.457081098109484 M103.15156889893115 0.44872655533254147 C103.9262650327637 5.01210793079008, 104.1622171120598 9.19037845114508, 102.89427621103823 21.669483026489615 M103.61736385151744 19.83297659829259 C80.27438278372502 18.309570313059158, 59.30290363854001 20.40256059225685, -0.539248663932085 22.923837084323168 M103.62386519648135 21.659399351105094 C82.81746962493416 21.27605398308333, 61.64810751591139 21.146155256143174, 0.14996827580034733 20.11473490856588 M-1.684202391654253 22.86244620755315 C-1.2674234309761232 13.378761951000342, 0.9808014234931761 7.294388760121365, -0.6596206016838551 -0.546063881367445 M-0.23117577098309994 21.91045262478292 C-0.9737522058767354 13.115872397142084, -0.673686509637264 6.290551431586209, -0.26878385804593563 -0.46561173535883427" stroke="#000000" stroke-width="2" fill="none"></path></g><g transform="translate(472.689453125 250.720703125) rotate(0 49 12.5)"><text x="49" y="18" font-family="Virgil, Segoe UI Emoji" font-size="20px" fill="#000000" text-anchor="middle" style="white-space: pre;" direction="ltr">Resources</text></g><g transform="translate(472.14453125 287.1484375) rotate(0 69.328125 11.705078125)"><path d="M0.18186213448643684 -1.3329062052071095 L137.94081844761968 1.4035350494086742 L136.69662000611424 22.11072139069438 L-1.0200935415923595 22.474810045212507" stroke="none" stroke-width="0" fill="white"></path><path d="M-0.007791835814714432 -0.11970661208033562 C36.712593854829905 -1.6228620283730562, 69.11380763995695 -1.0764797203667695, 140.04951624199748 -1.6452325396239758 M-0.8985617663711309 -0.47502450086176395 C34.61827846695087 -0.43902805908059217, 69.32256720185978 -0.3116750465187941, 138.38416744209826 0.30284752510488033 M136.87703565880656 -0.4554637484252453 C137.07798669622068 9.821616456830089, 138.20765838906888 16.98946280588425, 137.39752046391368 23.276719827204943 M137.7858297917992 -0.05387006141245365 C138.3179754957403 6.441112879013963, 138.30762783138408 10.673299417462841, 138.82870037294924 23.76210888288915 M139.7321504764259 22.202053803950548 C109.14841828769423 23.205934223016374, 82.04019192781998 25.36980157740938, 1.8143227510154247 22.583670515567064 M138.3779304716736 22.64820440672338 C91.9796650472621 23.112371204294615, 45.10002488225001 22.864880619444303, 0.8240698669105768 24.086701890453696 M0.6843836717307568 23.294374365359545 C-0.7143929450984433 18.616788989831548, -1.4469572751994564 11.07044827372738, -0.06152709200978279 -1.974258404225111 M0.5613950584083796 22.511020680889487 C0.001400743584599684 16.10498064453495, 0.6298737274217274 7.4311393233903775, 0.04807133413851261 0.45137020014226437" stroke="#000000" stroke-width="1" fill="none"></path></g><g transform="translate(475.70703125 287.546875) rotate(0 64.5 12.5)"><text x="64.5" y="18" font-family="Virgil, Segoe UI Emoji" font-size="20px" fill="#000000" text-anchor="middle" style="white-space: pre;" direction="ltr">CPU Request</text></g><g transform="translate(618.2421875 286.50390625) rotate(0 24.82421875 11.81640625)"><path d="M-1.4112081117928028 -0.4267643503844738 L49.30648009106517 1.3739133067429066 L49.81766728684306 24.523853201419115 L-0.5743017978966236 25.51072623208165" stroke="none" stroke-width="0" fill="white"></path><path d="M1.8437805362045765 1.1302631311118603 C14.83656197621167 -0.6947343732208537, 33.63063202095509 -0.4674140597671794, 48.448000092059374 1.6858812980353832 M-0.6977615747600794 0.35102475620806217 C13.165363792933933 -0.19208515341379095, 25.803595590681656 0.589380078958493, 49.861551186069846 -0.789259722456336 M49.819043297320604 -0.6875575371086597 C48.676231702895166 4.951513731612067, 49.339233121008874 10.941334969815216, 48.93634345009923 22.140929739922285 M49.37415733002126 0.2219149563461542 C49.886438444558735 9.240371385480103, 50.78607882589495 16.439440378700965, 49.85365708731115 23.78751159645617 M50.859358090907335 23.980656187981367 C36.097865359181014 23.95143575253678, 26.49532724781602 23.985953636791237, -0.3138500265777111 21.778179567307234 M50.29462321661413 23.663539180532098 C36.40990004674677 23.42644530212492, 25.54918467412062 23.140920635815565, 0.23184659145772457 23.099628755822778 M-1.1640592627227306 25.32814161106944 C-0.6691766626790923 15.641069085111667, -0.640887463803665 4.474424263011315, -1.146208267658949 -0.6192881651222706 M0.5840828623622656 23.896661588922143 C0.08066796877028537 18.618287980199966, -1.1649209894931118 13.664203693377203, -0.46194914914667606 -0.747378459200263" stroke="#000000" stroke-width="1" fill="none"></path></g><g transform="translate(632.56640625 285.8203125) rotate(0 10.5 12.5)"><text x="10.5" y="18" font-family="Virgil, Segoe UI Emoji" font-size="20px" fill="#000000" text-anchor="middle" style="white-space: pre;" direction="ltr">1.5</text></g><g transform="translate(474.484375 319.05078125) rotate(0 68.220703125 12.8125)"><path d="M-1.5177683643996716 -0.19671793654561043 L136.66989125683904 1.1997651271522045 L138.30385901406407 24.08237413689494 L-0.09303794428706169 26.5903913192451" stroke="none" stroke-width="0" fill="white"></path><path d="M1.6953291110694408 -0.7684795670211315 C35.922099808269564 0.05393904567543362, 68.66929820932711 -0.352078853837811, 135.82211808487773 -1.6590186171233654 M0.263849088922143 0.25937136076390743 C51.364618266509936 -1.7831484685718169, 102.78967676599714 -1.2588800202190031, 135.69402779079974 -0.7056040558964014 M136.61063603684306 0.8910407014191151 C135.8232911590836 9.018621908151545, 137.17135427038883 12.513775899307804, 134.66910759732127 26.99673654511571 M137.20259321667254 -0.7439317498356104 C136.06167652696604 7.411063885665499, 136.54583188385004 12.601969173876569, 135.4750666115433 25.44431205652654 M135.25575176998973 24.897595424205065 C94.7951480439944 23.367224911783488, 54.82152475623151 25.732500652406962, -1.1946458406746387 26.875624794512987 M136.72006697393954 24.856805285438895 C89.7775454516559 25.547150281539288, 42.52955250908417 23.873577085604992, -0.6900062467902899 26.33346118591726 M1.7809448651969433 25.614587921649218 C1.2283797014155424 15.780594630516134, 0.4275856960215606 8.632777639431879, 0.21315757557749748 1.329330701380968 M0.050706395879387856 25.273435493931174 C-0.22740255087846892 18.35946936684195, 0.09747775107389314 10.812345509650184, -0.877301624044776 -0.22669426538050175" stroke="#000000" stroke-width="1" fill="none"></path></g><g transform="translate(495.205078125 319.36328125) rotate(0 47.5 12.5)"><text x="47.5" y="18" font-family="Virgil, Segoe UI Emoji" font-size="20px" fill="#000000" text-anchor="middle" style="white-space: pre;" direction="ltr">CPU Limit</text></g><g transform="translate(621.56640625 319.0390625) rotate(0 24.462890625 12.1484375)"><path d="M0.8311336226761341 -0.34889980033040047 L47.18351950123906 -0.7168744392693043 L48.67972328141332 22.832673352211714 L1.5222596116364002 25.290588300675154" stroke="none" stroke-width="0" fill="white"></path><path d="M0.18777767941355705 0.21636297181248665 C12.857789938501812 0.4162006583483162, 24.90931388582249 1.1941961255342903, 50.85273651406169 0.05755152180790901 M0.7022656891494989 -0.9329190645366907 C9.019031569605431 0.7375631561608316, 20.551810404773278 0.2472785344452859, 49.03822518326342 -0.21889744140207767 M47.68281940743327 0.9888974614441395 C47.78305582366447 7.463783788305591, 47.69649521670799 11.41781516521587, 47.632732313126326 23.53164317086339 M49.4845042321831 0.11707296036183834 C48.03458408059523 9.870226593178815, 49.40957424582884 19.124988120893253, 49.019325802102685 23.785949548706412 M48.69258205220103 23.538398046046495 C38.12450410665406 23.03582029750578, 29.951365583714505 24.266261748578472, 0.3853347711265087 24.791612047702074 M49.0955944750458 23.35106118582189 C31.31733848898511 25.086742486584626, 12.726897215448837 25.46819629870697, -0.5822819378226995 24.965454360470176 M-1.6717283315956593 24.298580545932055 C-1.7449905720495735 13.159372469599475, -0.10687313945527421 5.021037958940724, 0.7725311927497387 -1.1467947773635387 M-0.6479962971061468 24.867617389187217 C0.5158818288895418 18.714711630294914, 0.19717311106651325 12.167783883487571, -0.1669276263564825 0.2365481462329626" stroke="#000000" stroke-width="1" fill="none"></path></g><g transform="translate(638.529296875 318.6875) rotate(0 7.5 12.5)"><text x="7.5" y="18" font-family="Virgil, Segoe UI Emoji" font-size="20px" fill="#000000" text-anchor="middle" style="white-space: pre;" direction="ltr">2</text></g><g transform="translate(476.8671875 359.05859375) rotate(0 65.888671875 14.30078125)"><path d="M-1.3251254372298717 -1.1299805231392384 L130.48751129582524 -1.5023954696953297 L133.6456260867417 28.4582393579185 L1.6486085839569569 28.586518686264753" stroke="none" stroke-width="0" fill="white"></path><path d="M-1.8916276283562183 1.2427516169846058 C33.29447246345444 0.297730851624874, 66.48854908724752 -1.3883392329469644, 133.11450247094035 1.9886185117065907 M0.0008527729660272598 -0.8357961568981409 C42.79776597422097 1.0847421544454847, 87.09511595831283 1.4877451914213453, 131.20394636131823 -0.4653490576893091 M132.91882852837443 0.6117369122803211 C133.01530961747034 6.082572928770969, 132.23827354664667 11.882651651560446, 132.25044004246593 29.432696122676134 M131.65431476570666 -0.7321008238941431 C132.28931651432546 8.578371428068204, 131.29555515368017 16.80524649680301, 132.23131925798953 28.45330866239965 M131.97593919560313 27.00231720879674 C95.83178262340152 28.79777239746436, 64.17778031755734 28.03192173427924, 1.5752928666770458 29.56352986767888 M132.5597241614014 28.886401256546378 C97.4491222616889 27.669574403801015, 63.32638390262582 29.561991655864766, -0.018108000978827477 28.510247251018882 M-1.4997145719826221 27.87945832684636 C-0.8469386372504232 18.505922219481725, -0.32019510602331136 12.014607334040917, 0.0635482482612133 -0.4625081829726696 M-0.8961392547935247 29.063594361767173 C0.9574732642479649 23.007965465985762, 0.75389973929603 16.207484504164313, -0.4212275054305792 0.9270853605121374" stroke="#000000" stroke-width="1" fill="none"></path></g><g transform="translate(480.755859375 360.859375) rotate(0 62 12.5)"><text x="62" y="18" font-family="Virgil, Segoe UI Emoji" font-size="20px" fill="#000000" text-anchor="middle" style="white-space: pre;" direction="ltr">Mem Request</text></g><g transform="translate(618.2734375 363.1484375) rotate(0 27.3671875 12.306640625)"><path d="M0.345218937844038 0.0633486695587635 L56.6380032710731 -1.9597270302474499 L52.75089792534709 24.191410679370165 L-0.11431487277150154 26.520057696849108" stroke="none" stroke-width="0" fill="white"></path><path d="M-0.03621600195765495 -0.1826304979622364 C11.279244550145814 0.5962482634824118, 20.24828862886061 -1.9970872458178202, 54.01227082684636 -0.6905422993004322 M0.03177412413060665 -0.2312540914863348 C12.359409747770407 -1.1078286808574922, 27.272332465526418 -1.2436112207020051, 55.19640686176717 0.7399993631988764 M53.89191998913884 1.8541707210242748 C53.54128156303552 7.507462207576465, 53.57657454609063 15.772489991736077, 56.602657336741686 24.4699581079185 M54.965940495952964 -0.10194485448300838 C53.75245286260957 8.41772836129021, 54.36090595756883 18.469942852087843, 54.27109714411199 23.727899679914117 M53.31748105958104 25.725883286446333 C38.11595593167876 25.822429190679976, 24.160055346012808 25.410802970930526, 1.8790675587952137 25.08341185376048 M54.374264201149344 23.70490993000567 C33.73978399901243 24.93789205607347, 13.447304758179229 23.348645008172316, 0.17388763092458248 24.34311361052096 M-1.5836294703185558 25.235119502991438 C0.7666188595291896 14.71838124755377, -0.9338745954039769 4.998682024098525, -0.7755639366805553 -1.2467875070869923 M-0.0626517329365015 24.35148067213595 C0.8007970995945652 16.706459110939612, 0.5762767143292149 9.10484308258019, -0.5962592754513025 -0.031485309824347496" stroke="#000000" stroke-width="1" fill="none"></path></g><g transform="translate(623.89453125 362.697265625) rotate(0 22 12.5)"><text x="22" y="18" font-family="Virgil, Segoe UI Emoji" font-size="20px" fill="#000000" text-anchor="middle" style="white-space: pre;" direction="ltr">1 GB</text></g><g transform="translate(480.453125 401.91796875) rotate(0 64.37890625 12.1953125)"><path d="M-1.0069576315581799 1.1481670551002026 L127.9297292418778 -0.4069528169929981 L128.7383834309876 22.530034702271223 L-0.5542616657912731 25.625755589455366" stroke="none" stroke-width="0" fill="white"></path><path d="M0.016025107353925705 1.547957081347704 C29.492635992083528 -0.4609379734525283, 56.46049977598305 0.6292637620439927, 130.23356191441417 -0.10001681372523308 M0.37715507484972477 -0.347381928935647 C38.72326293109654 -1.0074961342957978, 78.00492719908652 -1.0237264194634919, 128.91793520189822 -0.7170566711574793 M130.00642434880137 -0.2574465088546276 C129.54210242903412 9.747929916149587, 127.55001279986084 19.24185080526513, 129.10303143784404 24.453973669558764 M128.54687721468508 -0.05715743638575077 C129.4722058879389 8.641654591597035, 129.0941194998278 19.672335744946032, 128.6095784995705 24.987190267071128 M129.90351228043437 24.464726347476244 C80.75014878138171 23.650972545273397, 30.968653415873987 22.341813624031637, 1.7081691436469555 23.423357982188463 M128.9930218551308 24.18140651844442 C84.16100447218196 23.921004206260406, 38.61525150878879 24.665306300243103, 0.8867873642593622 24.50348516367376 M0.3458387069404125 26.37084772065282 C-0.5924054056833847 17.604719735131948, 0.5037083953191177 9.106677229347405, -1.7226314134895802 -1.140960555523634 M-0.07536559365689754 24.418053587898612 C-0.11376788206311172 15.272368938327418, -0.5489564735433669 8.121517281309934, -0.2816271688789129 -0.42506895400583744" stroke="#000000" stroke-width="1" fill="none"></path></g><g transform="translate(499.33203125 401.61328125) rotate(0 45.5 12.5)"><text x="45.5" y="18" font-family="Virgil, Segoe UI Emoji" font-size="20px" fill="#000000" text-anchor="middle" style="white-space: pre;" direction="ltr">Mem Limit</text></g><g transform="translate(622.00390625 403.6796875) rotate(0 28.029296875 11.93359375)"><path d="M0.49581124261021614 1.30449203774333 L57.19374765828252 -0.9856932945549488 L55.65757228806615 22.160198491066694 L1.9335497803986073 22.24863712117076" stroke="none" stroke-width="0" fill="white"></path><path d="M0.3458387069404125 1.9802227206528187 C15.43636228387113 0.6977315938534593, 32.63788973653427 -0.7929802143511916, 54.33596233651042 -1.140960555523634 M-0.07536559365689754 0.027428587898612022 C18.765443015847268 -0.7535758399478072, 37.09033098631335 0.2579248166569596, 55.77696658112109 -0.42506895400583744 M55.651640933007 -0.019429069012403488 C54.33502104419822 5.404232254360977, 57.430741931382364 12.905671440283186, 56.80464832112193 24.667390126734972 M56.103494653478265 -0.5884882006794214 C55.051054336840025 4.9105645897871, 55.205753364378324 11.854096368901082, 55.89931781031191 23.45830281637609 M54.67040626332164 22.669018048793077 C34.32552806534004 25.047346593689507, 14.542581477465866 24.460252644371575, 0.6629331521689892 24.31337584927678 M56.38317925669253 23.93418105505407 C33.599313643897034 22.9270563226127, 11.05257914987596 24.662834475555357, -0.6484416630119085 22.93967225216329 M-1.0179092474281788 24.36990489438176 C-1.4835982890108426 17.37429877778777, -1.7706212372759182 11.540699039367608, 1.3071791343390942 -1.1560063175857067 M0.5957805011421442 24.787758132442832 C0.6663935537340876 18.943414991714235, -0.14702036428425344 13.366670956820597, 0.514608571305871 0.6703455056995153" stroke="#000000" stroke-width="1" fill="none"></path></g><g transform="translate(622.533203125 403.11328125) rotate(0 27.5 12.5)"><text x="27.5" y="18" font-family="Virgil, Segoe UI Emoji" font-size="20px" fill="#000000" text-anchor="middle" style="white-space: pre;" direction="ltr">3 GB</text></g><g transform="translate(476.55859375 442.7421875) rotate(0 79.099609375 14.0859375)"><path d="M-1.395354826003313 0.8271939940750599 L159.68050674721601 -0.7470863871276379 L159.59222571179274 30.01092769578099 L0.9126780442893505 28.053750891238447" stroke="none" stroke-width="0" fill="white"></path><path d="M-1.8852666430175304 0.29387490078806877 C53.02247965202042 -0.9648853718245665, 103.0778280283572 -0.05749227394706402, 159.27498700097206 0.4092426709830761 M0.3639503922313452 0.24938339926302433 C35.99988877538054 0.6841485819686934, 71.0336752878022 1.3452734670509383, 158.3645759429783 -0.04293774627149105 M157.91345574334267 1.9339056424796581 C157.98173817227337 8.058337554128958, 158.8192200286195 12.771190333698177, 157.09716596081856 26.981688421219584 M158.35308845900002 -0.5552768614143133 C158.42474875755408 9.547896973390015, 157.6751677186022 17.682574485562508, 157.64468958042565 28.494330475106832 M158.74756707623604 29.49393073841929 C123.5848045173909 30.1159948822845, 87.99762255546958 30.149189066587784, -0.7511987499892712 27.057014267891642 M158.99564411304894 28.420574733987447 C107.31371506934593 27.353611397375275, 55.4308792721029 27.27867900096338, -0.0893206987529993 28.57242549397051 M1.6796894259750843 28.460156243294474 C-0.5417632503874483 18.018300404420003, 0.4244341210954008 6.1392306678404545, 1.8042336888611317 0.1643950156867504 M-0.6898889932781458 28.540280470624563 C-0.4466463782059146 19.516921942520998, -0.24465499894489773 12.0789000995981, -0.5084143672138453 0.3300802204757929" stroke="#000000" stroke-width="2" fill="none"></path></g><g transform="translate(481.169921875 445.265625) rotate(0 73.5 12.5)"><text x="73.5" y="18" font-family="Virgil, Segoe UI Emoji" font-size="20px" fill="#000000" text-anchor="middle" style="white-space: pre;" direction="ltr">Response times</text></g><g transform="translate(475.15234375 490.44140625) rotate(0 187.322265625 50.572265625)"><path d="M0.14816071465611458 -0.13414283469319344 L375.4357577748597 1.2955815009772778 L373.6591649241746 100.52661732956767 L0.6771468110382557 99.69824687764049" stroke="none" stroke-width="0" fill="white"></path><path d="M-0.32232742764450417 -1.0550516028641697 C146.30441459681106 -0.7812234659560703, 291.7964510362275 -2.555929814550131, 374.40868872102027 -0.7997600195419283 M0.39440052983255497 -0.24227988398611838 C112.27485874288811 -0.2721047038148388, 224.0522701185078 0.17050238015277835, 374.17229770511244 -0.06721375953068108 M374.16808418557054 1.423752922564745 C376.1523706487653 23.468352432846586, 372.2433918289182 49.159089180677256, 375.4944924525917 101.62174155190587 M373.745526323095 0.13317336700856686 C375.86897353505435 27.691577053086803, 375.6085419473583 55.8009050403125, 374.20220763422554 101.7412741985172 M375.4332144472899 102.27715470937449 C286.1502876625785 101.22642518127606, 197.3010771439124 99.05291940758676, 0.3319723315931951 100.15159296012342 M374.1722861280068 101.7362320146665 C242.35198697668253 102.72360330322944, 111.45797821736362 102.92103066166952, 0.46208235805003967 100.74050740534327 M-1.0716564245522022 99.21726169064641 C0.20645479647042508 77.92067763640588, -0.7141741088259006 49.22945933533919, 0.5401140861213207 -0.15294883772730827 M0.06880582310259342 100.47041823528707 C-0.2096567261609743 66.08701899781082, 0.7825018655863096 31.140164178669508, -0.6893985774368048 0.041268547996878624" stroke="#000000" stroke-width="1" fill="none"></path></g><g><g transform="translate(493.9296875 570.5703125) rotate(0 176.215429905816 -34.65451815189948)"><path d="M-0.7962675802409649 -0.6323658116161823 C3.9234713084995745 -5.933915333698193, 20.277825396011274 -31.617262264837823, 28.83006372526288 -30.898605335503817 C37.38230205451449 -30.17994840616981, 37.057562971860165 7.652943828950326, 50.51716239526868 3.679575764387846 C63.97676181867719 -0.29379230017463387, 96.46940580283602 -54.82798609410723, 109.58766026571394 -54.738813722878696 C122.70591472859185 -54.64964135165016, 120.95486593320966 2.003904671718677, 129.22668917253614 4.214609991759062 C137.4985124118626 6.425315311799446, 138.6960804072519 -33.383130292842786, 159.2185997016728 -41.474581802636386 C179.74111899609366 -49.56603331242999, 233.70838939423362 -50.310420740395784, 252.36180493906141 -44.33409906700253 C271.0152204838892 -38.35777739360928, 254.58877368842562 -0.9382287152111521, 271.13909297063947 -5.616651762276888 C287.68941225285334 -10.295074809342623, 338.0327817924321 -61.47173813655973, 351.6637206323445 -72.40463734939695 M0.9865532107930632 1.6500381919462233 C5.562120055435225 -3.5702520029029494, 20.162496500589576 -30.078373165655258, 28.23371968614869 -29.621717416672034 C36.3049428717078 -29.16506166768881, 35.77326961326413 8.908231039416666, 49.413892324147746 4.389972685845569 C63.054515035031365 -0.12828566772552907, 97.02834222354305 -56.66802214496148, 110.07745595145039 -56.73126753809862 C123.12656967935773 -56.79451293123576, 119.86465514766984 1.6490758790293083, 127.70857469159178 4.010500327022746 C135.55249423551373 6.3719247750161845, 136.20542849876296 -34.29140496266695, 157.14097321498207 -42.56272085013799 C178.07651793120118 -50.83403673760903, 234.50180231181596 -51.72547612431459, 253.32184298890644 -45.617394997803494 C272.14188366599694 -39.5093138712924, 253.4103365436972 -1.2076418987195927, 270.061217277525 -5.914234091071412 C286.71209801135274 -10.62082628342323, 339.2490006564837 -62.99095150056296, 353.22712739187295 -73.85694815191441" stroke="#000000" stroke-width="1" fill="none"></path></g></g></svg>