<svg version="1.1" xmlns="http://www.w3.org/2000/svg" viewBox="0 0 992.0078125 311.3947884051595">
  <!-- svg-source:excalidraw -->
  <defs>
    <style>
      @font-face {
        font-family: "Virgil";
        src: url("https://excalidraw.com/FG_Virgil.woff2");
      }
      @font-face {
        font-family: "Cascadia";
        src: url("https://excalidraw.com/Cascadia.woff2");
      }
    </style>
  </defs>
  <rect x="0" y="0" width="992.0078125" height="311.3947884051595" fill="#ffffff"></rect><g transform="translate(10 84.22265625) rotate(0 128.7109375 26.826171875)"><path d="M1.0249580431143868 0.6935345495675481 C70.24232858286007 1.5347818538834135, 138.74047223363667 1.0999717013855967, 256.9178251960395 -0.4171933529217824 M0.5411298856791079 0.01989305371821689 C83.76588483015544 -1.5087292725058845, 167.26069155880077 -1.23444385945804, 257.3354887575891 -0.6497814179594011 M258.3703583665192 0.24058524891734123 C259.19628940393704 20.70594060505755, 257.3522183733203 42.09650882130518, 255.97425367310643 55.52327327057719 M258.0233292784542 0.7994752619415522 C257.0940059704855 15.31769713366157, 257.8616234941557 30.110159499156, 258.290354212746 54.012422213330865 M256.11641226439673 53.29234894514928 C198.20240698381986 55.095815813135445, 134.9684200587731 55.251691686279784, 1.2209434931472953 53.407031463092274 M257.5356348751335 53.44601869419104 C172.63673985472076 52.73377615958608, 87.13363343940368 52.03151978743774, -0.2913032759595189 53.89002653306257 M0.8290740437805653 53.885511081665754 C-0.9706233630797214 41.94875152021632, -0.6344652066847629 27.435007553249303, -1.7216555885970592 1.9630828313529491 M-0.3234697375446558 53.444642731919885 C-0.24270578784962704 38.52006480793716, -0.5316945569040399 20.724341635541343, 0.4338925685733557 0.42817760445177555" stroke="#000000" stroke-width="1" fill="none"></path></g><g transform="translate(78.7109375 98.548828125) rotate(0 60 12.5)"><text x="60" y="18" font-family="Virgil, Segoe UI Emoji" font-size="20px" fill="#000000" text-anchor="middle" style="white-space: pre;" direction="ltr">example.com</text></g><g transform="translate(69.14453125 167.40234375) rotate(0 111.001953125 25.82421875)"><path d="M1.295394952729562 -0.38293736630199177 C75.96884753229189 -0.7391008756730638, 153.30283664333874 0.7224692073740822, 222.9914245394043 0.639105360611015 M0.7653767761779072 -0.19409743498861792 C58.65142511681608 0.2516195453718531, 119.20967951435189 0.36147586194963754, 221.14557819829966 0.7655040379088169 M221.94781986996531 0.6543493457138538 C219.92655122382814 21.26932396436896, 220.99461937053377 42.0830481252604, 220.0764627866447 52.025017876178026 M222.2065677139908 0.6715283002704382 C220.88687607558896 20.223239056744205, 221.02308335813214 41.51538827452168, 222.3238687608391 52.558798214420676 M220.8403111819546 53.3647618436363 C154.6338831110411 53.32632658947163, 86.22329953610144 54.557364679300726, -0.6800780099022465 53.094946777406385 M222.60153884693406 52.00926319120899 C143.14283021795055 53.12784907691976, 64.39968068465576 52.963739120422446, 0.7517034807055754 50.990281563832546 M-0.30653103068470955 51.08905531838536 C-1.982632685930148 40.17900025895942, 0.9397521722012607 26.012860757394808, 1.4553745202720165 0.38346805050969124 M-0.8379086758941412 50.95874341391027 C-0.08209672403972945 40.80342237234436, -0.8118295354906877 28.543691159269656, 0.33391583897173405 0.45146300457417965" stroke="#000000" stroke-width="1" fill="none"></path></g><g transform="translate(102.646484375 180.7265625) rotate(0 77.5 12.5)"><text x="77.5" y="18" font-family="Virgil, Segoe UI Emoji" font-size="20px" fill="#000000" text-anchor="middle" style="white-space: pre;" direction="ltr">dev.example.com</text></g><g transform="translate(71.08984375 243.6015625) rotate(0 108.80078125 26.2421875)"><path d="M-0.09205772492456857 0.006252716150839173 C54.525339604631554 1.0229424316201599, 112.0225031245688 0.20033756042622897, 218.25463179738364 0.3300626560751348 M0.443516069386534 0.03193813863172731 C63.7026754305349 -0.21855167342642082, 126.19663592277645 0.3972850928055349, 217.78486251616155 0.6749379535585592 M218.9360546283424 1.2695272155106068 C218.96663370434806 20.138544346098207, 215.87871887986228 39.617199690797136, 216.62018613144755 52.4656886048615 M218.13684112764895 0.43463524244725704 C217.87867427269782 20.077765417812042, 216.95182079474296 42.89846784354304, 216.6157411430031 51.901651402935386 M219.32052642592598 53.525801447982076 C166.67145078015298 55.97590639704996, 116.14522389718775 54.83961308232583, 0.8190748740026436 52.73850001910776 M217.31560026622924 51.860024169773496 C135.30211157439527 50.7535776586532, 54.025887039996086 51.08950602539038, -0.06540964729112297 52.020395466452804 M-1.9225290603935719 54.08410074189305 C0.46078539141773944 39.572236507121126, 0.5470114971077419 29.199551502085523, -1.1456622667610645 1.7367211766541004 M-0.6852307822555304 51.70928474329412 C-0.29854519166838145 32.43941678687406, -0.2629696229923866 14.635084948007716, 0.5833001229912043 0.48023690842092037" stroke="#000000" stroke-width="1" fill="none"></path></g><g transform="translate(96.390625 257.34375) rotate(0 83.5 12.5)"><text x="83.5" y="18" font-family="Virgil, Segoe UI Emoji" font-size="20px" fill="#000000" text-anchor="middle" style="white-space: pre;" direction="ltr">prod.example.com</text></g><g transform="translate(399.3515625 10) rotate(0 35.705078125 35.029296875)"><path d="M36.13701869919896 -1.9703709669411182 C43.21520417871172 6.373448910561638, 50.04558340859105 13.034804598984557, 71.18461288884282 36.79641358181834 M35.39053984545171 0.748879799619317 C45.5328094572296 10.153710005964603, 57.29008621895715 20.647310586805908, 71.4863440003246 35.65889591909945 M73.32457699254155 35.0036632232368 C60.89062608886837 48.80441002360931, 47.33273408365079 60.32473215362807, 35.91113068535924 68.24790672585368 M72.33421625755727 35.30062479712069 C60.68212710040177 47.17738868894485, 48.40384671646177 57.68504395173696, 35.76304920576513 70.20680523850024 M34.317909974604845 69.89097790047526 C24.94239774370719 57.539157632012945, 11.978057865297089 48.79393048104103, 0.7609280534088612 34.75806609913707 M35.33810957334936 69.94580889679492 C27.60649481344699 63.00590171470438, 20.007914669846286 55.41836012555549, 0.7976641859859228 36.047921726480126 M0.48432721570134163 34.959029119461775 C7.009697931632401 26.625088432207704, 16.989731784537437 20.495432615801693, 36.948970813304186 -0.2298709936439991 M0.8953228201717138 36.12785250879824 C10.01830153360963 25.805959158986802, 20.814098712503913 14.66421185344457, 36.91727634333074 -0.15363108180463314" stroke="#000000" stroke-width="1" fill="none"></path></g><g transform="translate(409.556640625 32.529296875) rotate(0 25.5 12.5)"><text x="25.5" y="18" font-family="Virgil, Segoe UI Emoji" font-size="20px" fill="#000000" text-anchor="middle" style="white-space: pre;" direction="ltr">/404</text></g><g><g transform="translate(272.84375 112.390625) rotate(0 66.223590607564 -27.242679058760416)"><path d="M1.0389990918338297 0.7251619108021259 C23.083055801441272 -8.322523211687804, 110.56034195745984 -45.87894437238574, 132.3218463294208 -55.21052002832293 M0.12533488570712503 0.06026796863414341 C22.031765704046315 -8.756814563712107, 109.77723074117367 -44.94046572341584, 131.52636393873954 -54.001000604471194" stroke="#000000" stroke-width="1" fill="none"></path></g><g transform="translate(272.84375 112.390625) rotate(0 66.223590607564 -27.242679058760416)"><path d="M110.61262535496495 -33.253356910954025 C115.26186455197985 -40.8107012833726, 121.91496116948251 -45.033539804645244, 132.2928893674817 -53.05202979116701 M110.33486875153027 -32.84236130648365 C115.92472165239688 -40.116864301493024, 122.93544982709648 -45.78224309021459, 131.75583747929895 -53.08372426114045" stroke="#000000" stroke-width="1" fill="none"></path></g><g transform="translate(272.84375 112.390625) rotate(0 66.223590607564 -27.242679058760416)"><path d="M102.76326137981664 -52.21403958778514 C109.65886334942742 -54.06027864258992, 118.70438466682057 -52.504049495901675, 132.2928893674817 -53.05202979116701 M102.48550477638196 -51.803043983314765 C110.33021026313702 -53.64329393316701, 119.60553057555906 -53.83839346719383, 131.75583747929895 -53.08372426114045" stroke="#000000" stroke-width="1" fill="none"></path></g></g><g><g transform="translate(292.8359375 198.65234375) rotate(0 62.34892380021046 -62.804563485831025)"><path d="M0.8374931685626505 1.0327396877110002 C21.737029563635588 -20.23161082987984, 104.5126542918384 -105.59306408489745, 124.87980924770235 -126.64186665937305 M-0.18196164728142317 0.5293240784201769 C20.690354988267647 -20.68003841582996, 103.50090353547596 -104.20382445687117, 124.4449331703689 -125.5049956230726" stroke="#000000" stroke-width="1" fill="none"></path></g><g transform="translate(292.8359375 198.65234375) rotate(0 62.34892380021046 -62.804563485831025)"><path d="M113.65471580387651 -96.60935726398831 C113.6613054021887 -106.7666161339504, 119.17826375125591 -110.3900039435177, 125.3042464609351 -125.59314670174382 M112.12809055620431 -98.33668764876431 C117.20933766723854 -107.7565828044514, 121.36507282075618 -117.41129943413094, 123.60264790422283 -125.45707775971852" stroke="#000000" stroke-width="1" fill="none"></path></g><g transform="translate(292.8359375 198.65234375) rotate(0 62.34892380021046 -62.804563485831025)"><path d="M99.05525197147026 -111.0307184408017 C102.9256658618981 -117.58527220418435, 112.19297204619296 -117.50406364696958, 125.3042464609351 -125.59314670174382 M97.52862672379806 -112.7580488255777 C107.49982336962951 -117.28459198513553, 116.66265010395604 -121.99329984619543, 123.60264790422283 -125.45707775971852" stroke="#000000" stroke-width="1" fill="none"></path></g></g><g><g transform="translate(292.828125 300.359375) rotate(0 76.27428665093612 -109.87626016258727)"><path d="M0.5610607735812665 -1.0353984586894511 C25.96752237007022 -37.85007017379006, 127.8886831395328 -184.38815077866116, 153.15209435150027 -220.78793373033403 M-0.6035210496280343 1.0354134051594883 C24.607090893080457 -35.63789594654305, 126.4755194032099 -182.50486682111088, 152.3515742036607 -219.57599009378814" stroke="#000000" stroke-width="1" fill="none"></path></g><g transform="translate(292.828125 300.359375) rotate(0 76.27428665093612 -109.87626016258727)"><path d="M142.95543587004437 -190.10483132656628 C146.3807365208237 -202.24985527968596, 151.39423633505362 -210.1865114560195, 150.79219264044426 -220.48342811494135 M143.91365393606617 -189.9605663882565 C148.08845580003992 -200.53273262006238, 150.9256388434854 -210.09052072893826, 153.2895735210832 -219.41093879184686" stroke="#000000" stroke-width="1" fill="none"></path></g><g transform="translate(292.828125 300.359375) rotate(0 76.27428665093612 -109.87626016258727)"><path d="M126.10732975101234 -201.82068906672663 C135.5983491684659 -209.83329483007572, 146.6677951072001 -213.55875938786767, 150.79219264044426 -220.48342811494135 M127.06554781703414 -201.67642412841684 C137.21928347628946 -208.04483810875476, 146.0032422173212 -213.46734967121446, 153.2895735210832 -219.41093879184686" stroke="#000000" stroke-width="1" fill="none"></path></g></g><g transform="translate(403.0078125 182.49609375) rotate(0 56.42578125 33.912109375)"><path d="M57.82506575062871 -1.2511514015495777 C76.50322292624362 9.216820283413545, 91.98877125822648 23.740015202567594, 112.89448382332921 33.85519842430949 M56.23065080307424 0.744915196672082 C69.0078366896711 7.026321981674847, 81.71996591031842 13.939159661731537, 113.53804667852819 33.277781734243035 M111.47496916726232 32.463235419243574 C96.33004209786792 44.11180787923339, 81.31312370746215 51.38770789313028, 57.522433657199144 66.21928540989757 M111.89832433126867 34.24035716988146 C95.42658328712896 43.81135182798316, 76.94802751714197 54.75155090238768, 56.82994773052633 67.23111898638308 M57.150007624179125 68.84224550053477 C38.550188660842906 54.112703316297114, 17.83818823959453 45.48384184476308, 0.13364841416478157 33.342600148171186 M57.87883927486837 68.27485592104495 C44.66269881258362 60.10444352219885, 30.705437739553087 51.79343622911866, -0.10785130597651005 33.90960920788348 M-1.798134308308363 32.25880364701152 C20.15673939935863 20.721106524039058, 44.18632676113398 7.859710070136931, 56.78684391453862 -1.257401306182146 M-0.49681071378290653 34.45003498531878 C16.454078295081857 23.220326105710118, 33.842118855006994 13.366246243398635, 56.811502596363425 -0.9581709410995245" stroke="#000000" stroke-width="1" fill="none"></path></g><g transform="translate(418.93359375 203.908203125) rotate(0 40.5 12.5)"><text x="40.5" y="18" font-family="Virgil, Segoe UI Emoji" font-size="20px" fill="#000000" text-anchor="middle" style="white-space: pre;" direction="ltr">/articles</text></g><g><g transform="translate(294.984375 184.7109375) rotate(0 60.135124529153074 7.308706321241317)"><path d="M-0.4837017528712749 0.8326871506869791 C19.816076350957154 3.1154172611733273, 100.58032398298383 10.88838365400831, 120.75395081117749 12.922887598723173 M1.4632160975318405 0.22424395945854503 C21.647512667058038 2.7678317667761196, 99.24715645509772 12.038645063710089, 119.51266702341847 14.393168683024124" stroke="#000000" stroke-width="1" fill="none"></path></g><g transform="translate(294.984375 184.7109375) rotate(0 60.135124529153074 7.308706321241317)"><path d="M91.70045982496072 20.344032470376476 C96.36170762031944 18.669840018930326, 102.77427038266646 19.82720744223398, 119.45273469093256 13.39954725545831 M90.29204933726419 20.961380871252402 C100.22311787135055 18.125950380163843, 110.61622621215075 16.180848492052665, 120.46597395728342 13.4721732780803" stroke="#000000" stroke-width="1" fill="none"></path></g><g transform="translate(294.984375 184.7109375) rotate(0 60.135124529153074 7.308706321241317)"><path d="M94.1084442188423 -0.03540848232539595 C98.12557407636147 2.6202947199645275, 104.02538020277802 8.117264015939314, 119.45273469093256 13.39954725545831 M92.70003373114577 0.5819399185505301 C101.72672385893613 4.7623628027000215, 111.289069159437 9.84823934139482, 120.46597395728342 13.4721732780803" stroke="#000000" stroke-width="1" fill="none"></path></g></g><g transform="translate(538.78125 116) rotate(0 126.94140625 26.8671875)"><path d="M130.2508666829219 0.7461850983660447 C146.13364105300698 0.6094899502781838, 164.32357014274604 1.8656143218397407, 179.57047604168656 3.165326416900971 C194.8173819406271 4.465038511962201, 210.442353360729 5.965844935101979, 221.73230207656502 8.544457668733425 C233.02225079240105 11.123070402364872, 241.93913535525496 15.284696472176336, 247.31016833670282 18.637002818689652 C252.68120131815067 21.989309165202968, 255.37368383700937 24.954080040811633, 253.95849996525223 28.658295747813327 C252.5433160934951 32.36251145481502, 247.08402037397315 37.612490792876244, 238.81906510615997 40.86229706069981 C230.5541098383468 44.112103328523375, 217.8916505670943 46.01602691833071, 204.3687683583732 48.157133354754734 C190.84588614965207 50.29823979117876, 174.21375592581907 52.987557122886145, 157.68177185383325 53.70893567924394 C141.14978778184744 54.43031423560174, 121.95602326527262 53.3201308217609, 105.17686392645824 52.48540469290154 C88.39770458764386 51.65067856404218, 70.9852672567026 50.591687354990285, 57.00681582094698 48.7005789060878 C43.028364385191374 46.80947045718531, 30.384392765298024 43.86290892229583, 21.306155311924584 41.13875399948664 C12.227917858551143 38.41459907667745, 5.395198992743156 35.916211099197284, 2.53739110070633 32.35564936923266 C-0.3204167913304965 28.795087639268033, 0.28433041668908965 23.381459905948255, 4.159307959703625 19.775383619698893 C8.034285502718161 16.16930733344953, 15.658252007014092 13.446222894575547, 25.78725635879354 10.719191651736484 C35.91626071057299 7.992160408897421, 50.01159736722877 5.195388360979883, 64.93333407038033 3.4131961626645193 C79.85507077353189 1.631003964349156, 102.94465523162197 0.49633952681183463, 115.31767657770291 0.026038461844304805 C127.69069792378386 -0.444262603123225, 133.53073682171566 0.5338970672863296, 139.17146214686602 0.5913897728593405 C144.81218747201638 0.6488824784323514, 149.22980270353125 -0.12354069662879691, 149.16202852860502 0.37099469528236995 M176.98203354146446 1.2382287621305217 C192.57095210032645 2.1132508060911754, 207.815087271444 5.183009981512228, 219.4608254795291 7.902668579074469 C231.10656368761417 10.622327176636709, 241.14782487977573 14.277130192611862, 246.85646278997498 17.556180347503968 C252.56510070017424 20.835230502396072, 254.65498594706472 24.183819667246944, 253.71265294072458 27.576969508427105 C252.77031993438445 30.970119349607266, 248.93743451063338 34.523666312452605, 241.20246475193417 37.915079394584936 C233.46749499323496 41.30649247671727, 220.77292237489655 45.37909243040119, 207.30283438852928 47.92544800122107 C193.832746402162 50.471803572040955, 176.88857473469096 52.13041442597953, 160.3819368337306 53.193212819504254 C143.87529893277025 54.25601121302898, 124.67408282310433 54.74988932709494, 108.26300698276708 54.3022383623694 C91.85193114242983 53.85458739764386, 75.96157151465704 52.50993419173393, 61.915481791707094 50.507307031151015 C47.86939206875714 48.5046798705681, 34.07035457427627 45.576013732184656, 23.986468645067376 42.28647539887191 C13.902582715858477 38.99693706555916, 4.853988612675094 34.473919816759576, 1.4121662164536986 30.77007703127454 C-2.0296561797676964 27.0662342457895, -0.5133464358693209 23.44210812979507, 3.335534267739007 20.06341868596167 C7.184414971347335 16.684729242128267, 14.685986538501998 13.1989207556424, 24.505450438103665 10.497940368274127 C34.32491433770533 7.796959980905855, 47.99672957879732 5.668713829853158, 62.25231766534901 3.8575363617520324 C76.50790575190071 2.0463588936509067, 93.16605191536183 0.2177608246005338, 110.03897895741382 -0.3691244403326266 C126.9119059994658 -0.956009705265787, 152.3724292188838 0.13695635294676953, 163.48987991766091 0.33622477215307 C174.60733061643802 0.5354931913593705, 174.72326544196608 0.5083964992428864, 176.7436831500765 0.8264860749051763 C178.7641008581869 1.1445756505674662, 176.337829884984 1.5926899436588293, 175.61238616632335 2.2447622261268094" stroke="#000000" stroke-width="1" fill="none"></path></g><g transform="translate(606.22265625 130.3671875) rotate(0 59.5 12.5)"><text x="59.5" y="18" font-family="Virgil, Segoe UI Emoji" font-size="20px" fill="#000000" text-anchor="middle" style="white-space: pre;" direction="ltr">articlesPage</text></g><g><g transform="translate(494.8671875 201.61328125) rotate(0 25.200745646278392 -20.54932154342532)"><path d="M0.5605509392917156 0.754390550404787 C8.952561445285877 -6.362203772117693, 42.79022815550367 -34.975351515660684, 51.00578983947635 -41.85303363725543 M-0.6042985469195992 0.10484164402820162 C7.571287201534336 -6.961223902742689, 41.260434146315475 -33.67196903878513, 50.05053013532422 -40.79421276434325" stroke="#000000" stroke-width="1" fill="none"></path></g><g transform="translate(494.8671875 201.61328125) rotate(0 25.200745646278392 -20.54932154342532)"><path d="M35.7295539278535 -15.17892558189724 C38.294144890409555 -26.259631636904906, 46.051847808378106 -34.99643022755228, 51.06784973635338 -41.75975148587488 M34.08232565522174 -14.534873789797167 C39.013994396583676 -23.08840634347328, 43.697704865997075 -31.491561888447162, 49.80675388283096 -40.1176968666073" stroke="#000000" stroke-width="1" fill="none"></path></g><g transform="translate(494.8671875 201.61328125) rotate(0 25.200745646278392 -20.54932154342532)"><path d="M22.894271760282646 -31.190656720805265 C30.12163176802475 -36.655525528422906, 42.429150001562284 -39.71652995938771, 51.06784973635338 -41.75975148587488 M21.24704348765088 -30.546604928705193 C30.34418868356967 -33.8394940109741, 39.186769919088455 -37.05455009081979, 49.80675388283096 -40.1176968666073" stroke="#000000" stroke-width="1" fill="none"></path></g></g><g transform="translate(758.01171875 23.19921875) rotate(0 103.99609375 23.41796875)"><path d="M70.94212620041856 2.120211599350938 C84.058768737463 0.7265664869471482, 101.69163563833158 -0.04342113619019489, 116.6100754576788 0.2700532984690156 C131.52851527702603 0.583527733128226, 147.51277348184402 2.0515162494252523, 160.4527651165019 4.001058207306201 C173.39275675115977 5.95060016518715, 186.2941449616968 8.908261745828423, 194.2500252656261 11.967305045754708 C202.20590556955543 15.026348345680994, 206.91791735444536 18.931869126061457, 208.18804694007784 22.355318006863918 C209.45817652571031 25.77876688766638, 207.47024241585044 29.45926629704661, 201.870802779421 32.50799833056948 C196.2713631429916 35.556730364092346, 185.7789916618534 38.46313413286592, 174.59140912150124 40.647710208001115 C163.40382658114908 42.83228628313631, 149.43708179473063 44.63343794965319, 134.74530753730792 45.61545478138065 C120.05353327988522 46.597471613108105, 101.64421942881567 47.08179822698564, 86.44076357696501 46.539811198365854 C71.23730772511435 45.99782416974607, 55.70483776933709 44.25608730348943, 43.52457242620393 42.36353260966191 C31.344307083070774 40.47097791583439, 20.490324694543045 38.01087813763641, 13.359171518166079 35.184483035400746 C6.228018341789112 32.35808793316508, 1.5816364373956922 28.815277719722868, 0.73765336794213 25.4051619962479 C-0.10632970151143206 21.995046272772935, 2.472282232397113 18.119320385580036, 8.295273101444707 14.72378869455095 C14.1182639704923 11.328257003521866, 23.463040351735167 7.305473040963731, 35.67559858222769 5.031971850073393 C47.88815681272022 2.7584706591830557, 72.01186709687491 1.8010933763664365, 81.57062248439988 1.0827815492089243 C91.12937787192485 0.36446972205141215, 92.7864712040423 0.39303243757958245, 93.02813090737749 0.7221008871283203 M130.38053436761984 0.962278121881134 C144.54674705070727 1.3539473088127512, 158.69829088211816 4.08378514370101, 170.23127350710143 6.129868574394568 C181.7642561320847 8.175952005088124, 193.43933240791083 10.181294213300363, 199.5784301175196 13.23877870604248 C205.71752782712835 16.296263198784594, 207.467639579579 20.70830637300891, 207.06585976475407 24.474775530847264 C206.66407994992915 28.24124468868562, 204.09219357239766 32.734133174070905, 197.16775122857007 35.83759365307261 C190.24330888474248 38.94105413207431, 178.14945647623694 41.11297514264838, 165.51920570178845 43.09553840485749 C152.88895492733997 45.078101667066605, 136.24342074614424 47.44781601132763, 121.38624658187922 47.73297322632726 C106.52907241761422 48.01813044132689, 90.66674154366173 45.98798210332842, 76.37616071619843 44.806481694855265 C62.085579888735126 43.62498128638211, 47.21489703007349 42.886258281985434, 35.642761617099396 40.64397077548831 C24.070626204125304 38.40168326899119, 12.72811907582378 34.269865194819715, 6.943348238353863 31.352756655872522 C1.1585774008839467 28.43564811692533, -0.2490879842750573 26.617260535331233, 0.9341365922798985 23.141319541805164 C2.1173611688348544 19.665378548279094, 6.675187669997545 13.472011072697978, 14.042695697683598 10.497110694716108 C21.41020372536965 7.522210316734238, 32.63520373691365 7.057944650877843, 45.13918475839622 5.291917273913942 C57.643165779878785 3.5258898969500407, 74.9061846195825 0.45347183658838297, 89.06658182657898 -0.09905356706729762 C103.22697903357546 -0.6515789707229782, 123.38284252242647 1.8568857969590222, 130.1015680003751 1.9767648519798584 C136.82029347832372 2.096643907000695, 130.10388748964252 0.42012709104890666, 129.37893469427075 0.6202207630577199" stroke="#000000" stroke-width="1" fill="none"></path></g><g transform="translate(809.765625 34.1171875) rotate(0 52.5 12.5)"><text x="52.5" y="18" font-family="Virgil, Segoe UI Emoji" font-size="20px" fill="#000000" text-anchor="middle" style="white-space: pre;" direction="ltr">getArticles</text></g><g transform="translate(785.7890625 208.0078125) rotate(0 98.109375 20.263671875)"><path d="M137.66111806377185 1.9182730182896854 C151.04411963077433 2.9533364080395526, 165.54609129555 5.521246047735799, 174.77968614062473 7.894018490972661 C184.01328098569945 10.266790934209522, 189.9674130776399 13.115996280753361, 193.0626871342202 16.154907677710852 C196.1579611908005 19.193819074668344, 196.8815870470636 23.123963623906448, 193.35133048010667 26.127486872717608 C189.82107391314975 29.131010121528767, 181.84838619959007 31.909871669612816, 171.88114773247872 34.17604717057781 C161.91390926536738 36.4422226715428, 147.15646902032202 38.532640605489085, 133.54789967743858 39.72453987850757 C119.93933033455514 40.916439151526056, 104.75795827790733 41.84700967079791, 90.22973167517804 41.32744280868873 C75.70150507244875 40.80787594657955, 59.041718567548045 38.494367144566844, 46.37854006106282 36.60713870585249 C33.7153615545776 34.71991026713814, 21.776325624098853 32.38422672253698, 14.250660636266687 30.004072176402623 C6.724995648434522 27.62391763026827, 2.327256130746423 25.3056403833068, 1.2245501340698297 22.326211429046367 C0.12184413739323685 19.346782474785932, 2.2655383205503155 15.018242786257183, 7.6344246562071305 12.127498450840019 C13.003310991863945 9.236754115422855, 22.400924289144413 6.879508778731861, 33.43786814801072 4.981745416543379 C44.47481200687703 3.083982054354898, 59.443009798882855 1.4261915396584488, 73.856087809405 0.740918277709131 C88.26916581992714 0.05564501575981318, 107.31539721268132 0.6340218718518079, 119.91633621114357 0.8701058448474726 C132.51727520960583 1.106189817843137, 143.42575658739042 1.6943629934015785, 149.46172180017854 2.1574221156831186 C155.49768701296665 2.620481237964659, 157.25894119068388 3.318731642064916, 156.13212748787234 3.6484605785367137 M118.7016221690167 1.339510109441541 C133.0355605898906 1.4280695738852218, 149.52398607159583 1.8374093021379527, 161.08851399821407 3.4942865194023316 C172.6530419248323 5.15116373666671, 182.174293585962 8.085224904805916, 188.08878972872617 11.280773413027815 C194.00328587149033 14.476321921249713, 197.2842962211388 19.699491261269692, 196.5754908547991 22.66757756873372 C195.86668548845944 25.635663876197746, 191.0178595193781 26.893457655338448, 183.83595753068812 29.089291257811972 C176.65405554199813 31.285124860285496, 166.0570257592334 33.945491825184234, 153.48407892265925 35.842579183574856 C140.9111320860851 37.73966654196548, 123.34349035099929 40.10314139294019, 108.39827651124328 40.471815408155706 C93.45306267148727 40.840489423371224, 77.40051624509972 38.913393158829535, 63.81279588412319 38.05462327486797 C50.22507552314665 37.19585339090641, 36.99534079806187 37.40139162435676, 26.871954345384054 35.31919610438632 C16.74856789270624 33.23700058441588, 7.043949453120867 28.552465301017687, 3.0724771680563236 25.56145015504531 C-0.8989951170082193 22.570435009072934, 0.21549180239347265 20.09460587897054, 3.0431206349967965 17.37310522855207 C5.87074946760012 14.651604578133599, 11.150684678279044 11.621455768736062, 20.038250163676267 9.232446252534482 C28.925815649073492 6.843436736332901, 43.0765156998042 4.630156465893904, 56.36851354738014 3.0390481313425894 C69.66051139495609 1.4479397967912744, 89.51504432979162 -0.12064439135214103, 99.79023724913193 -0.3142037547734091 C110.06543016847225 -0.5077631181946772, 114.93035477964828 1.8750260323094345, 118.01967106342204 1.877691950814981 C121.1089873471958 1.8803578693205274, 118.3419306917089 -0.24350015736408123, 118.32613495177445 -0.298208243740131" stroke="#000000" stroke-width="1" fill="none"></path></g><g transform="translate(820.8984375 215.771484375) rotate(0 63 12.5)"><text x="63" y="18" font-family="Virgil, Segoe UI Emoji" font-size="20px" fill="#000000" text-anchor="middle" style="white-space: pre;" direction="ltr">getComments</text></g><g><g transform="translate(694.2265625 114.61328125) rotate(0 34.31000423356886 -23.48804105430375)"><path d="M-0.5173984654247761 -0.9413245193660259 C11.18936906978488 -9.153132414072752, 57.56629232093691 -40.24087605401874, 69.13740693256258 -48.15495827123523 M1.411828610887751 1.178876162627712 C13.102965703895315 -6.380007269224151, 57.31666637360119 -38.86497989728115, 68.46452745228075 -47.000350956162436" stroke="#000000" stroke-width="1" fill="none"></path></g><g transform="translate(694.2265625 114.61328125) rotate(0 34.31000423356886 -23.48804105430375)"><path d="M50.192266783584515 -21.206999154989468 C53.78953509491806 -26.70016131415865, 56.81352284997646 -30.987491589648556, 69.49704397275113 -46.395391330411655 M51.06526624122695 -22.650179296959983 C54.11890713217634 -26.692346371464687, 58.40433328299956 -31.412971415814635, 68.53068337208592 -47.58794604084454" stroke="#000000" stroke-width="1" fill="none"></path></g><g transform="translate(694.2265625 114.61328125) rotate(0 34.31000423356886 -23.48804105430375)"><path d="M38.08197240795073 -37.773856808791294 C44.353047504729254 -39.76779034469371, 49.89678558000337 -40.60810739463182, 69.49704397275113 -46.395391330411655 M38.954971865593166 -39.21703695076181 C44.45036596205553 -39.83001317665013, 51.1615413676422 -41.23221825853085, 68.53068337208592 -47.58794604084454" stroke="#000000" stroke-width="1" fill="none"></path></g></g><g><g transform="translate(785.8828125 132.16796875) rotate(0 37.97835018179842 35.831234968011245)"><path d="M0.23720077201724044 -0.4815339557826519 C13.066320907324553 11.876387255142134, 64.42904890701175 61.319139322390164, 77.05410791561007 73.44241316393018 M-1.0974075520131739 -1.7799432279076428 C11.555756709268318 10.281982882578548, 62.8145674329903 59.103906832992415, 76.04013317017817 71.60747641996481" stroke="#000000" stroke-width="1" fill="none"></path></g><g transform="translate(785.8828125 132.16796875) rotate(0 37.97835018179842 35.831234968011245)"><path d="M47.728676770936424 59.42903213698011 C57.80869737840138 61.26699402026219, 64.26951485977925 65.7006108449172, 75.07643220140599 72.79801281840541 M48.84415805631476 58.82615863468092 C56.8643934914944 63.7527525606596, 66.7017458231028 66.75278056275195, 76.8820372236427 71.15804120638408" stroke="#000000" stroke-width="1" fill="none"></path></g><g transform="translate(785.8828125 132.16796875) rotate(0 37.97835018179842 35.831234968011245)"><path d="M61.8581548331981 44.54690016357302 C67.51841048425531 50.97588511101823, 69.6469096851971 59.972595640631624, 75.07643220140599 72.79801281840541 M62.97363611857644 43.94402666127383 C66.4202664590004 53.49264964037119, 71.74855678606268 61.241929917192614, 76.8820372236427 71.15804120638408" stroke="#000000" stroke-width="1" fill="none"></path></g></g></svg>