<svg version="1.1" xmlns="http://www.w3.org/2000/svg" viewBox="0 0 956.640625 273.33984375">
  <!-- svg-source:excalidraw -->
  <defs>
    <style>
      @font-face {
        font-family: "Virgil";
        src: url("https://excalidraw.com/FG_Virgil.woff2");
      }
      @font-face {
        font-family: "Cascadia";
        src: url("https://excalidraw.com/Cascadia.woff2");
      }
    </style>
  </defs>
  <rect x="0" y="0" width="956.640625" height="273.33984375" fill="#ffffff"></rect><g transform="translate(10 60.72265625) rotate(0 93.755859375 20.0625)"><path d="M0.8965617883950472 1.9340876173228025 C69.77414480046318 0.5007697140772869, 139.10917295718463 2.9939705526431135, 189.05703209526834 1.8204894494265318 M-0.754708924330771 -0.5544863706454635 C64.57566341450837 -0.23645634736556498, 128.18993219957554 -1.1360208817913005, 188.44748800154773 0.5175414616242051 M188.4067287314683 -0.9731845427304506 C186.52352625924277 13.855488601222168, 188.03866148787665 27.964234911068342, 186.36271791346368 40.705619556829326 M187.48011725302783 0.5641396576538682 C186.81748798525774 9.753679962561, 187.3014999035641 19.698035369091667, 187.74492766615 39.352591478265815 M188.48589782603082 40.723179085180156 C147.43227757633247 38.37906961815915, 111.83183001034993 42.08484446185193, -0.6582850348204374 40.048084182664745 M187.971992037259 39.97684928122907 C139.4073773659027 39.99029112623462, 90.88563130874316 39.96463368104228, 0.30536686535924673 40.488957756198936 M-1.6058601271361113 39.65080301277339 C-2.2393153623782562 24.769816312298637, -0.4703845099650789 10.366534613654945, 0.8732346761971712 -0.0889452863484621 M0.19976674672216177 41.065631025470786 C-0.6899728543206585 31.379069035768037, 0.46575575404916886 22.482295292220073, -0.6198821449652314 -0.3310196166858077" stroke="#000000" stroke-width="1" fill="none"></path></g><g transform="translate(41.353515625 68.28515625) rotate(0 60 12.5)"><text x="60" y="18" font-family="Virgil, Segoe UI Emoji" font-size="20px" fill="#000000" text-anchor="middle" style="white-space: pre;" direction="ltr">example.com</text></g><g transform="translate(45.5 115.09765625) rotate(0 89.970703125 25.5)"><path d="M1.0098967421799898 0.7256417702883482 C42.303094940018134 -1.6349114537288187, 87.42904345829085 -0.7724078655292033, 179.5827529896051 -0.5515325237065554 M-0.6839965069666505 0.8046122128143907 C62.17762789436712 -2.565724269019302, 124.7600078727883 -1.5994183276759943, 179.7725024437532 0.8443686598911881 M179.44921903498474 1.6309439968317747 C179.60820394608194 19.82992190727964, 180.47965288016016 35.49128499533981, 179.77688370831314 49.332390232011676 M180.38866593595597 -0.327699220739305 C179.54731818602423 12.194085221458227, 179.35416507289747 24.76282954066992, 179.98623906727883 51.1249228650704 M181.06087599880996 52.92424480430782 C124.4516648737572 51.886996120673395, 67.8935878582015 50.67410984681246, -1.8597636949270964 50.346682174131274 M179.2443474447355 51.2744110757485 C128.79808152614532 49.53100479749064, 77.06396522761133 49.525941949161094, -0.7854683781042695 51.655920528806746 M-0.2056084405630827 50.07496557943523 C-0.49346003311686215 36.08725978350267, 0.4295140169281513 21.97441475111991, 0.9133503306657076 0.3338115643709898 M0.3140477752313018 50.40015819016844 C-1.3272588395420462 32.725192284490916, -1.2739271961990744 12.180987525358795, 0.11396580096334219 -0.7568216985091567" stroke="#000000" stroke-width="1" fill="none"></path></g><g transform="translate(49.203125 129.76953125) rotate(0 77.5 12.5)"><text x="77.5" y="18" font-family="Virgil, Segoe UI Emoji" font-size="20px" fill="#000000" text-anchor="middle" style="white-space: pre;" direction="ltr">dev.example.com</text></g><g transform="translate(44.130859375 186.33984375) rotate(0 89.970703125 25.5)"><path d="M1.9813100527971983 -0.18244142644107342 C50.449157435194145 -1.9322902402296678, 96.42766880379715 -1.8398940405264512, 178.2675245832652 0.05806504376232624 M-0.6746251648291945 -0.8313314700499177 C44.50392465828009 0.19347663493335876, 87.40304886035666 0.536334263994104, 180.01443662587556 -0.750726112164557 M180.99354968778792 0.015885459259152412 C179.23922605288217 14.654369212593885, 181.2803242303152 26.273674575425687, 180.0705185364932 51.37918131239712 M180.33841671887788 0.09234320279210806 C179.50161783008838 13.699896046053619, 179.37021888404155 26.86725475937128, 180.56650381628427 51.08462210651487 M178.22057013027373 52.519664691761136 C111.41130655551935 50.25686979066031, 42.34940130290852 51.603916106330324, -1.7904298473149538 49.160840259864926 M179.18127828184518 50.86284919735044 C108.27655975835843 51.061351000883406, 37.545357508370216 49.92413088641388, -0.6312907105311751 51.96611194964498 M0.3544490169733763 52.60849832184613 C-0.5302722248155624 39.431282641831785, 1.5192983952444048 27.086084860377014, -1.7423835564404726 1.403347061946988 M0.8755964869633317 50.91802220698446 C1.0791856256965549 33.33463805178181, 1.150307050133124 14.673547559604053, -0.9703959291800857 0.018102548085153103" stroke="#000000" stroke-width="1" fill="none"></path></g><g transform="translate(50.6015625 199.33984375) rotate(0 83.5 12.5)"><text x="83.5" y="18" font-family="Virgil, Segoe UI Emoji" font-size="20px" fill="#000000" text-anchor="middle" style="white-space: pre;" direction="ltr">prod.example.com</text></g><g transform="translate(431.2460937499999 130.18359375) rotate(0 63.80664062500006 23.40234375)"><path d="M63.79955969937146 0.54624835960567 C83.11245081698577 6.029780169006153, 102.67984175067505 13.08396061601834, 127.8930191267283 23.227047545835376 M64.06459604855627 0.11585985962301493 C86.35695459167077 7.413937418136448, 107.40231635020254 16.708773321632, 127.29970332141978 23.279809498228133 M127.65508453734232 25.88648329488933 C109.04411729923982 27.55753778475973, 92.51528875958886 36.956012100570476, 64.84478305466473 45.327519221231334 M127.37260814663036 24.468627237714827 C108.76803055799982 31.30981835221992, 91.69272262842975 36.72030503543374, 64.7978008305654 47.4485797220841 M64.61714814789593 45.1629345845431 C48.12872656396482 41.03647371090875, 34.038741950307816 38.54446932457242, -1.1937770377844572 23.188609106466174 M64.06782632227987 46.849090271629386 C40.021981646395204 37.15382345278121, 17.7464820402627 29.5818968442516, -0.18496809247881174 23.405207955278456 M-0.11472554318606853 22.083304865285754 C23.72484393760562 16.23682842411101, 48.70885347172618 5.434749160036446, 65.55694090016186 -0.9058082867413759 M0.559765956364572 24.462479674257338 C18.74733197886497 16.6255832972005, 36.563119139261545 10.034191028214991, 63.33806037064642 -0.4878485267981887" stroke="#000000" stroke-width="1" fill="none"></path></g><g transform="translate(453.962890625 142.689453125) rotate(0 39 12)"><text x="39" y="17" font-family="Virgil, Segoe UI Emoji" font-size="19.23403532608697px" fill="#000000" text-anchor="middle" style="white-space: pre;" direction="ltr">/articles</text></g><g><g transform="translate(228.8353767301569 141.34010440399942) rotate(0 106.80020179097477 2.2409866396376117)"><path d="M0.9546603340655564 0.008985678479075387 C36.18302546924269 0.7625373128876503, 176.24385278403344 3.1182955716179888, 211.2341956871549 3.900683647066603 M-0.0032817198894918853 -1.0319007856585087 C35.631884212869316 -0.00704908632855461, 178.05790857882752 4.8655660782197705, 213.60368530183902 5.513874064933757" stroke="#000000" stroke-width="1" fill="none"></path></g><g transform="translate(228.8353767301569 141.34010440399942) rotate(0 106.80020179097477 2.2409866396376117)"><path d="M185.15795590562183 13.912897038860658 C193.64823427415158 10.385657194068507, 203.20162030787543 8.607463448158764, 215.241616099252 6.0713959874476 M185.70852162988294 14.270972846663037 C194.76250212761107 11.367255041146667, 202.93724238421999 8.967427600029865, 214.47247255232057 4.74324205963711" stroke="#000000" stroke-width="1" fill="none"></path></g><g transform="translate(228.8353767301569 141.34010440399942) rotate(0 106.80020179097477 2.2409866396376117)"><path d="M185.7188758076461 -6.600644129093565 C193.94114140094635 -4.201837688067879, 203.3326083283611 -0.05844754800187513, 215.241616099252 6.0713959874476 M186.2694415319072 -6.242568321291186 C195.23074317721256 -2.8496933475910806, 203.23326078406748 1.0488765458015763, 214.47247255232057 4.74324205963711" stroke="#000000" stroke-width="1" fill="none"></path></g></g><g transform="translate(333.859375 52.96875) rotate(0 51.671875 22.634765625)"><path d="M53.19629446975887 -1.6696502696722746 C70.80686239705364 8.836676557393803, 89.0879737400345 17.360234267948254, 104.45093856565654 24.099252806976438 M51.9627747470513 -0.9001850867643952 C61.34762914963125 5.025610848032811, 72.22639574063128 9.880985746142397, 104.23415007535368 23.50203739758581 M105.29524980299175 23.846990214660764 C89.58969049273767 28.953992071279572, 72.49880890698007 36.103584934266834, 52.37922243587673 46.715733455494046 M103.75972928944975 22.736281028948724 C83.84998503575848 31.51459920100075, 63.97367612000312 39.978354500600986, 51.076233440078795 46.13391729351133 M53.135841412469745 45.47035257704556 C33.98911454041885 38.47966049587929, 13.2229292906581 27.590766818981937, -0.5014555621892214 21.238557564094663 M51.86721640173346 45.67245932575315 C32.56216575907554 38.28848673095003, 12.644836401883623 28.865701934714014, 0.15698047820478678 22.604663423262537 M0.8632719349116087 21.999570118263364 C19.323642551740633 14.416981573682277, 38.79538546971045 6.095394318178293, 51.07715408317745 1.304749058559537 M-0.2478144532069564 22.748529247008264 C18.805986444028097 13.669219149108976, 39.547989954547965 4.936502900086342, 51.52244221512228 -0.19183383230119944" stroke="#000000" stroke-width="1" fill="none"></path></g><g transform="translate(360.03125 63.103515625) rotate(0 25.5 12.5)"><text x="25.5" y="18" font-family="Virgil, Segoe UI Emoji" font-size="20px" fill="#000000" text-anchor="middle" style="white-space: pre;" direction="ltr">/404</text></g><g><g transform="translate(228.078125 147.69140625) rotate(0 53.908546108230894 -35.34495020888747)"><path d="M-0.4784549910575151 -0.30087333731353283 C17.04363950106005 -11.825691205387313, 88.27605370295545 -57.351939012731115, 106.1384470384568 -68.71128790192306 M1.4712174092978239 -1.5044357847422363 C19.264800377214947 -13.399038332228862, 90.92941380930444 -58.93624544056754, 108.2955472075194 -70.38902708046139" stroke="#000000" stroke-width="1" fill="none"></path></g><g transform="translate(228.078125 147.69140625) rotate(0 53.908546108230894 -35.34495020888747)"><path d="M89.68276456805758 -48.23436967755411 C98.46072871113576 -56.41261824614361, 105.83614748621054 -65.02539697729682, 109.10140335902571 -70.90673771962524 M90.34120060845159 -46.86826381838624 C97.98166216877925 -54.57797165230464, 104.45226798321886 -64.12513111282078, 107.79533226665109 -70.26443773504347" stroke="#000000" stroke-width="1" fill="none"></path></g><g transform="translate(228.078125 147.69140625) rotate(0 53.908546108230894 -35.34495020888747)"><path d="M78.54703753186024 -65.47141077401679 C91.66201414106287 -66.98928111415391, 103.3115848658364 -68.98608115168412, 109.10140335902571 -70.90673771962524 M79.20547357225425 -64.10530491484892 C90.91588354576508 -65.23206443241891, 101.61235129204178 -68.2379935313899, 107.79533226665109 -70.26443773504347" stroke="#000000" stroke-width="1" fill="none"></path></g></g><g><g transform="translate(231.4609375 210.125) rotate(0 51.87109951250255 -67.74952313117684)"><path d="M0.43603473119437686 -0.16749051623046407 C18.040636801843842 -22.814557987575732, 87.39683055492739 -112.76038205834728, 104.53638478927314 -135.3315557461232 M-0.7941857642680408 -1.3010269825905563 C16.806090401535233 -23.803847284441193, 86.77294421168665 -111.66805663200715, 103.93761712126434 -133.86565819911658" stroke="#000000" stroke-width="1" fill="none"></path></g><g transform="translate(231.4609375 210.125) rotate(0 51.87109951250255 -67.74952313117684)"><path d="M94.30076265182792 -104.25362273338749 C96.17836236220529 -112.35167312669797, 97.69642988574829 -119.24031946757165, 104.64881859347224 -135.45939325138926 M95.55262247600108 -105.72805007114573 C97.60954263114793 -115.29111662043701, 101.81426800460216 -124.01565248394242, 103.34218286629766 -134.07257969554513" stroke="#000000" stroke-width="1" fill="none"></path></g><g transform="translate(231.4609375 210.125) rotate(0 51.87109951250255 -67.74952313117684)"><path d="M78.16853464397605 -116.93712469020204 C83.47703080093086 -122.4421252472495, 88.36777230931129 -126.67910332100206, 104.64881859347224 -135.45939325138926 M79.4203944681492 -118.41155202796028 C86.9078819910008 -123.63071017757868, 96.60989938344798 -128.03315773151257, 103.34218286629766 -134.07257969554513" stroke="#000000" stroke-width="1" fill="none"></path></g></g><g transform="translate(568.01953125 72.48828125) rotate(0 87.78125 28.24609375)"><path d="M114.63845893667411 2.2785388624502154 C127.6228535634932 3.1381825533153678, 141.70431062927673 6.225186627540559, 151.44213509799704 9.301737615791161 C161.17995956671734 12.378288604041764, 169.381486033675 16.645765215258493, 173.06540574899603 20.737844791953833 C176.74932546431705 24.829924368649174, 176.43553704811814 29.510184395924377, 173.54565338992325 33.854215075963204 C170.65576973172836 38.19824575600203, 164.55865084141996 43.5045143772148, 155.7261037998267 46.802028872186796 C146.89355675823342 50.099543367158795, 133.4600876828988 52.05983695054161, 120.55037114036364 53.63930204579519 C107.64065459782847 55.21876714104877, 91.72853150964373 56.68445472467916, 78.26780454461569 56.278819443708265 C64.80707757958764 55.87318416273737, 51.063004279518346 53.77505931442684, 39.78600935019538 51.205490359969815 C28.50901442087241 48.63592140551279, 17.25825157243559 44.78325673298406, 10.605834968677883 40.861405716966125 C3.953418364920174 36.93955470094819, -0.20114200296241097 32.01979352345441, -0.12849027235087362 27.67438426386224 C-0.055838541739336264 23.32897500427007, 4.596531217304148 18.463332328343814, 11.041745352347107 14.78895015941311 C17.486959487390067 11.114567990482408, 27.293850831245024 8.01731340573399, 38.54279453790688 5.628091250278025 C49.791738244568734 3.2388690948220615, 65.25779444279686 1.0728862509637032, 78.53540759231825 0.45361722667732707 C91.81302074183964 -0.1656517976090489, 110.94927711186502 1.689273840026481, 118.20847343503523 1.9124771045597697 C125.46766975820545 2.1356803690930586, 122.48663981607032 1.4819475659419226, 122.09058553133954 1.7928368138770594 M115.73638062836885 0.6536363103152034 C128.41242899086217 1.3384528310306454, 140.83449890697156 5.054504674631179, 150.03164189863296 8.299045622721952 C159.22878489029435 11.543586570812725, 166.90638723310394 15.633368107333975, 170.91923857833717 20.120881998859836 C174.9320899235704 24.608395890385697, 176.92426812900314 31.07554487849487, 174.10874997003225 35.224128971877114 C171.29323181106136 39.37271306525936, 162.9075641734957 41.923465075450935, 154.0261296245119 45.0123865591533 C145.1446950755281 48.10130804285566, 133.36137675979296 51.993656782083804, 120.82014267612945 53.75765787409132 C108.27890859246594 55.52165896609884, 92.51711583038785 55.92333594000137, 78.77872512253087 55.59639311119841 C65.0403344146739 55.26945028239545, 49.60614829223855 54.03047062018333, 38.38979842898756 51.79600090127356 C27.17344856573657 49.56153118236379, 18.05090878075106 45.863246542516485, 11.480625943024918 42.18957479773978 C4.910343105298776 38.515903052963075, -0.9062084834143747 34.38730686298278, -1.0318985973692918 29.753970432613343 C-1.157588711324209 25.1206340022439, 4.398654363780023 18.343627261413435, 10.726485259295416 14.38955621552313 C17.05431615481081 10.435485169632827, 25.549530887725815 8.386710643268726, 36.935086775723065 6.029544157271516 C48.320642663720314 3.672377671274306, 65.95966005095683 1.2558866472941996, 79.03982058727892 0.2465572995398695 C92.11998112360102 -0.7627720482144607, 109.42883542092889 -0.22297134788517128, 115.41604999365566 -0.026431929254464137 C121.40326456638243 0.170107489376243, 115.718212750015 0.9076570228939614, 114.96310802363956 1.4257938113241124" stroke="#000000" stroke-width="1" fill="none"></path></g><g transform="translate(587.525390625 85.712890625) rotate(0 59.5 12.5)"><text x="59.5" y="18" font-family="Virgil, Segoe UI Emoji" font-size="20px" fill="#000000" text-anchor="middle" style="white-space: pre;" direction="ltr">articlesPage</text></g><g><g transform="translate(502.27734375 133.203125) rotate(0 36.54623137960209 -10.154293976817286)"><path d="M0.40793265290558334 -0.6829115945845842 C12.225780902182063 -3.929810352995992, 59.59652050125103 -16.557582028582694, 71.65098030753434 -19.92801251001656 M-0.8370414336584509 1.5729558729194104 C11.29545663892602 -2.012321985457092, 61.772578801705194 -18.297360805366186, 73.92950419286267 -21.88154382655397" stroke="#000000" stroke-width="1" fill="none"></path></g><g transform="translate(502.27734375 133.203125) rotate(0 36.54623137960209 -10.154293976817286)"><path d="M48.91290728796578 -5.096525952139171 C59.29909874161949 -9.945626322587035, 66.31372960059869 -16.57361704996396, 72.08011683212594 -21.658833949137478 M50.77338301159746 -4.072870527313324 C54.584879535182786 -8.741657798390223, 60.06538084603441 -11.222240248828289, 73.03645449733362 -22.28339670902118" stroke="#000000" stroke-width="1" fill="none"></path></g><g transform="translate(502.27734375 133.203125) rotate(0 36.54623137960209 -10.154293976817286)"><path d="M42.82573601923419 -24.694136733327987 C55.342489050481404 -22.469773285885587, 64.56062052150689 -22.003607229336044, 72.08011683212594 -21.658833949137478 M44.68621174286587 -23.67048130850214 C50.019444745239866 -24.00984287478126, 56.84779575420282 -22.151031441098688, 73.03645449733362 -22.28339670902118" stroke="#000000" stroke-width="1" fill="none"></path></g></g><g transform="translate(776.28125 10) rotate(0 75.228515625 20.76171875)"><path d="M47.32981967356446 2.3230424280646673 C58.17920237018435 0.8768770813692575, 75.63987917675355 0.20050705631476468, 88.3338142820584 0.6958516226484903 C101.02774938736324 1.191196188982216, 113.73095581053417 3.13906706613126, 123.4934303053935 5.295109826067021 C133.25590480025284 7.451152586002783, 142.72860304704682 10.472323185610476, 146.90866125121437 13.632108182263057 C151.08871945538192 16.791893178915636, 151.17386617199017 20.910020299661294, 148.57377953039872 24.253819805982502 C145.97369288880728 27.59761931230371, 139.5333072854018 30.97444637540657, 131.30814140166567 33.6949052201903 C123.08297551792953 36.41536406497403, 111.16501541455584 39.42109552617269, 99.22278422798185 40.576572874684885 C87.28055304140786 41.73205022319708, 72.03823790420039 41.319614335292776, 59.65475428222168 40.62776931126346 C47.271270660242976 39.93592428723414, 34.43523414795689 38.5754254530095, 24.921882496109617 36.42550273050895 C15.40853084426234 34.275580008008404, 6.568316977854279 31.06781515022765, 2.574644371138021 27.728232976260166 C-1.4190282355782364 24.388650802292684, -2.081921357755391 20.01892834049325, 0.9598468558120743 16.388009686704063 C4.00161506937954 12.757091032914877, 12.389708573167502 8.634838738871128, 20.825253652542813 5.942721053525048 C29.260798731918122 3.2506033681789686, 45.69772946943799 1.1120572962775372, 51.573117332063944 0.23530357462758644 C57.4485051946899 -0.6414501470223642, 55.5859178023658 0.16968364269428093, 56.07758082829855 0.6821987236253442 M92.58303960098678 -0.8434186456709973 C104.42041339588816 -0.35978562205988673, 117.5013665242591 1.8500779741400546, 126.72370986094056 4.505114804137211 C135.94605319762204 7.160151634134367, 144.33228801931665 11.524833871528656, 147.91709962107558 15.08680233431194 C151.5019112228345 18.648770797095224, 151.3308515392087 22.40280445058318, 148.23257947149406 25.876925580836918 C145.13430740377942 29.351046711090657, 138.38848991343417 33.488348057567265, 129.3274672147877 35.931529115834365 C120.26644451614122 38.374710174101466, 106.26471584205018 39.901146654405196, 93.8664432796152 40.5360119304395 C81.46817071718021 41.170877206473804, 66.93553882447742 40.48184505450953, 54.93783184017782 39.74072077204019 C42.940124855878224 38.999596489570855, 30.66451043927546 38.64110895705927, 21.8802013738176 36.08926623562347 C13.095892308359737 33.53742351418767, 5.441963378829911 27.809047460733158, 2.2319774474306513 24.42966444342541 C-0.9780084839686083 21.05028142611766, -1.388488954468781 18.95169033745052, 2.620285785422041 15.812968131776977 C6.629060525312863 12.674245926103437, 16.951450570265948 8.240102185725572, 26.284625886775586 5.597331209384167 C35.617801203285225 2.9545602330427623, 47.17251273310253 0.6306390950866421, 58.61933768447987 -0.04365772627145503 C70.06616263585721 -0.7179545476295521, 88.98223923883505 1.5953554253714273, 94.96557559503965 1.5515502812355848 C100.94891195124426 1.5077451370997423, 95.07504062516678 -0.3592071784381374, 94.51935582170749 -0.3064885910865094" stroke="#000000" stroke-width="1" fill="none"></path></g><g transform="translate(799.009765625 18.26171875) rotate(0 52.5 12.5)"><text x="52.5" y="18" font-family="Virgil, Segoe UI Emoji" font-size="20px" fill="#000000" text-anchor="middle" style="white-space: pre;" direction="ltr">getArticles</text></g><g><g transform="translate(741.4196419570847 91.69456648632567) rotate(0 17.90657149715537 -27.54958069959163)"><path d="M-0.6390936333686114 -0.08877633623778824 C5.355672821695021 -9.07904706942995, 30.60904144641961 -44.36945542782344, 36.45223662767953 -53.05668393994627 M1.226243479773402 -1.1809878581017257 C7.114949258262328 -10.626177528976992, 30.138710453482524 -46.2168154939989, 36.06986473355836 -55.01038506294546" stroke="#000000" stroke-width="1" fill="none"></path></g><g transform="translate(741.4196419570847 91.69456648632567) rotate(0 17.90657149715537 -27.54958069959163)"><path d="M28.995814217333837 -24.02505539648767 C31.821593433008783 -37.30839335425503, 35.58612460327077 -46.87020864519121, 37.60607364442593 -56.67004857438562 M29.38903098654483 -25.058388812584536 C31.104776107590276 -31.747742233276234, 31.824658167891258 -38.95059801690561, 35.47746173240638 -54.8956536701223" stroke="#000000" stroke-width="1" fill="none"></path></g><g transform="translate(741.4196419570847 91.69456648632567) rotate(0 17.90657149715537 -27.54958069959163)"><path d="M11.853536447530104 -35.30611541976262 C20.59607914574743 -44.65917701993432, 30.19418157824068 -50.3820119581425, 37.60607364442593 -56.67004857438562 M12.246753216741098 -36.339448835859486 C17.740370566198376 -40.704338372892764, 22.21667361489177 -45.43515332205433, 35.47746173240638 -54.8956536701223" stroke="#000000" stroke-width="1" fill="none"></path></g></g><g transform="translate(784.4765625 145.0625) rotate(0 81.08203125 21.494140625)"><path d="M104.72069348249526 0.9427785328033842 C116.8597522407947 1.579682566587862, 129.37723778772053 4.365096161992259, 138.3966225000306 6.713393752516636 C147.41600721234065 9.061691343041012, 155.19174834143413 11.616710798770102, 158.83700175635556 15.032564075949644 C162.482255171277 18.448417353129187, 163.29227740650936 23.75202858826714, 160.26814298955918 27.20851341559389 C157.244008572609 30.664998242920642, 149.87256764158488 33.238810868424274, 140.69219525465456 35.77147303991015 C131.51182286772425 38.30413521139602, 117.82085250176989 41.235502483225005, 105.18590866797727 42.40448644450915 C92.55096483418465 43.5734704057933, 77.75195730784833 43.48939259291292, 64.88253225189882 42.78537680761502 C52.01310719594932 42.081361022317125, 37.90222566967596 40.69568997773372, 27.96935833228025 38.18039173272179 C18.036490994884545 35.66509348770985, 9.745977813144414 31.196300587710006, 5.285328227524602 27.6935873375434 C0.8246786419047893 24.19087408737679, -0.9845621094930741 20.3141006919797, 1.2054608185613773 17.164112231722147 C3.3954837466158287 14.014123771464593, 10.1214525298 11.378444634362934, 18.42546579585131 8.793656575998078 C26.729479061902616 6.208868517633222, 38.78445574779433 3.243327889850417, 51.02954041486923 1.6553838815330089 C63.27462508194413 0.0674398732156003, 82.1979002067533 -0.6800559867836249, 91.89597379830072 -0.7340074739063738 C101.59404738984813 -0.7879589610291227, 105.45693844870357 0.7926048652878338, 109.21798196415367 1.3316749587965155 C112.97902547960376 1.8707450523051974, 115.025488015196 2.014647945434973, 114.46223489100133 2.5004130871457164 M79.96945724236664 0.7112450068267364 C92.47867702384904 0.6038340537433756, 106.15307789842501 1.7378637905626115, 117.81810785239887 3.3888496772088743 C129.48313780637272 5.039835563855137, 142.37761889278775 7.984205343276962, 149.9596369662098 10.617160326704314 C157.54165503963188 13.250115310131665, 162.35428826876745 15.591978847382633, 163.31021629293127 19.18657957777298 C164.2661443170951 22.78118030816333, 161.57605282488296 29.11683287754908, 155.69520511119276 32.184764709046405 C149.81435739750256 35.25269654054373, 139.2050420172032 35.889441238225565, 128.02513001079012 37.594170566756944 C116.84521800437706 39.29889989528832, 101.82290331348025 41.658566983766534, 88.61573307271438 42.41314068023469 C75.4085628319485 43.16771437670285, 60.859619618265306 43.631758057338544, 48.78210856619491 42.12161274556589 C36.70459751412451 40.61146743379324, 24.058880446869612 36.25531442474471, 16.15066676029197 33.352268809598776 C8.242453073714326 30.449223194452845, 3.084650528465038 28.141888656370114, 1.332826446729058 24.703339054690296 C-0.418997635006922 21.26478945301048, 0.9653993707566855 16.14425474453676, 5.6397222698760885 12.720971199519873 C10.314045168995492 9.297687654502987, 18.986045738343883 6.164327734862715, 29.378763841445476 4.163637784588978 C39.77148194454707 2.1629478343152417, 59.747272860266236 1.5536427582534018, 67.99603088848566 0.7168314978774539 C76.24478891670509 -0.11997976249849407, 76.86197939428669 -0.6628504568422878, 78.87131201076205 -0.8572297776667099 C80.88064462723742 -1.051609098491132, 80.15711055282013 -1.0533961821661983, 80.0520265873378 -0.4494444270690785" stroke="#000000" stroke-width="1" fill="none"></path></g><g transform="translate(803.1640625 152.642578125) rotate(0 63 12.5)"><text x="63" y="18" font-family="Virgil, Segoe UI Emoji" font-size="20px" fill="#000000" text-anchor="middle" style="white-space: pre;" direction="ltr">getComments</text></g><g><g transform="translate(741.3839679934613 108.9412825754016) rotate(0 28.565416674900007 20.99215670286702)"><path d="M0.8545950192958116 0.9561764281243084 C10.365731811367331 7.771074487520462, 48.20457911860375 33.69267399734858, 57.28671467471336 40.18891093919102 M-0.15588132491335283 0.41256510755047193 C9.282325134139864 7.467358040446495, 47.29708498669966 34.81343285475897, 56.96465925504853 41.571748298183564" stroke="#000000" stroke-width="1" fill="none"></path></g><g transform="translate(741.3839679934613 108.9412825754016) rotate(0 28.565416674900007 20.99215670286702)"><path d="M29.63796648115237 35.58311192398925 C36.71307230075774 34.683901397244654, 45.49359713300214 36.87771834496767, 57.27238395628919 39.75080188602257 M28.57823384005894 33.228793702889575 C38.535110431238856 35.48239697775669, 48.337084158154155 38.30115627128501, 56.317431065304476 41.21980116289157" stroke="#000000" stroke-width="1" fill="none"></path></g><g transform="translate(741.3839679934613 108.9412825754016) rotate(0 28.565416674900007 20.99215670286702)"><path d="M41.5308498690147 18.859496073684994 C44.7225386473356 23.36851874994265, 49.71726739860245 30.88587224309847, 57.27238395628919 39.75080188602257 M40.47111722792127 16.50517785258532 C46.2417370028681 24.675664449408178, 51.82427115759599 33.42774404950328, 56.317431065304476 41.21980116289157" stroke="#000000" stroke-width="1" fill="none"></path></g></g><g transform="translate(778.640625 253.33984375) rotate(0 84 10)"><text x="168" y="14" font-family="Virgil, Segoe UI Emoji" font-size="16px" fill="#adb5bd" text-anchor="end" style="white-space: pre;" direction="ltr">Made with Excalidraw</text></g></svg>